<?xml version="1.0" standalone="no"?>
<!DOCTYPE svg PUBLIC "-//W3C//DTD SVG 1.1//EN"
 "http://www.w3.org/Graphics/SVG/1.1/DTD/svg11.dtd">
<svg width="1414px" height="744px" version="1.1"
 xmlns="http://www.w3.org/2000/svg" xmlns:xlink="http://www.w3.org/1999/xlink">
<ellipse transform="translate(762.984408 701.657488) rotate(-82.375227)" rx="8.012534" ry="7.122516" stroke="red" fill="none" stroke-width="1" />
<path d="M 751.864664,47.607496 A10.044698,8.000511 22.093009 1,1 745.859882,61.160207" fill="none" stroke ="red" stroke-width="1" />
<path d="M 826.358020,707.290031 A7.937726,6.254112 -85.291440 1,1 827.076213,696.600019" fill="none" stroke ="red" stroke-width="1" />
<ellipse transform="translate(800.996537 701.665770) rotate(-82.153542)" rx="8.001221" ry="7.121530" stroke="red" fill="none" stroke-width="1" />
<ellipse cx="739.733140" cy="121.143194" rx="4.354043" ry="4.354043" stroke="red" stroke-width="1" fill="none" /> 
<ellipse transform="translate(654.677511 118.779431) rotate(-87.961711)" rx="6.815258" ry="5.765339" stroke="red" fill="none" stroke-width="1" />
<path d="M 734.685992,60.696653 A13.114407,10.761314 -86.635224 1,1 736.323921,42.589518" fill="none" stroke ="red" stroke-width="1" />
<path d="M 814.623958,38.623573 A10.991983,8.410155 -3.101972 1,1 817.902877,54.565154" fill="none" stroke ="red" stroke-width="1" />
<path d="M 783.311301,696.560094 A5.738326,5.078746 -89.025136 1,1 782.667370,706.421067" fill="none" stroke ="red" stroke-width="1" />
<path d="M 563.671119,60.636955 A13.096099,12.844660 -80.559706 1,1 562.780763,40.294973" fill="none" stroke ="red" stroke-width="1" />
<ellipse transform="translate(598.667380 50.897184) rotate(-85.887907)" rx="13.310965" ry="11.765473" stroke="red" fill="none" stroke-width="1" />
<path d="M 688.174577,38.212611 A20.741816,10.133929 -20.645309 0,1 699.682155,51.697960" fill="none" stroke ="red" stroke-width="1" />
<ellipse transform="translate(598.669456 50.912075) rotate(-88.369485)" rx="10.284379" ry="7.907699" stroke="red" fill="none" stroke-width="1" />
<ellipse cx="739.696269" cy="121.198310" rx="6.560417" ry="6.560417" stroke="red" stroke-width="1" fill="none" /> 
<ellipse transform="translate(835.187926 701.638327) rotate(-84.208000)" rx="5.775366" ry="4.859425" stroke="red" fill="none" stroke-width="1" />
<path d="M 818.961576,40.980079 A5.396647,5.396647 0.000000 1,1 818.995830,51.243169" fill="none" stroke ="red" stroke-width="1" />
<path d="M 734.328482,58.300905 A9.952618,8.242599 -88.681912 1,1 733.960271,43.042295" fill="none" stroke ="red" stroke-width="1" />
<path d="M 657.982406,126.965541 A9.016764,7.974570 -89.476233 1,1 661.327416,123.769111" fill="none" stroke ="red" stroke-width="1" />
<ellipse transform="translate(835.164176 701.651543) rotate(-82.746808)" rx="8.006580" ry="7.068263" stroke="red" fill="none" stroke-width="1" />
<path d="M 722.780123,125.774629 A6.516453,6.212229 -63.165024 1,1 724.102589,117.946330" fill="none" stroke ="red" stroke-width="1" />
<path d="M 988.319351,464.061877 A95.314330,95.314330 0.000000 1,1 988.621905,293.353306" fill="none" stroke ="red" stroke-width="1" />
<path d="M 1174.929339,478.863846 A104.111777,104.111777 0.000000 1,1 973.950740,479.999066" fill="none" stroke ="red" stroke-width="1" />
<path d="M 974.132287,277.693360 A104.095216,104.048375 14.920726 1,1 1175.261474,277.068954" fill="none" stroke ="red" stroke-width="1" />
<path d="M 767.077052,705.919782 A5.625888,5.625888 0.000000 1,1 765.075320,696.297935" fill="none" stroke ="red" stroke-width="1" />
<path d="M 1160.194696,293.559746 A95.283922,95.283922 0.000000 1,1 1159.362572,463.209411" fill="none" stroke ="red" stroke-width="1" />
<ellipse transform="translate(800.974554 701.617668) rotate(-82.860036)" rx="5.799189" ry="4.895475" stroke="red" fill="none" stroke-width="1" />
<path d="M 852.188622,46.622554 A7.507693,6.477712 -15.659335 0,1 864.635651,39.441325" fill="none" stroke ="red" stroke-width="1" />
<path d="M 1160.824124,465.449814 A95.506587,95.506587 0.000000 1,1 988.728601,464.753401" fill="none" stroke ="red" stroke-width="1" />
<path d="M 559.518075,59.907475 A10.109245,9.279354 -84.154101 1,1 562.111249,43.902042" fill="none" stroke ="red" stroke-width="1" />
<path d="M 968.632188,271.872193 A108.076481,107.976886 0.392707 1,1 1180.501553,271.899111" fill="none" stroke ="red" stroke-width="1" />
<path d="M 967.861619,484.170095 A107.822494,107.822494 0.000000 1,1 967.704492,273.013625" fill="none" stroke ="red" stroke-width="1" />
<path d="M 866.226418,53.357326 A8.772932,7.678627 -7.645477 0,1 850.559838,60.621537" fill="none" stroke ="red" stroke-width="1" />
<path d="M 1219.844409,485.245689 A127.094130,127.094130 0.000000 0,1 1181.143954,484.148222" fill="none" stroke ="red" stroke-width="1" />
<path d="M 995.610709,296.948556 A91.531677,91.531677 0.000000 1,1 1146.916058,306.695180" fill="none" stroke ="red" stroke-width="1" />
<path d="M 1180.220663,484.382422 A108.025595,107.681046 -0.379350 1,1 969.001304,484.216946" fill="none" stroke ="red" stroke-width="1" />
<path d="M 313.979191,218.694099 A113.890453,113.890453 0.000000 0,1 535.783595,221.578713" fill="none" stroke ="red" stroke-width="1" />
<path d="M 1001.559508,451.223499 A91.387787,91.387787 0.000000 1,1 1002.730298,306.896966" fill="none" stroke ="red" stroke-width="1" />
<path d="M 1158.769619,298.426347 A92.007352,91.251521 1.210902 1,1 1150.991951,454.011919" fill="none" stroke ="red" stroke-width="1" />
<path d="M 581.717607,276.185572 A109.538962,109.538962 0.000000 0,1 579.324000,491.078463" fill="none" stroke ="red" stroke-width="1" />
<path d="M 1180.927284,273.241206 A107.762565,107.762565 0.000000 1,1 1219.954833,485.117908" fill="none" stroke ="red" stroke-width="1" />
<path d="M 586.415673,272.934318 A113.776652,113.776652 0.000000 0,1 583.587766,494.491332" fill="none" stroke ="red" stroke-width="1" />
<path d="M 328.756793,236.163613 A96.157063,95.222152 -4.203508 0,1 520.341710,236.972114" fill="none" stroke ="red" stroke-width="1" />
<path d="M 259.674836,490.779485 A113.779356,113.779356 0.000000 0,1 263.306885,269.009783" fill="none" stroke ="red" stroke-width="1" />
<path d="M 1154.237692,461.429171 A91.729368,91.473143 85.495303 1,1 997.109326,457.694653" fill="none" stroke ="red" stroke-width="1" />
<path d="M 1175.763721,278.610902 A103.796433,103.796433 0.000000 1,1 1183.149706,480.449693" fill="none" stroke ="red" stroke-width="1" />
<path d="M 263.842649,487.374400 A109.480367,109.480367 0.000000 0,1 266.170691,272.767547" fill="none" stroke ="red" stroke-width="1" />
<path d="M 517.438394,528.476038 A105.257077,105.257077 0.000000 0,1 509.795754,556.848074" fill="none" stroke ="red" stroke-width="1" />
<path d="M 972.720677,478.947742 A104.016312,103.782809 6.500114 1,1 972.886707,278.422389" fill="none" stroke ="red" stroke-width="1" />
<path d="M 521.051171,531.420552 A100.545668,100.545668 0.000000 0,1 321.640080,530.177583" fill="none" stroke ="red" stroke-width="1" />
<path d="M 237.989925,292.406225 A113.416159,113.416159 0.000000 0,1 274.643220,280.544834" fill="none" stroke ="red" stroke-width="1" />
<path d="M 276.114257,475.886759 A96.009807,94.965005 85.020730 0,1 278.127500,284.652593" fill="none" stroke ="red" stroke-width="1" />
<path d="M 509.487523,556.839083 A96.318907,96.318907 0.000000 0,1 325.405970,526.279387" fill="none" stroke ="red" stroke-width="1" />
<path d="M 574.112531,284.022388 A100.440727,100.440727 0.000000 0,1 570.735800,483.132259" fill="none" stroke ="red" stroke-width="1" />
<path d="M 325.501192,230.210348 A100.005945,98.035913 0.393369 0,1 522.421725,223.340055" fill="none" stroke ="red" stroke-width="1" />
<path d="M 988.752544,292.633958 A95.652514,95.491518 87.635333 1,1 1162.620976,287.840861" fill="none" stroke ="red" stroke-width="1" />
<path d="M 569.248367,287.677682 A96.255236,96.255236 0.000000 0,1 566.792292,479.382571" fill="none" stroke ="red" stroke-width="1" />
<path d="M 528.653793,539.742800 A109.103496,107.581904 0.840098 0,1 313.728097,536.880828" fill="none" stroke ="red" stroke-width="1" />
<path d="M 317.462632,222.527682 A109.576169,109.576169 0.000000 0,1 532.244378,225.528539" fill="none" stroke ="red" stroke-width="1" />
<path d="M 268.364636,478.775600 A99.589946,96.890812 88.520643 0,1 237.421855,292.761327" fill="none" stroke ="red" stroke-width="1" />
<path d="M 326.462646,580.608886 A126.431128,126.431128 0.000000 0,1 310.574670,543.377270" fill="none" stroke ="red" stroke-width="1" />
<path d="M 691.418837,41.597958 A5.129151,4.508781 2.480724 1,1 691.992231,49.014630" fill="none" stroke ="red" stroke-width="1" />
<path d="M 528.807474,556.445273 A114.134003,114.134003 0.000000 0,1 326.534116,580.658226" fill="none" stroke ="red" stroke-width="1" />
<path d="M 531.438710,545.146431 A126.768290,126.768290 0.000000 0,1 528.513800,556.137595" fill="none" stroke ="red" stroke-width="1" />
<path d="M 563.599854,50.002149 A73.450020,73.450020 0.000000 0,1 563.286607,60.969140" fill="none" stroke ="red" stroke-width="1" />
<path d="M 757.944778,55.027400 A7.178993,4.859129 28.692569 0,1 747.529758,58.421819" fill="none" stroke ="red" stroke-width="1" />
<path d="M 4.447357,734.932450 A57.425993,57.425993 0.000000 0,1 3.896955,723.886108" fill="none" stroke ="red" stroke-width="1" />
<line x1="649.490084" y1="63.500002" x2="649.485490" y2="39.499811"  fill="none" stroke ="blue" stroke-width="1" />
<line x1="574.474032" y1="52.499972" x2="574.465279" y2="60.501056"  fill="none" stroke ="blue" stroke-width="1" />
<line x1="782.428837" y1="63.511400" x2="782.564125" y2="52.488514"  fill="none" stroke ="blue" stroke-width="1" />
<line x1="668.735517" y1="695.492743" x2="668.612036" y2="708.501063"  fill="none" stroke ="blue" stroke-width="1" />
<line x1="688.478630" y1="63.500000" x2="688.478615" y2="39.499999"  fill="none" stroke ="blue" stroke-width="1" />
<line x1="745.498718" y1="694.340871" x2="755.506124" y2="694.260264"  fill="none" stroke ="blue" stroke-width="1" />
<line x1="782.496331" y1="694.292925" x2="788.500830" y2="694.320712"  fill="none" stroke ="blue" stroke-width="1" />
<line x1="788.761208" y1="694.259475" x2="793.315463" y2="698.689704"  fill="none" stroke ="blue" stroke-width="1" />
<line x1="793.091552" y1="699.456689" x2="792.440155" y2="705.599693"  fill="none" stroke ="blue" stroke-width="1" />
<line x1="793.992853" y1="705.054774" x2="788.219238" y2="710.183964"  fill="none" stroke ="blue" stroke-width="1" />
<line x1="787.504511" y1="709.887767" x2="781.482059" y2="709.957829"  fill="none" stroke ="blue" stroke-width="1" />
<line x1="781.308233" y1="708.500103" x2="781.301232" y2="695.499569"  fill="none" stroke ="blue" stroke-width="1" />
<line x1="631.306188" y1="708.500062" x2="631.302013" y2="695.499742"  fill="none" stroke ="blue" stroke-width="1" />
<line x1="783.666529" y1="697.499951" x2="783.669167" y2="706.499950"  fill="none" stroke ="blue" stroke-width="1" />
<line x1="835.500192" y1="38.526745" x2="847.506761" y2="38.440430"  fill="none" stroke ="blue" stroke-width="1" />
<line x1="805.500157" y1="57.519119" x2="795.500003" y2="57.520663"  fill="none" stroke ="blue" stroke-width="1" />
<line x1="571.500179" y1="38.525432" x2="583.506608" y2="38.441137"  fill="none" stroke ="blue" stroke-width="1" />
<line x1="666.500002" y1="38.507603" x2="683.500254" y2="38.503293"  fill="none" stroke ="blue" stroke-width="1" />
<line x1="583.536593" y1="41.697871" x2="575.462157" y2="41.329515"  fill="none" stroke ="blue" stroke-width="1" />
<line x1="847.521951" y1="41.569747" x2="839.479236" y2="41.379968"  fill="none" stroke ="blue" stroke-width="1" />
<line x1="650.499999" y1="38.499220" x2="661.501055" y2="38.487468"  fill="none" stroke ="blue" stroke-width="1" />
<line x1="818.526503" y1="42.500280" x2="818.431305" y2="51.509840"  fill="none" stroke ="blue" stroke-width="1" />
<line x1="818.354853" y1="55.467562" x2="818.660862" y2="63.531842"  fill="none" stroke ="blue" stroke-width="1" />
<line x1="704.335152" y1="126.512297" x2="704.482574" y2="116.499743"  fill="none" stroke ="blue" stroke-width="1" />
<line x1="666.577518" y1="704.497638" x2="666.302613" y2="695.475544"  fill="none" stroke ="blue" stroke-width="1" />
<line x1="629.330732" y1="59.071033" x2="636.714170" y2="38.945440"  fill="none" stroke ="blue" stroke-width="1" />
<line x1="651.297212" y1="705.501160" x2="651.239976" y2="695.495767"  fill="none" stroke ="blue" stroke-width="1" />
<line x1="709.388035" y1="63.500174" x2="709.350730" y2="39.497124"  fill="none" stroke ="blue" stroke-width="1" />
<line x1="575.450560" y1="61.492593" x2="583.529255" y2="61.096116"  fill="none" stroke ="blue" stroke-width="1" />
<line x1="839.450232" y1="61.493494" x2="847.529372" y2="61.094010"  fill="none" stroke ="blue" stroke-width="1" />
<line x1="654.468919" y1="61.450431" x2="661.521960" y2="61.241570"  fill="none" stroke ="blue" stroke-width="1" />
<line x1="638.304782" y1="42.790124" x2="630.595870" y2="64.174061"  fill="none" stroke ="blue" stroke-width="1" />
<line x1="615.333600" y1="63.500055" x2="615.325697" y2="39.499399"  fill="none" stroke ="blue" stroke-width="1" />
<line x1="570.636016" y1="63.500323" x2="570.642832" y2="39.500041"  fill="none" stroke ="blue" stroke-width="1" />
<line x1="728.165528" y1="708.507017" x2="728.220329" y2="695.498822"  fill="none" stroke ="blue" stroke-width="1" />
<line x1="653.592267" y1="695.496288" x2="653.547282" y2="706.496104"  fill="none" stroke ="blue" stroke-width="1" />
<line x1="653.439908" y1="706.447248" x2="649.655287" y2="710.758465"  fill="none" stroke ="blue" stroke-width="1" />
<line x1="649.534656" y1="709.941131" x2="645.469970" y2="709.850767"  fill="none" stroke ="blue" stroke-width="1" />
<line x1="644.929628" y1="710.115837" x2="641.609155" y2="706.402396"  fill="none" stroke ="blue" stroke-width="1" />
<line x1="641.721338" y1="706.500904" x2="641.729480" y2="695.500170"  fill="none" stroke ="blue" stroke-width="1" />
<line x1="802.443843" y1="37.880174" x2="811.761635" y2="63.765782"  fill="none" stroke ="blue" stroke-width="1" />
<line x1="653.380849" y1="42.494950" x2="653.125205" y2="48.526499"  fill="none" stroke ="blue" stroke-width="1" />
<line x1="653.215569" y1="52.486304" x2="653.369005" y2="60.502507"  fill="none" stroke ="blue" stroke-width="1" />
<line x1="853.876452" y1="707.646372" x2="859.261701" y2="693.796165"  fill="none" stroke ="blue" stroke-width="1" />
<line x1="852.753212" y1="709.411342" x2="849.306634" y2="699.567704"  fill="none" stroke ="blue" stroke-width="1" />
<line x1="860.132783" y1="708.556280" x2="860.479434" y2="698.499291"  fill="none" stroke ="blue" stroke-width="1" />
<line x1="786.325625" y1="39.500076" x2="786.336059" y2="63.500506"  fill="none" stroke ="blue" stroke-width="1" />
<line x1="797.499736" y1="54.669088" x2="803.501284" y2="54.678470"  fill="none" stroke ="blue" stroke-width="1" />
<line x1="862.475306" y1="695.500162" x2="862.560714" y2="708.506168"  fill="none" stroke ="blue" stroke-width="1" />
<line x1="834.677054" y1="63.500559" x2="834.688444" y2="39.500089"  fill="none" stroke ="blue" stroke-width="1" />
<line x1="692.301940" y1="42.494175" x2="692.094515" y2="49.546896"  fill="none" stroke ="blue" stroke-width="1" />
<line x1="728.137989" y1="126.508749" x2="728.247868" y2="118.496542"  fill="none" stroke ="blue" stroke-width="1" />
<line x1="703.870158" y1="695.487041" x2="703.790525" y2="705.502310"  fill="none" stroke ="blue" stroke-width="1" />
<line x1="692.185184" y1="53.461637" x2="692.414271" y2="63.524717"  fill="none" stroke ="blue" stroke-width="1" />
<line x1="673.219623" y1="63.508923" x2="673.328672" y2="42.493922"  fill="none" stroke ="blue" stroke-width="1" />
<line x1="621.579914" y1="38.837944" x2="628.646974" y2="58.078721"  fill="none" stroke ="blue" stroke-width="1" />
<line x1="730.380129" y1="118.472713" x2="730.660811" y2="127.526018"  fill="none" stroke ="blue" stroke-width="1" />
<line x1="580.529006" y1="696.508852" x2="576.364899" y2="710.153589"  fill="none" stroke ="blue" stroke-width="1" />
<line x1="748.254864" y1="47.527698" x2="748.334260" y2="42.497384"  fill="none" stroke ="blue" stroke-width="1" />
<line x1="748.229035" y1="42.441856" x2="753.917198" y2="38.038987"  fill="none" stroke ="blue" stroke-width="1" />
<line x1="754.489570" y1="38.532637" x2="757.509463" y2="38.563140"  fill="none" stroke ="blue" stroke-width="1" />
<line x1="758.005758" y1="38.321544" x2="761.826237" y2="40.619949"  fill="none" stroke ="blue" stroke-width="1" />
<line x1="759.185216" y1="55.948332" x2="747.855591" y2="47.993549"  fill="none" stroke ="blue" stroke-width="1" />
<line x1="768.222008" y1="63.501472" x2="768.242525" y2="39.499780"  fill="none" stroke ="blue" stroke-width="1" />
<line x1="701.475796" y1="706.509673" x2="701.584920" y2="695.500842"  fill="none" stroke ="blue" stroke-width="1" />
<line x1="705.351075" y1="710.759855" x2="701.583387" y2="706.427481"  fill="none" stroke ="blue" stroke-width="1" />
<line x1="709.501558" y1="709.906313" x2="705.493947" y2="709.921683"  fill="none" stroke ="blue" stroke-width="1" />
<line x1="713.291290" y1="706.462518" x2="709.617560" y2="710.742568"  fill="none" stroke ="blue" stroke-width="1" />
<line x1="713.437477" y1="695.494865" x2="713.384295" y2="706.499441"  fill="none" stroke ="blue" stroke-width="1" />
<line x1="814.739516" y1="63.499941" x2="814.733574" y2="39.499695"  fill="none" stroke ="blue" stroke-width="1" />
<line x1="789.816686" y1="62.977415" x2="798.990069" y2="37.677693"  fill="none" stroke ="blue" stroke-width="1" />
<line x1="583.519014" y1="546.045737" x2="532.488514" y2="545.378544"  fill="none" stroke ="blue" stroke-width="1" />
<line x1="583.494980" y1="64.309977" x2="571.495193" y2="64.360600"  fill="none" stroke ="blue" stroke-width="1" />
<line x1="847.499869" y1="64.338108" x2="835.499066" y2="64.347833"  fill="none" stroke ="blue" stroke-width="1" />
<line x1="278.493993" y1="525.103159" x2="324.499389" y2="525.561351"  fill="none" stroke ="blue" stroke-width="1" />
<line x1="661.506859" y1="64.274906" x2="650.490019" y2="64.372420"  fill="none" stroke ="blue" stroke-width="1" />
<line x1="573.805390" y1="235.478198" x2="573.187452" y2="283.508844"  fill="none" stroke ="blue" stroke-width="1" />
<line x1="799.784812" y1="43.586684" x2="796.744946" y2="53.574551"  fill="none" stroke ="blue" stroke-width="1" />
<line x1="518.483877" y1="527.830301" x2="565.513328" y2="528.400294"  fill="none" stroke ="blue" stroke-width="1" />
<line x1="582.492165" y1="226.331551" x2="532.515447" y2="225.860640"  fill="none" stroke ="blue" stroke-width="1" />
<line x1="713.191190" y1="39.500149" x2="713.202780" y2="63.500626"  fill="none" stroke ="blue" stroke-width="1" />
<line x1="601.460549" y1="696.488012" x2="597.312378" y2="710.139116"  fill="none" stroke ="blue" stroke-width="1" />
<line x1="310.496752" y1="542.844038" x2="260.510649" y2="542.372085"  fill="none" stroke ="blue" stroke-width="1" />
<line x1="273.251881" y1="528.524381" x2="273.906630" y2="481.477825"  fill="none" stroke ="blue" stroke-width="1" />
<line x1="321.497083" y1="529.759466" x2="274.503023" y2="529.231092"  fill="none" stroke ="blue" stroke-width="1" />
<line x1="711.112860" y1="705.503438" x2="711.023908" y2="695.486468"  fill="none" stroke ="blue" stroke-width="1" />
<line x1="751.424685" y1="116.494302" x2="751.366401" y2="127.493993"  fill="none" stroke ="blue" stroke-width="1" />
<line x1="751.298069" y1="697.488020" x2="751.463605" y2="708.515557"  fill="none" stroke ="blue" stroke-width="1" />
<line x1="781.500412" y1="51.991235" x2="773.499579" y2="51.997948"  fill="none" stroke ="blue" stroke-width="1" />
<line x1="642.851396" y1="39.498967" x2="642.921981" y2="63.504640"  fill="none" stroke ="blue" stroke-width="1" />
<line x1="863.994666" y1="56.209030" x2="852.065302" y2="47.706830"  fill="none" stroke ="blue" stroke-width="1" />
<line x1="689.499868" y1="694.314340" x2="700.500030" y2="694.316119"  fill="none" stroke ="blue" stroke-width="1" />
<line x1="749.210176" y1="127.499164" x2="749.204798" y2="116.499167"  fill="none" stroke ="blue" stroke-width="1" />
<line x1="749.005535" y1="708.517509" x2="749.133716" y2="697.495740"  fill="none" stroke ="blue" stroke-width="1" />
<line x1="618.815857" y1="43.466996" x2="619.319070" y2="63.529620"  fill="none" stroke ="blue" stroke-width="1" />
<line x1="570.850352" y1="484.502691" x2="570.489340" y2="531.499918"  fill="none" stroke ="blue" stroke-width="1" />
<line x1="585.701428" y1="710.184614" x2="582.069819" y2="696.350417"  fill="none" stroke ="blue" stroke-width="1" />
<line x1="606.435458" y1="709.247056" x2="602.703430" y2="695.444993"  fill="none" stroke ="blue" stroke-width="1" />
<line x1="529.476674" y1="541.109209" x2="578.524350" y2="541.820177"  fill="none" stroke ="blue" stroke-width="1" />
<line x1="723.510272" y1="122.168317" x2="716.496559" y2="122.276122"  fill="none" stroke ="blue" stroke-width="1" />
<line x1="564.733280" y1="709.433427" x2="560.662330" y2="695.168297"  fill="none" stroke ="blue" stroke-width="1" />
<line x1="625.925495" y1="60.705365" x2="620.808208" y2="46.389827"  fill="none" stroke ="blue" stroke-width="1" />
<line x1="755.677937" y1="127.496866" x2="755.630042" y2="109.496993"  fill="none" stroke ="blue" stroke-width="1" />
<line x1="695.294081" y1="697.496473" x2="695.342982" y2="708.505140"  fill="none" stroke ="blue" stroke-width="1" />
<line x1="758.039077" y1="109.495505" x2="757.983697" y2="127.495335"  fill="none" stroke ="blue" stroke-width="1" />
<line x1="569.087811" y1="287.521726" x2="569.731546" y2="240.475802"  fill="none" stroke ="blue" stroke-width="1" />
<line x1="845.939901" y1="708.504512" x2="845.980659" y2="695.498373"  fill="none" stroke ="blue" stroke-width="1" />
<line x1="717.689359" y1="708.503975" x2="717.732831" y2="695.497436"  fill="none" stroke ="blue" stroke-width="1" />
<line x1="537.503920" y1="221.993254" x2="586.493253" y2="222.372206"  fill="none" stroke ="blue" stroke-width="1" />
<line x1="276.173759" y1="280.497252" x2="276.569661" y2="233.500587"  fill="none" stroke ="blue" stroke-width="1" />
<line x1="277.956801" y1="477.481338" x2="277.388061" y2="524.510740"  fill="none" stroke ="blue" stroke-width="1" />
<line x1="692.928170" y1="709.521687" x2="693.110809" y2="697.494090"  fill="none" stroke ="blue" stroke-width="1" />
<line x1="267.416145" y1="223.499153" x2="266.921050" y2="272.494150"  fill="none" stroke ="blue" stroke-width="1" />
<line x1="656.884432" y1="708.505427" x2="656.935417" y2="695.497787"  fill="none" stroke ="blue" stroke-width="1" />
<line x1="277.478958" y1="232.207062" x2="324.521116" y2="232.786913"  fill="none" stroke ="blue" stroke-width="1" />
<line x1="638.806516" y1="63.549611" x2="639.569189" y2="43.464655"  fill="none" stroke ="blue" stroke-width="1" />
<line x1="317.514226" y1="223.448709" x2="268.482608" y2="222.785201"  fill="none" stroke ="blue" stroke-width="1" />
<line x1="523.384638" y1="224.657398" x2="524.768269" y2="234.462142"  fill="none" stroke ="blue" stroke-width="1" />
<line x1="569.528421" y1="532.635229" x2="522.478386" y2="531.918145"  fill="none" stroke ="blue" stroke-width="1" />
<line x1="677.011710" y1="42.489835" x2="677.153047" y2="63.509057"  fill="none" stroke ="blue" stroke-width="1" />
<line x1="579.466858" y1="540.499631" x2="580.001695" y2="492.505591"  fill="none" stroke ="blue" stroke-width="1" />
<line x1="587.219228" y1="223.483084" x2="586.571659" y2="272.514154"  fill="none" stroke ="blue" stroke-width="1" />
<line x1="622.550933" y1="696.202401" x2="618.195869" y2="710.091064"  fill="none" stroke ="blue" stroke-width="1" />
<line x1="644.041869" y1="695.486941" x2="643.952155" y2="705.504050"  fill="none" stroke ="blue" stroke-width="1" />
<line x1="264.512396" y1="538.228755" x2="313.488237" y2="538.706316"  fill="none" stroke ="blue" stroke-width="1" />
<line x1="659.858043" y1="693.836224" x2="665.866420" y2="705.308088"  fill="none" stroke ="blue" stroke-width="1" />
<line x1="698.116336" y1="118.492075" x2="698.193634" y2="124.503939"  fill="none" stroke ="blue" stroke-width="1" />
<line x1="568.499106" y1="239.574493" x2="522.493731" y2="239.022287"  fill="none" stroke ="blue" stroke-width="1" />
<line x1="328.520070" y1="236.910418" x2="281.477065" y2="236.316447"  fill="none" stroke ="blue" stroke-width="1" />
<line x1="566.455444" y1="527.499496" x2="566.986723" y2="480.516812"  fill="none" stroke ="blue" stroke-width="1" />
<line x1="772.161914" y1="39.452525" x2="771.839224" y2="48.547516"  fill="none" stroke ="blue" stroke-width="1" />
<line x1="555.490493" y1="49.884244" x2="563.519459" y2="49.760275"  fill="none" stroke ="blue" stroke-width="1" />
<line x1="771.808103" y1="52.445284" x2="772.272653" y2="63.551338"  fill="none" stroke ="blue" stroke-width="1" />
<line x1="263.024155" y1="268.488025" x2="263.421577" y2="219.507478"  fill="none" stroke ="blue" stroke-width="1" />
<line x1="280.643275" y1="237.501697" x2="280.098306" y2="283.507087"  fill="none" stroke ="blue" stroke-width="1" />
<line x1="525.502946" y1="235.129806" x2="572.492012" y2="235.503760"  fill="none" stroke ="blue" stroke-width="1" />
<line x1="259.849056" y1="541.516266" x2="260.440231" y2="492.487222"  fill="none" stroke ="blue" stroke-width="1" />
<line x1="584.009489" y1="495.503804" x2="583.636247" y2="545.493551"  fill="none" stroke ="blue" stroke-width="1" />
<line x1="839.472866" y1="49.019375" x2="845.566357" y2="48.675357"  fill="none" stroke ="blue" stroke-width="1" />
<line x1="264.483478" y1="218.785305" x2="313.513940" y2="219.415572"  fill="none" stroke ="blue" stroke-width="1" />
<line x1="582.364662" y1="276.526382" x2="583.058602" y2="227.479606"  fill="none" stroke ="blue" stroke-width="1" />
<line x1="654.481766" y1="48.975226" x2="660.543940" y2="48.764585"  fill="none" stroke ="blue" stroke-width="1" />
<line x1="773.499821" y1="48.899647" x2="781.500118" y2="48.897266"  fill="none" stroke ="blue" stroke-width="1" />
<line x1="264.572457" y1="488.470005" x2="263.809169" y2="537.520372"  fill="none" stroke ="blue" stroke-width="1" />
<line x1="658.820772" y1="698.482915" x2="659.357546" y2="708.560850"  fill="none" stroke ="blue" stroke-width="1" />
<line x1="678.272059" y1="116.466462" x2="677.997651" y2="126.513592"  fill="none" stroke ="blue" stroke-width="1" />
<line x1="6.500000" y1="732.407667" x2="1406.500000" y2="732.407900"  fill="none" stroke ="blue" stroke-width="1" />
<line x1="696.032473" y1="126.461903" x2="695.376547" y2="117.294190"  fill="none" stroke ="blue" stroke-width="1" />
<line x1="575.472813" y1="49.016900" x2="581.566067" y2="48.673999"  fill="none" stroke ="blue" stroke-width="1" />
<line x1="676.012840" y1="123.510965" x2="675.854352" y2="116.469516"  fill="none" stroke ="blue" stroke-width="1" />
<line x1="1155.309696" y1="462.466421" x2="1146.932647" y2="452.148729"  fill="none" stroke ="blue" stroke-width="1" />
<line x1="847.643465" y1="698.489395" x2="848.463060" y2="709.576653"  fill="none" stroke ="blue" stroke-width="1" />
<line x1="560.365147" y1="59.504603" x2="560.340793" y2="53.500646"  fill="none" stroke ="blue" stroke-width="1" />
<line x1="273.400335" y1="480.132800" x2="263.488703" y2="478.571731"  fill="none" stroke ="blue" stroke-width="1" />
<line x1="1158.875634" y1="299.012490" x2="1150.333821" y2="305.273276"  fill="none" stroke ="blue" stroke-width="1" />
<line x1="6.713466" y1="5.500000" x2="6.712804" y2="731.500000"  fill="none" stroke ="blue" stroke-width="1" />
<line x1="1406.289998" y1="731.500000" x2="1406.289381" y2="5.500000"  fill="none" stroke ="blue" stroke-width="1" />
<line x1="1175.123893" y1="478.795466" x2="1183.573026" y2="481.248469"  fill="none" stroke ="blue" stroke-width="1" />
<line x1="1405.500000" y1="737.038373" x2="7.500000" y2="737.038467"  fill="none" stroke ="blue" stroke-width="1" />
<line x1="3.868947" y1="736.500048" x2="3.812975" y2="6.499899"  fill="none" stroke ="blue" stroke-width="1" />
<line x1="1409.626633" y1="732.593888" x2="1406.046650" y2="737.422463"  fill="none" stroke ="blue" stroke-width="1" />
<line x1="1409.152755" y1="6.500000" x2="1409.152823" y2="732.500000"  fill="none" stroke ="blue" stroke-width="1" />
</svg>
