P2
66 85
27
0 0 0 0 0 0 0 0 
0 0 0 0 0 0 0 0 
0 0 15 15 15 15 0 0 
0 0 0 23 23 23 23 23 
23 0 0 0 0 0 0 0 
0 0 0 0 0 0 0 0 
0 0 0 0 0 0 0 0 
0 0 0 0 0 0 0 0 
0 0 0 0 0 0 0 0 
0 0 0 0 0 0 0 0 
0 0 15 15 15 15 15 15 
0 0 0 23 23 23 23 23 
23 23 0 0 0 0 0 0 
0 0 0 0 0 0 0 0 
0 0 0 0 0 0 0 0 
0 0 0 0 0 0 0 0 
0 0 0 0 0 0 0 0 
0 0 0 0 0 0 0 0 
0 0 0 15 15 15 15 15 
15 0 0 0 23 23 23 23 
23 23 0 0 0 0 0 0 
0 0 0 0 0 0 0 0 
0 0 0 0 0 0 0 0 
0 0 0 0 0 0 0 0 
0 0 0 0 0 0 0 0 
0 0 0 0 0 0 0 0 
0 0 0 15 15 15 15 15 
15 0 0 0 23 23 23 23 
23 23 23 0 0 0 0 0 
0 0 0 0 0 0 0 0 
0 0 0 0 0 0 0 0 
0 0 0 0 0 0 0 0 
0 0 0 0 0 0 0 0 
0 0 0 0 0 0 0 0 
0 0 0 15 15 15 15 15 
15 0 0 0 0 23 23 23 
23 23 23 0 0 0 0 0 
0 0 0 0 0 0 0 0 
0 0 0 0 0 0 10 0 
0 0 0 0 0 0 0 0 
0 0 0 0 0 0 0 0 
0 0 0 0 0 0 0 0 
0 0 0 0 15 15 15 15 
15 15 0 0 0 23 23 23 
23 23 23 0 0 0 0 0 
0 0 0 0 0 0 0 0 
0 0 0 0 0 0 10 10 
10 10 0 0 11 0 0 0 
0 0 0 0 0 0 0 0 
0 0 0 0 0 0 0 0 
0 0 0 0 15 15 15 15 
15 15 0 0 0 23 23 23 
23 23 23 23 0 0 0 0 
0 0 0 0 0 0 0 0 
0 0 0 0 0 0 0 10 
10 10 10 11 11 11 11 0 
0 0 0 0 0 0 0 0 
0 0 0 0 0 0 0 0 
0 0 0 0 15 15 15 15 
15 15 15 0 0 0 23 23 
23 23 23 23 0 0 0 0 
0 0 0 0 0 0 0 0 
0 0 0 0 0 0 0 10 
10 10 10 10 10 11 11 11 
11 0 0 0 0 0 0 0 
0 0 0 0 0 0 0 0 
0 0 0 0 0 15 15 15 
15 15 15 0 0 0 23 23 
23 23 23 23 23 0 0 0 
0 0 0 0 0 0 0 0 
0 0 0 0 0 0 0 10 
10 10 10 10 10 10 10 11 
11 11 11 0 0 0 0 0 
0 0 0 0 0 0 0 0 
0 0 0 0 0 15 15 15 
15 15 15 0 0 0 0 23 
23 23 23 23 23 0 0 0 
0 0 0 0 0 0 0 0 
0 0 0 0 0 0 0 0 
10 10 10 10 10 10 10 0 
0 0 11 11 11 11 0 0 
0 0 0 0 0 0 0 0 
0 0 0 0 0 0 15 15 
15 15 15 15 0 0 0 23 
23 23 23 23 23 0 0 0 
0 0 0 0 0 0 0 0 
0 0 0 0 0 0 0 0 
10 10 10 10 10 10 10 10 
0 0 0 0 11 11 11 11 
0 0 0 0 0 0 0 0 
0 0 0 0 0 0 15 15 
15 15 15 15 0 0 0 23 
23 23 23 23 23 23 0 0 
0 0 0 0 0 0 0 0 
0 0 0 0 0 0 0 0 
0 10 10 10 10 10 10 10 
0 0 0 0 0 0 11 11 
11 11 0 0 0 0 0 0 
0 0 0 20 20 0 0 0 
15 15 15 15 0 0 0 0 
23 23 23 23 23 23 0 0 
0 0 0 0 0 0 0 0 
0 0 0 0 0 0 0 0 
0 10 10 10 10 10 10 10 
0 0 0 0 0 0 0 0 
11 11 11 11 0 0 0 0 
0 0 0 0 0 0 20 0 
0 0 15 15 15 0 0 0 
23 23 23 23 23 23 23 0 
0 0 0 0 0 0 0 0 
0 0 0 0 0 0 0 0 
0 10 10 10 10 10 10 10 
10 0 0 0 0 0 0 0 
0 0 11 11 11 11 11 0 
0 0 0 0 0 0 0 0 
20 0 0 0 0 0 0 0 
0 23 23 23 23 23 23 0 
0 0 0 0 0 0 0 0 
0 0 0 0 0 0 0 0 
0 0 10 10 10 10 10 10 
10 0 0 0 0 0 0 0 
0 0 0 0 0 11 11 11 
11 0 0 0 0 0 0 0 
0 0 20 20 0 0 0 0 
0 23 23 23 23 23 23 0 
0 0 0 0 0 0 0 0 
0 0 0 0 0 0 0 0 
0 0 10 10 10 10 10 10 
10 10 0 0 0 0 0 0 
0 0 0 0 0 0 0 11 
11 11 11 0 0 0 0 0 
0 0 0 0 20 20 0 0 
0 23 23 23 23 23 23 23 
0 0 0 0 0 0 0 0 
0 0 0 0 0 0 0 0 
0 0 0 10 10 10 10 10 
10 10 1 1 1 1 1 1 
1 0 0 0 0 0 0 0 
0 11 11 11 11 0 0 0 
0 0 0 0 0 0 20 20 
0 0 23 23 23 23 23 23 
0 0 0 0 0 0 0 0 
0 0 0 0 0 0 0 0 
0 0 0 10 10 10 10 10 
10 10 1 1 1 1 1 1 
1 1 1 1 1 1 0 0 
0 0 0 11 11 11 11 0 
0 0 0 0 0 26 26 0 
0 20 0 0 23 23 23 23 
23 0 0 0 0 0 0 0 
0 0 0 0 0 0 0 0 
0 0 0 10 10 10 10 10 
10 10 10 1 1 1 1 1 
1 1 1 1 1 1 1 1 
1 1 0 0 0 0 11 11 
11 11 0 0 0 0 26 26 
26 26 0 20 20 0 23 23 
23 0 0 0 0 0 0 0 
0 0 0 0 0 0 0 0 
0 0 0 19 10 10 10 10 
10 10 10 1 1 1 1 1 
1 1 1 1 1 1 1 1 
1 1 1 1 1 0 0 0 
11 11 11 11 0 0 0 26 
26 26 26 0 22 20 20 0 
23 23 0 0 0 0 0 0 
0 0 0 0 0 0 0 0 
0 0 0 19 19 19 19 10 
10 10 10 1 1 1 1 1 
1 5 5 5 5 5 5 5 
5 5 1 1 1 1 1 1 
0 0 11 11 11 11 0 0 
26 26 26 26 26 22 22 20 
20 0 0 0 0 0 0 0 
0 0 0 0 0 0 0 0 
0 0 0 0 19 19 19 19 
19 10 10 10 1 1 1 1 
5 5 5 5 5 5 5 5 
5 5 5 5 5 5 1 1 
1 1 1 0 11 11 11 11 
0 26 26 26 26 26 0 22 
22 0 20 0 0 0 0 0 
0 0 0 0 0 0 0 0 
0 0 0 0 19 19 19 19 
19 19 19 19 1 1 1 1 
1 5 5 5 5 5 5 5 
0 0 5 5 5 5 5 5 
5 1 1 1 1 1 0 11 
11 11 11 26 26 26 26 0 
0 22 22 22 20 0 0 0 
0 0 0 0 0 0 0 0 
0 0 0 0 19 19 19 19 
19 19 19 19 1 1 1 1 
1 5 5 5 5 5 6 6 
6 6 6 6 6 6 6 0 
5 5 5 5 1 1 1 1 
1 11 11 11 26 26 26 26 
0 0 0 0 22 22 20 20 
0 0 0 0 0 0 0 0 
0 0 0 0 0 19 19 19 
19 19 19 19 19 1 1 1 
1 1 5 5 5 5 6 6 
6 6 6 6 6 6 6 6 
6 6 6 5 5 5 5 1 
1 1 1 11 11 11 26 26 
26 0 0 0 0 0 22 22 
20 0 0 0 0 0 0 0 
0 0 0 0 0 19 19 19 
19 19 19 19 19 0 1 1 
1 1 1 5 5 5 5 6 
6 6 6 6 4 4 4 4 
0 6 6 6 6 6 5 5 
5 5 1 1 1 11 11 11 
11 26 0 0 0 0 0 0 
22 22 0 0 0 0 0 0 
0 0 0 0 0 19 19 19 
19 19 19 19 19 0 0 1 
1 1 1 1 5 5 5 6 
6 6 6 4 4 4 4 4 
4 4 4 4 4 6 6 6 
6 5 5 5 1 1 1 11 
11 11 11 11 0 0 0 0 
0 0 22 22 22 0 0 0 
0 0 0 0 0 0 19 19 
19 19 19 19 19 0 16 0 
0 1 1 1 1 5 5 5 
6 6 6 6 4 4 4 4 
4 0 0 4 4 4 4 4 
6 6 6 6 5 5 5 1 
1 1 11 11 11 11 0 0 
0 0 0 0 0 22 22 0 
0 0 0 0 0 0 19 19 
19 19 19 19 19 19 0 16 
16 16 1 1 1 1 5 5 
5 6 6 6 4 4 4 4 
3 3 3 3 3 3 3 3 
4 4 4 6 6 6 5 5 
5 1 1 1 11 11 11 11 
0 0 0 0 0 0 0 22 
22 0 0 0 0 0 0 0 
19 19 19 19 19 19 0 0 
16 16 16 16 1 1 1 1 
5 5 5 6 6 4 4 4 
3 3 3 3 3 3 3 3 
3 3 3 4 4 4 6 6 
6 5 5 1 1 1 11 11 
11 11 0 0 0 0 0 0 
0 22 22 0 0 0 0 0 
0 0 0 19 19 19 0 0 
0 16 16 16 16 16 1 1 
1 5 5 5 6 6 4 4 
4 3 3 3 3 2 2 2 
2 3 3 3 3 3 4 4 
4 6 6 5 5 5 1 1 
11 11 11 11 0 0 0 0 
0 0 0 22 22 0 0 0 
0 0 0 7 7 7 19 0 
0 16 16 16 16 16 16 1 
1 1 5 5 5 6 6 4 
4 4 3 3 3 2 2 2 
2 2 2 2 2 3 3 3 
3 4 4 6 6 5 5 5 
1 1 1 11 11 11 11 0 
0 0 0 0 0 22 22 22 
0 0 0 0 7 7 7 7 
0 0 16 16 16 16 16 16 
1 1 1 1 5 5 5 6 
6 4 4 3 3 3 2 2 
2 2 2 2 2 2 2 2 
3 3 3 4 4 6 6 6 
5 5 1 1 1 11 11 11 
11 0 0 0 0 0 0 0 
22 22 0 0 0 0 7 7 
7 7 0 16 16 16 16 16 
0 1 1 1 1 5 5 5 
6 6 4 4 3 3 3 2 
2 2 2 2 2 2 2 2 
2 2 2 3 3 3 4 4 
6 6 5 5 1 1 1 11 
11 11 11 0 0 0 0 0 
0 0 22 22 0 0 0 0 
0 7 7 7 16 16 16 16 
16 0 0 1 1 1 1 5 
5 6 6 4 4 3 3 3 
2 2 2 2 2 0 0 0 
0 2 2 2 2 2 3 3 
4 4 6 6 5 5 1 1 
1 11 11 11 11 0 0 0 
0 0 0 0 22 0 0 0 
0 0 0 7 7 7 7 16 
16 16 0 0 0 1 1 1 
5 5 5 6 6 4 4 3 
3 2 2 2 2 2 0 0 
0 0 0 0 2 2 2 2 
3 3 4 4 6 6 5 5 
1 1 1 11 11 11 11 11 
0 0 0 0 0 0 0 0 
0 0 0 0 0 7 7 7 
7 16 16 0 0 0 1 1 
1 1 5 5 5 6 4 4 
3 3 2 2 2 2 2 0 
0 0 0 0 0 0 0 2 
2 2 3 3 4 4 6 6 
5 5 1 1 1 1 11 11 
11 11 0 0 0 0 0 0 
0 0 0 0 0 0 0 7 
7 7 7 0 0 0 0 0 
1 1 1 1 5 5 6 6 
4 4 3 3 2 2 2 2 
0 0 0 0 0 0 0 0 
0 2 2 2 3 3 4 4 
6 6 5 5 1 1 1 1 
11 11 11 11 0 0 0 0 
0 0 0 0 0 0 0 0 
0 0 7 7 7 7 0 0 
0 0 1 1 1 5 5 5 
6 6 4 4 3 3 2 2 
2 0 0 0 0 0 0 0 
0 0 0 2 2 2 3 3 
4 4 6 6 5 5 1 1 
1 1 11 11 11 11 0 0 
0 0 0 0 0 0 0 0 
0 0 0 0 7 7 7 7 
0 0 0 1 1 1 1 5 
5 5 6 4 4 3 3 2 
2 2 2 0 0 0 0 0 
0 0 0 0 0 2 2 2 
3 3 4 4 6 6 5 5 
1 1 1 1 11 11 11 11 
0 0 0 0 0 0 0 0 
0 0 0 0 0 0 7 7 
7 7 0 0 0 1 1 1 
1 5 5 6 6 4 4 3 
3 2 2 2 2 0 0 0 
0 0 0 0 0 0 0 2 
2 2 3 3 4 4 6 5 
5 5 1 1 1 0 0 11 
11 11 11 0 0 0 0 0 
0 0 0 0 0 0 0 0 
7 7 7 7 0 0 0 1 
1 1 1 5 5 6 6 4 
4 3 3 2 2 2 2 0 
0 0 0 0 0 0 0 0 
2 2 2 2 3 3 4 4 
6 5 5 5 1 1 1 0 
0 11 11 11 11 0 0 0 
0 0 0 0 0 0 0 0 
0 0 0 7 7 7 7 0 
0 1 1 1 1 5 5 6 
6 4 4 3 3 2 2 2 
0 0 0 0 0 0 0 0 
0 0 2 2 2 2 3 3 
4 4 6 5 5 1 1 1 
1 0 0 11 11 11 11 0 
0 0 0 0 0 0 0 0 
0 0 0 0 0 7 7 7 
7 0 0 1 1 1 0 0 
0 6 6 4 4 3 3 2 
2 2 0 0 0 0 0 0 
0 0 0 0 2 2 2 2 
3 3 4 6 6 5 5 1 
1 1 1 0 0 11 11 11 
11 0 0 0 0 0 0 0 
0 0 0 0 0 0 0 7 
7 7 7 0 0 1 1 1 
5 5 5 6 6 4 4 3 
3 2 2 2 2 0 0 0 
0 0 0 0 0 2 2 2 
2 3 3 4 4 6 5 5 
5 1 1 1 1 0 0 11 
11 11 11 11 0 0 0 0 
0 0 0 0 0 0 0 0 
0 7 7 7 7 0 0 1 
1 1 5 5 5 6 6 4 
4 3 3 2 2 2 2 0 
0 0 0 0 0 0 2 2 
2 2 2 3 3 4 4 6 
5 5 1 1 1 1 0 0 
0 0 11 11 11 11 0 0 
0 0 0 0 0 0 0 0 
0 0 0 0 7 7 7 7 
0 1 1 1 5 5 5 6 
6 4 4 3 3 2 2 2 
2 0 0 0 0 0 0 2 
2 2 2 2 3 3 4 4 
6 6 5 5 1 1 1 1 
0 0 0 0 11 11 11 11 
0 0 0 0 0 0 0 0 
0 0 0 0 0 0 7 7 
7 7 0 1 1 1 5 5 
5 6 6 4 4 3 3 3 
2 2 2 2 0 0 0 0 
2 2 2 2 2 3 3 3 
4 4 6 5 5 5 1 1 
1 0 0 0 0 0 11 11 
11 11 0 0 0 0 0 0 
0 0 0 0 0 0 0 0 
7 7 7 7 0 1 1 1 
5 5 5 6 6 4 4 4 
3 3 2 2 2 2 2 2 
2 2 2 2 2 2 3 3 
3 4 4 6 6 5 5 1 
1 1 1 0 0 0 0 0 
11 11 11 11 0 0 0 0 
0 0 0 0 0 0 0 0 
0 0 7 7 7 7 7 1 
1 1 1 5 5 6 6 6 
4 4 3 3 3 2 2 2 
2 2 2 2 2 2 2 3 
3 3 4 4 6 6 5 5 
5 1 1 1 1 0 0 0 
0 0 0 11 11 11 11 0 
0 0 0 0 0 0 0 0 
0 0 0 0 0 7 7 7 
7 1 1 1 1 5 5 5 
6 6 4 4 0 3 3 3 
2 2 2 2 2 2 2 2 
3 3 3 4 4 4 6 5 
5 5 1 1 1 1 0 0 
0 0 0 0 9 11 11 0 
0 0 0 13 13 0 0 0 
0 0 0 0 0 0 0 7 
7 7 7 1 1 1 1 5 
5 5 6 6 6 4 4 3 
3 3 3 3 3 3 3 3 
3 3 3 3 4 4 4 6 
6 5 5 1 1 1 1 1 
0 0 0 0 0 9 9 9 
9 0 0 0 13 13 13 13 
0 0 0 0 0 0 0 0 
0 7 7 7 7 0 1 1 
1 5 5 5 6 6 6 4 
4 4 3 3 3 3 3 3 
3 3 3 3 3 4 4 4 
6 6 5 5 5 1 1 1 
1 0 0 0 0 9 9 9 
9 9 9 9 0 13 13 13 
13 13 0 0 0 0 0 0 
0 0 0 7 7 7 7 7 
1 1 1 1 5 5 5 6 
6 6 4 0 0 0 3 3 
3 3 3 3 3 4 4 4 
4 6 6 5 5 5 1 1 
1 1 0 0 0 9 9 9 
9 9 9 9 9 0 13 13 
13 13 13 0 0 0 0 0 
0 0 0 0 0 0 7 7 
7 7 1 1 1 1 5 5 
5 6 6 6 6 0 0 0 
4 4 4 4 4 4 4 4 
4 6 6 6 5 5 5 1 
1 1 1 1 0 0 9 9 
9 9 9 9 9 9 0 0 
13 13 13 13 0 0 0 0 
0 0 0 0 0 0 0 0 
7 7 7 7 1 1 1 1 
0 5 5 5 6 6 6 6 
0 4 4 4 4 4 4 4 
4 6 6 6 6 5 5 5 
1 1 1 1 1 0 9 9 
9 9 9 9 9 9 0 0 
0 13 13 13 13 0 0 0 
0 0 0 0 0 0 0 0 
0 0 7 7 7 7 0 1 
1 1 1 5 5 5 5 6 
6 6 6 6 6 6 6 6 
6 6 6 6 6 6 5 5 
5 1 1 1 1 1 0 9 
9 9 9 9 9 9 9 0 
0 0 13 13 13 13 13 0 
0 0 0 0 0 0 0 0 
0 0 0 0 7 7 7 7 
7 1 1 1 1 1 5 5 
5 5 6 6 6 6 6 6 
6 6 6 6 6 6 5 5 
5 5 1 1 1 1 1 9 
9 9 9 9 9 9 9 0 
0 0 0 13 13 13 13 13 
0 0 0 0 0 0 0 0 
0 0 0 0 0 0 0 7 
7 7 7 0 1 1 1 1 
1 5 5 5 5 5 6 6 
6 6 6 6 6 6 5 5 
5 5 5 1 1 1 1 1 
9 9 9 9 9 9 9 0 
0 0 0 0 13 13 13 13 
13 0 0 0 0 0 0 0 
0 0 0 0 0 0 0 0 
0 7 7 7 7 0 0 1 
1 1 1 1 5 5 5 5 
5 5 5 5 5 5 5 5 
5 5 5 5 1 1 1 1 
9 9 9 9 9 9 9 9 
0 0 0 0 0 0 13 13 
13 13 0 0 0 0 0 0 
0 0 0 0 0 0 0 0 
0 0 0 7 7 7 7 0 
0 0 1 1 1 0 0 0 
5 5 5 5 5 5 5 5 
5 5 5 5 1 1 1 1 
1 9 9 9 9 9 9 9 
0 0 0 0 0 0 0 0 
0 0 13 0 0 0 0 0 
0 0 0 0 0 0 0 0 
0 0 0 0 0 7 7 7 
7 7 0 0 1 1 1 0 
1 1 1 0 5 5 5 5 
5 5 5 1 1 1 1 1 
1 9 9 9 9 9 9 9 
9 0 0 0 0 0 0 0 
0 0 0 0 0 0 0 0 
0 0 0 0 0 0 0 0 
0 0 0 0 0 0 0 0 
7 7 7 7 0 0 0 0 
0 0 1 1 1 1 1 1 
1 1 1 1 1 1 1 1 
1 1 9 9 9 9 9 9 
9 0 0 0 0 0 0 0 
0 25 0 0 21 21 0 0 
0 0 0 0 0 0 0 0 
0 0 0 0 0 0 0 0 
0 0 7 7 7 7 0 0 
0 0 0 1 1 1 1 1 
1 1 1 1 1 1 1 1 
1 1 9 9 9 9 9 9 
9 9 0 0 0 0 0 0 
0 0 25 25 25 21 21 21 
0 0 0 0 0 0 0 0 
0 0 0 0 0 0 0 0 
0 0 0 0 7 7 7 7 
0 0 0 0 0 0 0 1 
1 1 1 1 1 1 1 1 
1 1 1 9 9 9 9 9 
9 9 0 0 0 0 0 0 
0 0 25 25 25 25 25 21 
21 21 0 0 0 0 0 0 
0 0 0 0 0 0 0 0 
0 17 0 0 0 0 0 7 
7 7 7 0 0 0 0 0 
0 0 0 0 1 1 1 1 
1 1 0 9 9 9 9 9 
9 9 9 0 0 0 0 0 
0 0 0 25 25 25 25 25 
0 21 21 21 0 0 0 0 
0 0 0 0 0 0 0 0 
0 17 17 17 0 0 0 0 
0 7 7 7 7 0 0 0 
0 0 0 0 0 0 0 0 
0 0 0 0 9 9 9 9 
9 9 9 0 0 0 0 0 
0 0 0 25 25 25 25 25 
0 0 0 21 21 21 0 0 
0 0 0 0 0 0 0 0 
0 0 0 17 17 17 17 0 
0 0 0 7 7 7 7 0 
0 0 0 0 0 0 0 0 
0 0 0 0 9 9 9 9 
9 9 9 9 0 0 0 0 
0 0 0 0 25 25 25 25 
25 0 0 0 0 0 21 21 
0 0 0 0 0 0 0 0 
0 0 0 0 0 0 17 17 
17 0 0 0 0 7 7 7 
7 0 0 0 0 0 0 0 
0 0 0 0 0 9 9 9 
9 9 9 9 0 0 0 0 
0 0 0 0 25 25 25 25 
25 0 0 0 0 0 0 0 
21 21 0 0 0 0 0 0 
8 0 0 0 0 0 0 0 
17 17 17 0 0 0 0 0 
7 7 7 7 0 0 0 0 
0 0 0 0 0 9 9 9 
9 9 9 9 9 0 0 0 
0 0 0 0 0 25 25 25 
25 25 0 0 0 0 0 0 
0 0 21 21 21 0 0 0 
0 8 8 0 0 0 0 0 
0 0 17 17 17 0 0 0 
0 0 7 7 7 7 0 0 
0 0 0 0 0 9 9 9 
9 9 9 9 9 0 0 0 
0 0 0 0 0 25 25 25 
25 25 0 0 0 0 0 0 
0 0 0 0 21 21 0 0 
0 8 8 8 8 8 0 0 
0 0 0 0 17 17 17 17 
0 0 0 0 7 7 7 7 
0 0 0 0 0 0 9 9 
9 9 9 9 9 9 0 0 
0 0 0 0 0 25 25 25 
25 25 25 0 0 0 0 0 
0 0 0 0 0 0 0 8 
8 8 8 8 8 8 8 0 
0 0 0 0 0 0 17 17 
17 17 0 0 0 0 7 7 
7 7 0 0 0 0 9 9 
9 9 9 9 9 9 0 0 
0 0 0 0 0 0 25 25 
25 25 25 0 0 0 0 0 
0 0 0 0 0 0 0 14 
8 8 8 8 8 8 8 0 
0 0 0 0 0 0 0 0 
0 17 17 17 17 0 0 0 
0 7 7 7 7 0 0 9 
9 9 9 9 9 9 0 0 
0 0 0 0 0 0 25 25 
25 25 25 25 0 0 0 0 
0 0 0 0 0 0 0 14 
14 14 8 8 8 8 0 8 
0 18 18 0 0 0 0 0 
0 0 0 17 17 17 17 0 
0 0 0 7 7 7 7 9 
9 9 9 9 9 9 9 0 
0 0 0 0 0 0 0 25 
25 25 25 25 0 0 0 0 
0 0 0 0 0 0 0 0 
14 14 14 14 14 0 0 0 
0 0 18 18 18 0 0 0 
0 0 0 0 0 0 17 17 
17 0 0 0 0 7 7 7 
7 9 9 9 9 9 9 0 
0 0 0 0 0 0 0 0 
25 25 25 25 25 0 0 0 
0 0 0 0 0 0 0 0 
14 14 14 14 14 14 0 0 
0 0 18 18 18 18 18 0 
0 0 0 0 0 0 0 0 
17 17 17 17 0 0 0 7 
7 7 7 9 9 9 9 9 
0 0 0 0 0 0 0 12 
12 12 12 25 25 0 0 0 
0 0 0 0 0 0 0 0 
0 14 14 14 14 14 0 0 
0 0 0 18 18 18 18 18 
0 0 0 0 0 0 0 0 
0 27 27 17 17 17 0 0 
0 0 7 7 7 7 9 9 
0 0 0 0 0 0 0 12 
12 12 12 12 12 25 0 0 
0 0 0 0 0 0 0 0 
0 14 14 14 14 14 14 0 
0 0 0 18 18 18 18 18 
0 0 0 0 0 0 0 0 
0 0 27 27 27 17 17 17 
17 0 0 0 7 7 7 7 
9 0 0 0 0 0 0 12 
12 12 12 12 12 12 12 12 
0 0 0 0 0 0 0 0 
0 0 14 14 14 14 14 0 
0 0 0 0 18 18 18 18 
18 0 0 24 24 0 0 0 
0 0 27 27 27 27 0 17 
17 17 17 0 0 0 7 7 
7 7 0 0 0 0 12 12 
12 12 12 12 12 12 12 0 
0 0 0 0 0 0 0 0 
0 0 14 14 14 14 14 0 
0 0 0 0 18 18 18 18 
18 18 0 0 24 24 24 0 
0 0 27 27 27 27 0 0 
0 0 17 17 17 0 0 0 
7 7 0 0 0 0 12 12 
12 12 12 12 12 12 12 0 
0 0 0 0 0 0 0 0 
0 0 0 14 14 14 14 14 
0 0 0 0 0 18 18 18 
18 18 0 0 0 24 24 24 
24 24 0 27 27 27 0 0 
0 0 0 0 17 17 17 17 
0 0 0 0 0 0 12 12 
12 12 12 12 12 12 12 0 
0 0 0 0 0 0 0 0 
0 0 0 14 14 14 14 14 
0 0 0 0 0 0 18 18 
18 18 18 0 0 24 24 24 
24 24 0 0 0 0 27 0 
0 0 0 0 0 0 17 17 
17 17 0 0 0 0 0 12 
12 12 12 12 12 12 0 0 
0 0 0 0 0 0 0 0 
0 0 0 14 14 14 14 14 
14 0 0 0 0 0 18 18 
18 18 18 0 0 0 24 24 
24 24 24 0 0 0 0 0 
0 0 0 0 0 0 0 0 
0 17 0 0 0 0 0 0 
0 0 12 12 12 12 0 0 
0 0 0 0 0 0 0 0 
0 0 0 0 0 14 14 14 
14 0 0 0 0 0 0 18 
18 18 18 18 0 0 0 0 
24 24 24 24 0 0 0 0 
0 0 0 0 0 0 0 0 
0 0 0 0 0 0 0 0 
0 0 0 0 12 0 0 0 
0 0 0 0 0 0 0 0 
0 0 0 0 0 0 0 0 
14 14 0 0 0 0 0 0 
0 0 18 18 0 0 0 0 
0 0 24 24 0 0 0 0 
0 0 