<?xml version="1.0" standalone="no"?>
<!DOCTYPE svg PUBLIC "-//W3C//DTD SVG 1.1//EN"
 "http://www.w3.org/Graphics/SVG/1.1/DTD/svg11.dtd">
<svg width="640px" height="480px" version="1.1"
 xmlns="http://www.w3.org/2000/svg" xmlns:xlink="http://www.w3.org/1999/xlink">
<ellipse transform="translate(420.256313 241.349349) rotate(80.528793)" rx="41.813794" ry="23.092022" stroke="red" fill="none" stroke-width="1" />
<ellipse transform="translate(419.791348 241.285574) rotate(80.618083)" rx="24.779598" ry="13.731398" stroke="red" fill="none" stroke-width="1" />
<ellipse transform="translate(420.103787 241.264242) rotate(80.577124)" rx="36.235212" ry="19.902367" stroke="red" fill="none" stroke-width="1" />
<ellipse transform="translate(419.940956 241.319318) rotate(80.542119)" rx="30.211653" ry="16.686996" stroke="red" fill="none" stroke-width="1" />
<path d="M 415.537000,223.327769 A18.549423,10.056400 80.417838 1,1 422.926399,259.549393" fill="none" stroke ="red" stroke-width="1" />
<path d="M 329.147403,328.612562 A21.625631,21.625631 0.000000 0,1 335.275055,318.904072" fill="none" stroke ="red" stroke-width="1" />
<path d="M 417.324752,252.609133 A13.127896,7.323391 80.848945 0,1 419.591049,228.381635" fill="none" stroke ="red" stroke-width="1" />
<path d="M 423.140343,259.516934 A18.546098,10.051614 80.481708 0,1 415.695696,223.243652" fill="none" stroke ="red" stroke-width="1" />
<path d="M 421.617669,229.303970 A20.218635,20.218635 0.000000 0,1 425.372587,251.690449" fill="none" stroke ="red" stroke-width="1" />
<ellipse transform="translate(255.318360 196.005166) rotate(83.177041)" rx="15.587069" ry="6.826484" stroke="red" fill="none" stroke-width="1" />
<ellipse transform="translate(255.396289 196.004097) rotate(83.112552)" rx="25.331103" ry="11.046762" stroke="red" fill="none" stroke-width="1" />
<path d="M 425.688964,252.385430 A5.260304,5.260304 0.000000 0,1 417.692416,253.215878" fill="none" stroke ="red" stroke-width="1" />
<ellipse transform="translate(255.495325 196.056170) rotate(83.085843)" rx="35.275250" ry="15.539029" stroke="red" fill="none" stroke-width="1" />
<path d="M 249.848821,165.325417 A10.822395,10.822395 0.000000 0,1 260.757563,172.931001" fill="none" stroke ="red" stroke-width="1" />
<path d="M 259.341438,217.032679 A7.446103,7.446103 0.000000 0,1 251.534929,210.818229" fill="none" stroke ="red" stroke-width="1" />
<path d="M 266.463890,214.239857 A13.205743,13.205743 0.000000 0,1 259.848280,226.849861" fill="none" stroke ="red" stroke-width="1" />
<path d="M 513.887269,134.162666 A619.473632,619.473632 0.000000 0,1 419.949136,141.738412" fill="none" stroke ="red" stroke-width="1" />
<path d="M 250.422935,175.267315 A7.997184,7.997184 0.000000 0,1 259.877092,183.638852" fill="none" stroke ="red" stroke-width="1" />
<path d="M 260.299408,227.201773 A12.953472,12.953472 0.000000 0,1 249.638436,217.887828" fill="none" stroke ="red" stroke-width="1" />
<path d="M 251.703883,187.415418 A10.991718,4.551114 87.043320 0,1 258.898555,201.978710" fill="none" stroke ="red" stroke-width="1" />
<path d="M 244.000580,176.900658 A15.144869,15.144869 0.000000 0,1 249.397524,166.245595" fill="none" stroke ="red" stroke-width="1" />
<path d="M 254.449493,205.339138 A8.546030,2.523002 81.378482 0,1 252.127577,189.246501" fill="none" stroke ="red" stroke-width="1" />
<path d="M 487.506280,120.016112 A631.144643,631.144643 0.000000 0,1 480.180781,44.987491" fill="none" stroke ="red" stroke-width="1" />
<path d="M 434.030277,51.202842 A8.125737,8.125737 0.000000 0,1 446.278337,42.642051" fill="none" stroke ="red" stroke-width="1" />
<path d="M 481.000820,99.981968 A72.000603,72.000603 0.000000 0,1 481.641272,118.888673" fill="none" stroke ="red" stroke-width="1" />
<path d="M 469.748578,402.468425 A7.163665,7.163665 0.000000 0,1 461.828234,390.634346" fill="none" stroke ="red" stroke-width="1" />
<path d="M 464.520856,400.639745 A5.562407,5.562407 0.000000 0,1 464.101244,391.947166" fill="none" stroke ="red" stroke-width="1" />
<path d="M 497.445074,404.473138 A11.851080,6.181990 -57.122511 0,1 487.398973,402.021357" fill="none" stroke ="red" stroke-width="1" />
<path d="M 438.612431,39.476796 A12.922680,12.922680 0.000000 0,1 458.173695,41.030872" fill="none" stroke ="red" stroke-width="1" />
<path d="M 441.344508,35.554633 A22.413709,22.413709 0.000000 0,1 453.042271,32.204600" fill="none" stroke ="red" stroke-width="1" />
<path d="M 444.736615,120.124471 A48.330994,48.330994 0.000000 0,1 444.230991,107.875255" fill="none" stroke ="red" stroke-width="1" />
<path d="M 441.929274,134.532080 A143.557318,143.557318 0.000000 0,1 423.958874,136.520078" fill="none" stroke ="red" stroke-width="1" />
<path d="M 247.964231,272.254369 A466.430967,466.430967 0.000000 0,1 282.967068,273.586140" fill="none" stroke ="red" stroke-width="1" />
<path d="M 282.971940,279.698701 A308.129982,308.129982 0.000000 0,1 247.966232,278.864916" fill="none" stroke ="red" stroke-width="1" />
<path d="M 100.768854,108.927395 A178.213425,178.213425 0.000000 0,1 102.268961,71.995598" fill="none" stroke ="red" stroke-width="1" />
<path d="M 106.874869,130.107844 A74.881253,74.881253 0.000000 0,1 109.697976,150.989001" fill="none" stroke ="red" stroke-width="1" />
<line x1="331.434057" y1="373.574342" x2="329.811680" y2="328.488784"  fill="none" stroke ="blue" stroke-width="1" />
<line x1="336.481253" y1="319.039628" x2="638.591114" y2="306.737556"  fill="none" stroke ="blue" stroke-width="1" />
<line x1="525.490208" y1="308.354187" x2="508.196845" y2="287.910537"  fill="none" stroke ="blue" stroke-width="1" />
<line x1="503.662675" y1="280.076589" x2="508.034480" y2="271.260973"  fill="none" stroke ="blue" stroke-width="1" />
<line x1="419.805827" y1="140.465527" x2="403.997143" y2="0.218521"  fill="none" stroke ="blue" stroke-width="1" />
<line x1="509.103420" y1="287.984724" x2="507.938302" y2="284.359147"  fill="none" stroke ="blue" stroke-width="1" />
<line x1="508.664544" y1="284.566647" x2="503.840674" y2="280.788329"  fill="none" stroke ="blue" stroke-width="1" />
<line x1="520.306148" y1="269.422848" x2="576.756132" y2="281.280667"  fill="none" stroke ="blue" stroke-width="1" />
<line x1="576.158388" y1="282.273372" x2="621.203732" y2="302.170718"  fill="none" stroke ="blue" stroke-width="1" />
<line x1="189.199803" y1="393.370260" x2="329.374825" y2="373.611946"  fill="none" stroke ="blue" stroke-width="1" />
<line x1="496.590672" y1="133.939787" x2="484.619874" y2="0.310098"  fill="none" stroke ="blue" stroke-width="1" />
<line x1="427.305469" y1="39.592812" x2="425.891307" y2="21.391899"  fill="none" stroke ="blue" stroke-width="1" />
<line x1="430.759896" y1="59.375646" x2="436.809430" y2="120.666862"  fill="none" stroke ="blue" stroke-width="1" />
<line x1="334.873538" y1="478.521188" x2="331.324105" y2="373.573591"  fill="none" stroke ="blue" stroke-width="1" />
<line x1="474.939405" y1="6.059039" x2="480.215301" y2="23.280868"  fill="none" stroke ="blue" stroke-width="1" />
<line x1="480.061728" y1="23.546008" x2="482.264006" y2="44.524774"  fill="none" stroke ="blue" stroke-width="1" />
<line x1="471.845506" y1="2.247219" x2="475.494941" y2="7.235328"  fill="none" stroke ="blue" stroke-width="1" />
<line x1="425.044097" y1="18.963896" x2="432.854967" y2="9.802644"  fill="none" stroke ="blue" stroke-width="1" />
<line x1="465.552381" y1="105.298853" x2="444.374610" y2="104.375301"  fill="none" stroke ="blue" stroke-width="1" />
<line x1="447.520378" y1="102.760735" x2="443.070523" y2="95.773515"  fill="none" stroke ="blue" stroke-width="1" />
<line x1="444.743716" y1="98.644829" x2="443.494856" y2="83.500424"  fill="none" stroke ="blue" stroke-width="1" />
<line x1="476.658660" y1="94.658883" x2="465.651629" y2="105.650434"  fill="none" stroke ="blue" stroke-width="1" />
<line x1="476.871477" y1="84.489080" x2="477.341423" y2="100.475265"  fill="none" stroke ="blue" stroke-width="1" />
<line x1="477.064440" y1="71.519535" x2="477.737839" y2="86.534183"  fill="none" stroke ="blue" stroke-width="1" />
<line x1="456.737688" y1="299.375681" x2="441.671713" y2="149.382308"  fill="none" stroke ="blue" stroke-width="1" />
<line x1="446.375559" y1="149.699376" x2="460.350434" y2="298.607885"  fill="none" stroke ="blue" stroke-width="1" />
<line x1="0.001660" y1="432.043725" x2="189.129270" y2="393.672703"  fill="none" stroke ="blue" stroke-width="1" />
<line x1="439.551043" y1="13.752905" x2="451.469221" y2="11.347497"  fill="none" stroke ="blue" stroke-width="1" />
<line x1="449.531227" y1="12.223571" x2="461.586467" y2="4.979700"  fill="none" stroke ="blue" stroke-width="1" />
<line x1="459.896745" y1="4.935107" x2="461.463897" y2="0.487279"  fill="none" stroke ="blue" stroke-width="1" />
<line x1="598.238089" y1="478.542787" x2="594.135496" y2="357.546266"  fill="none" stroke ="blue" stroke-width="1" />
<line x1="435.866335" y1="52.794439" x2="443.220932" y2="46.189268"  fill="none" stroke ="blue" stroke-width="1" />
<line x1="442.642552" y1="47.871363" x2="447.794082" y2="45.159177"  fill="none" stroke ="blue" stroke-width="1" />
<line x1="442.712353" y1="24.635494" x2="452.584299" y2="25.759835"  fill="none" stroke ="blue" stroke-width="1" />
<line x1="336.478378" y1="323.961818" x2="518.505971" y2="316.648613"  fill="none" stroke ="blue" stroke-width="1" />
<line x1="501.243009" y1="348.435948" x2="502.284607" y2="360.518568"  fill="none" stroke ="blue" stroke-width="1" />
<line x1="349.594922" y1="350.531100" x2="353.993990" y2="478.551750"  fill="none" stroke ="blue" stroke-width="1" />
<line x1="418.452119" y1="0.241613" x2="423.116548" y2="53.533562"  fill="none" stroke ="blue" stroke-width="1" />
<line x1="422.815705" y1="54.339389" x2="429.894727" y2="112.329742"  fill="none" stroke ="blue" stroke-width="1" />
<line x1="357.738730" y1="478.561965" x2="352.776785" y2="337.525444"  fill="none" stroke ="blue" stroke-width="1" />
<line x1="506.540687" y1="350.779478" x2="635.537442" y2="346.677427"  fill="none" stroke ="blue" stroke-width="1" />
<line x1="505.940481" y1="359.486183" x2="505.626126" y2="349.464676"  fill="none" stroke ="blue" stroke-width="1" />
<line x1="398.484235" y1="353.006448" x2="499.540836" y2="349.778411"  fill="none" stroke ="blue" stroke-width="1" />
<line x1="431.484198" y1="318.086202" x2="360.511325" y2="320.796552"  fill="none" stroke ="blue" stroke-width="1" />
<line x1="377.082977" y1="362.439082" x2="381.553706" y2="478.613382"  fill="none" stroke ="blue" stroke-width="1" />
<line x1="636.039349" y1="348.505193" x2="636.614258" y2="399.498712"  fill="none" stroke ="blue" stroke-width="1" />
<line x1="497.153384" y1="401.454686" x2="496.389371" y2="390.438320"  fill="none" stroke ="blue" stroke-width="1" />
<line x1="433.854886" y1="122.473127" x2="433.096261" y2="112.454849"  fill="none" stroke ="blue" stroke-width="1" />
<line x1="437.421158" y1="130.789638" x2="458.494533" y2="128.450744"  fill="none" stroke ="blue" stroke-width="1" />
<line x1="638.575428" y1="326.629985" x2="397.523594" y2="335.166258"  fill="none" stroke ="blue" stroke-width="1" />
<line x1="396.666495" y1="335.493199" x2="396.800615" y2="358.498247"  fill="none" stroke ="blue" stroke-width="1" />
<line x1="433.605857" y1="30.919482" x2="437.722463" y2="17.487623"  fill="none" stroke ="blue" stroke-width="1" />
<line x1="440.582501" y1="119.601347" x2="436.690683" y2="84.368477"  fill="none" stroke ="blue" stroke-width="1" />
<line x1="437.329577" y1="83.504022" x2="436.764609" y2="59.564555"  fill="none" stroke ="blue" stroke-width="1" />
<line x1="505.783169" y1="-0.109987" x2="521.280592" y2="159.521301"  fill="none" stroke ="blue" stroke-width="1" />
<line x1="591.544731" y1="365.187009" x2="414.483608" y2="369.881798"  fill="none" stroke ="blue" stroke-width="1" />
<line x1="516.425740" y1="278.173706" x2="521.401355" y2="274.143600"  fill="none" stroke ="blue" stroke-width="1" />
<line x1="439.358453" y1="122.339794" x2="434.565694" y2="126.574354"  fill="none" stroke ="blue" stroke-width="1" />
<line x1="429.417918" y1="112.513642" x2="432.598286" y2="131.649862"  fill="none" stroke ="blue" stroke-width="1" />
<line x1="345.186067" y1="337.459295" x2="345.839934" y2="348.479831"  fill="none" stroke ="blue" stroke-width="1" />
<line x1="148.597633" y1="479.164667" x2="177.560275" y2="474.910342"  fill="none" stroke ="blue" stroke-width="1" />
<line x1="173.236739" y1="393.211039" x2="0.302228" y2="428.531683"  fill="none" stroke ="blue" stroke-width="1" />
<line x1="593.538254" y1="356.994534" x2="507.492243" y2="359.196959"  fill="none" stroke ="blue" stroke-width="1" />
<line x1="432.353015" y1="361.771670" x2="385.521638" y2="365.754434"  fill="none" stroke ="blue" stroke-width="1" />
<line x1="469.539149" y1="360.107735" x2="432.499597" y2="362.493747"  fill="none" stroke ="blue" stroke-width="1" />
<line x1="499.528372" y1="359.654315" x2="470.472189" y2="360.368481"  fill="none" stroke ="blue" stroke-width="1" />
<line x1="456.389455" y1="129.546891" x2="490.624816" y2="125.576154"  fill="none" stroke ="blue" stroke-width="1" />
<line x1="442.511872" y1="134.828870" x2="470.547536" y2="133.816771"  fill="none" stroke ="blue" stroke-width="1" />
<line x1="431.847671" y1="10.382446" x2="438.673149" y2="-0.041417"  fill="none" stroke ="blue" stroke-width="1" />
<line x1="434.812689" y1="16.442304" x2="438.950308" y2="13.645932"  fill="none" stroke ="blue" stroke-width="1" />
<line x1="135.846922" y1="0.225485" x2="154.606149" y2="160.604552"  fill="none" stroke ="blue" stroke-width="1" />
<line x1="433.246129" y1="131.761436" x2="422.178837" y2="135.565671"  fill="none" stroke ="blue" stroke-width="1" />
<line x1="396.521134" y1="360.354998" x2="377.483330" y2="360.825571"  fill="none" stroke ="blue" stroke-width="1" />
<line x1="447.089631" y1="77.062525" x2="442.674829" y2="71.112233"  fill="none" stroke ="blue" stroke-width="1" />
<line x1="455.498775" y1="317.401339" x2="432.489908" y2="317.686941"  fill="none" stroke ="blue" stroke-width="1" />
<line x1="462.498810" y1="119.500968" x2="454.910584" y2="110.166235"  fill="none" stroke ="blue" stroke-width="1" />
<line x1="505.534770" y1="405.816213" x2="498.451387" y2="405.456034"  fill="none" stroke ="blue" stroke-width="1" />
<line x1="464.518606" y1="37.433764" x2="453.542012" y2="34.350439"  fill="none" stroke ="blue" stroke-width="1" />
<line x1="475.696792" y1="31.964530" x2="464.574672" y2="36.676265"  fill="none" stroke ="blue" stroke-width="1" />
<line x1="430.021772" y1="152.171582" x2="431.480060" y2="146.695749"  fill="none" stroke ="blue" stroke-width="1" />
<line x1="430.518329" y1="154.486993" x2="428.569697" y2="151.740932"  fill="none" stroke ="blue" stroke-width="1" />
<line x1="439.607858" y1="153.149960" x2="429.750667" y2="152.362444"  fill="none" stroke ="blue" stroke-width="1" />
<line x1="591.531417" y1="376.951878" x2="381.499929" y2="381.496699"  fill="none" stroke ="blue" stroke-width="1" />
<line x1="173.749377" y1="467.888089" x2="105.787060" y2="480.097841"  fill="none" stroke ="blue" stroke-width="1" />
<line x1="358.534247" y1="325.965654" x2="344.536416" y2="326.995142"  fill="none" stroke ="blue" stroke-width="1" />
<line x1="177.238489" y1="463.545932" x2="179.884019" y2="478.608191"  fill="none" stroke ="blue" stroke-width="1" />
<line x1="462.492914" y1="421.645039" x2="481.504563" y2="421.762696"  fill="none" stroke ="blue" stroke-width="1" />
<line x1="490.500119" y1="421.521789" x2="508.499585" y2="421.423754"  fill="none" stroke ="blue" stroke-width="1" />
<line x1="509.492603" y1="425.104347" x2="461.493951" y2="425.358745"  fill="none" stroke ="blue" stroke-width="1" />
<line x1="470.632700" y1="133.815226" x2="490.630912" y2="131.797496"  fill="none" stroke ="blue" stroke-width="1" />
<line x1="418.486874" y1="375.990726" x2="573.487006" y2="371.995833"  fill="none" stroke ="blue" stroke-width="1" />
<line x1="461.235537" y1="68.983622" x2="464.814395" y2="60.220015"  fill="none" stroke ="blue" stroke-width="1" />
<line x1="457.466009" y1="71.452993" x2="461.042274" y2="68.866995"  fill="none" stroke ="blue" stroke-width="1" />
<line x1="147.641903" y1="149.574540" x2="91.433621" y2="156.997355"  fill="none" stroke ="blue" stroke-width="1" />
<line x1="445.920555" y1="-0.079019" x2="442.921290" y2="2.922449"  fill="none" stroke ="blue" stroke-width="1" />
<line x1="447.021655" y1="3.180405" x2="444.710001" y2="6.640307"  fill="none" stroke ="blue" stroke-width="1" />
<line x1="444.826142" y1="5.387288" x2="444.932193" y2="7.575967"  fill="none" stroke ="blue" stroke-width="1" />
<line x1="452.000498" y1="-0.088775" x2="448.106451" y2="3.214838"  fill="none" stroke ="blue" stroke-width="1" />
<line x1="345.436490" y1="330.545558" x2="358.445431" y2="329.679923"  fill="none" stroke ="blue" stroke-width="1" />
<line x1="428.890567" y1="46.035544" x2="435.801369" y2="36.967566"  fill="none" stroke ="blue" stroke-width="1" />
<line x1="555.528408" y1="335.327379" x2="490.536355" y2="337.558857"  fill="none" stroke ="blue" stroke-width="1" />
<line x1="152.497954" y1="161.486431" x2="125.508476" y2="165.556211"  fill="none" stroke ="blue" stroke-width="1" />
<line x1="475.500000" y1="316.500000" x2="458.500000" y2="316.500000"  fill="none" stroke ="blue" stroke-width="1" />
<line x1="90.587384" y1="478.964182" x2="175.587102" y2="462.962684"  fill="none" stroke ="blue" stroke-width="1" />
<line x1="446.788096" y1="121.662570" x2="445.021045" y2="124.794021"  fill="none" stroke ="blue" stroke-width="1" />
<line x1="464.262526" y1="125.470458" x2="461.962248" y2="120.166968"  fill="none" stroke ="blue" stroke-width="1" />
<line x1="461.631144" y1="32.941206" x2="472.830612" y2="29.612274"  fill="none" stroke ="blue" stroke-width="1" />
<line x1="477.213667" y1="44.513768" x2="476.637977" y2="32.541450"  fill="none" stroke ="blue" stroke-width="1" />
<line x1="492.494720" y1="340.326839" x2="555.497131" y2="338.405918"  fill="none" stroke ="blue" stroke-width="1" />
<line x1="572.458641" y1="313.573894" x2="587.473354" y2="312.903344"  fill="none" stroke ="blue" stroke-width="1" />
<line x1="185.108350" y1="478.602812" x2="181.102204" y2="463.341915"  fill="none" stroke ="blue" stroke-width="1" />
<line x1="181.301306" y1="462.540674" x2="179.845533" y2="455.429266"  fill="none" stroke ="blue" stroke-width="1" />
<line x1="451.848774" y1="62.704345" x2="455.944746" y2="69.647730"  fill="none" stroke ="blue" stroke-width="1" />
<line x1="462.485203" y1="59.761590" x2="452.460712" y2="59.194551"  fill="none" stroke ="blue" stroke-width="1" />
<line x1="131.274032" y1="98.546418" x2="141.139726" y2="146.574006"  fill="none" stroke ="blue" stroke-width="1" />
<line x1="125.398555" y1="81.523953" x2="129.464623" y2="98.744471"  fill="none" stroke ="blue" stroke-width="1" />
<line x1="514.456157" y1="158.224187" x2="451.460272" y2="159.437775"  fill="none" stroke ="blue" stroke-width="1" />
<line x1="446.500128" y1="417.812210" x2="525.500115" y2="417.779821"  fill="none" stroke ="blue" stroke-width="1" />
<line x1="136.828986" y1="51.577662" x2="130.911804" y2="0.452338"  fill="none" stroke ="blue" stroke-width="1" />
<line x1="94.594176" y1="471.064549" x2="80.648618" y2="473.390904"  fill="none" stroke ="blue" stroke-width="1" />
<line x1="127.587908" y1="463.994160" x2="95.362469" y2="469.726894"  fill="none" stroke ="blue" stroke-width="1" />
<line x1="173.295018" y1="455.375645" x2="128.331011" y2="463.573074"  fill="none" stroke ="blue" stroke-width="1" />
<line x1="82.838612" y1="163.452658" x2="75.592729" y2="111.626848"  fill="none" stroke ="blue" stroke-width="1" />
<line x1="71.020127" y1="76.431893" x2="61.067613" y2="0.425675"  fill="none" stroke ="blue" stroke-width="1" />
<line x1="625.499113" y1="469.566248" x2="601.490025" y2="469.244605"  fill="none" stroke ="blue" stroke-width="1" />
<line x1="448.601923" y1="98.662255" x2="458.208422" y2="92.627759"  fill="none" stroke ="blue" stroke-width="1" />
<line x1="458.451198" y1="92.480007" x2="461.337883" y2="85.433586"  fill="none" stroke ="blue" stroke-width="1" />
<line x1="506.485185" y1="345.061765" x2="638.503334" y2="340.598616"  fill="none" stroke ="blue" stroke-width="1" />
<line x1="425.492973" y1="345.101860" x2="432.508437" y2="344.978038"  fill="none" stroke ="blue" stroke-width="1" />
<line x1="576.506399" y1="373.151980" x2="591.504954" y2="373.004782"  fill="none" stroke ="blue" stroke-width="1" />
<line x1="149.653480" y1="158.546872" x2="149.208815" y2="150.516123"  fill="none" stroke ="blue" stroke-width="1" />
<line x1="600.503388" y1="450.817245" x2="624.500651" y2="450.560935"  fill="none" stroke ="blue" stroke-width="1" />
<line x1="621.499552" y1="455.524431" x2="600.488282" y2="455.139314"  fill="none" stroke ="blue" stroke-width="1" />
<line x1="624.503019" y1="426.853227" x2="599.496299" y2="427.066929"  fill="none" stroke ="blue" stroke-width="1" />
<line x1="624.501992" y1="440.996601" x2="600.498367" y2="441.092890"  fill="none" stroke ="blue" stroke-width="1" />
<line x1="117.247752" y1="48.556656" x2="124.212326" y2="79.564613"  fill="none" stroke ="blue" stroke-width="1" />
<line x1="121.214514" y1="37.410898" x2="118.015414" y2="47.660865"  fill="none" stroke ="blue" stroke-width="1" />
<line x1="135.470181" y1="52.503937" x2="142.061568" y2="102.425854"  fill="none" stroke ="blue" stroke-width="1" />
<line x1="126.134364" y1="43.517749" x2="127.444261" y2="70.502706"  fill="none" stroke ="blue" stroke-width="1" />
<line x1="133.575057" y1="128.494603" x2="135.016173" y2="148.534793"  fill="none" stroke ="blue" stroke-width="1" />
<line x1="630.491486" y1="343.246454" x2="528.505744" y2="346.671066"  fill="none" stroke ="blue" stroke-width="1" />
<line x1="461.578918" y1="40.802426" x2="471.918637" y2="38.104283"  fill="none" stroke ="blue" stroke-width="1" />
<line x1="600.503525" y1="436.797565" x2="624.500157" y2="436.513278"  fill="none" stroke ="blue" stroke-width="1" />
<line x1="98.424417" y1="111.538673" x2="105.553836" y2="125.472454"  fill="none" stroke ="blue" stroke-width="1" />
<line x1="510.500000" y1="414.500000" x2="487.500000" y2="414.500000"  fill="none" stroke ="blue" stroke-width="1" />
<line x1="477.138614" y1="100.512310" x2="477.651294" y2="115.562974"  fill="none" stroke ="blue" stroke-width="1" />
<line x1="146.582596" y1="124.490728" x2="144.007856" y2="101.555248"  fill="none" stroke ="blue" stroke-width="1" />
<line x1="288.389237" y1="261.497253" x2="288.116574" y2="272.490490"  fill="none" stroke ="blue" stroke-width="1" />
<line x1="471.500000" y1="412.500000" x2="520.500000" y2="412.500000"  fill="none" stroke ="blue" stroke-width="1" />
<line x1="135.981953" y1="97.504062" x2="135.887797" y2="85.496959"  fill="none" stroke ="blue" stroke-width="1" />
<line x1="527.500000" y1="419.500000" x2="512.500000" y2="419.500000"  fill="none" stroke ="blue" stroke-width="1" />
<line x1="284.486960" y1="227.499783" x2="284.237061" y2="242.495618"  fill="none" stroke ="blue" stroke-width="1" />
<line x1="94.936081" y1="14.440376" x2="97.675483" y2="34.476007"  fill="none" stroke ="blue" stroke-width="1" />
<line x1="73.114612" y1="91.523824" x2="72.491171" y2="81.438728"  fill="none" stroke ="blue" stroke-width="1" />
<line x1="75.583532" y1="109.488382" x2="73.206997" y2="92.401666"  fill="none" stroke ="blue" stroke-width="1" />
<line x1="601.495290" y1="464.912306" x2="620.504233" y2="465.129478"  fill="none" stroke ="blue" stroke-width="1" />
<line x1="442.497738" y1="413.293719" x2="456.507020" y2="413.140066"  fill="none" stroke ="blue" stroke-width="1" />
<line x1="123.754355" y1="61.473534" x2="122.188903" y2="46.428320"  fill="none" stroke ="blue" stroke-width="1" />
<line x1="131.853954" y1="73.570706" x2="130.856942" y2="64.460935"  fill="none" stroke ="blue" stroke-width="1" />
<line x1="135.706768" y1="82.404298" x2="131.951532" y2="74.291008"  fill="none" stroke ="blue" stroke-width="1" />
<line x1="513.706633" y1="272.188407" x2="520.954140" y2="270.012984"  fill="none" stroke ="blue" stroke-width="1" />
<line x1="508.896882" y1="270.278071" x2="513.957057" y2="274.200441"  fill="none" stroke ="blue" stroke-width="1" />
</svg>
