<?xml version="1.0" standalone="no"?>
<!DOCTYPE svg PUBLIC "-//W3C//DTD SVG 1.1//EN"
 "http://www.w3.org/Graphics/SVG/1.1/DTD/svg11.dtd">
<svg width="1024px" height="768px" version="1.1"
 xmlns="http://www.w3.org/2000/svg" xmlns:xlink="http://www.w3.org/1999/xlink">
<ellipse transform="translate(650.456988 580.438852) rotate(-31.595163)" rx="25.484024" ry="23.361581" stroke="red" fill="none" stroke-width="1" />
<ellipse transform="translate(721.348371 577.480394) rotate(-44.310968)" rx="25.080403" ry="22.339594" stroke="red" fill="none" stroke-width="1" />
<ellipse transform="translate(793.303545 504.046528) rotate(-64.034970)" rx="25.058870" ry="21.921618" stroke="red" fill="none" stroke-width="1" />
<ellipse transform="translate(788.537268 573.282841) rotate(-51.833178)" rx="24.572568" ry="20.892489" stroke="red" fill="none" stroke-width="1" />
<ellipse transform="translate(725.188924 506.918868) rotate(-55.604576)" rx="25.575361" ry="23.490443" stroke="red" fill="none" stroke-width="1" />
<ellipse transform="translate(796.186981 432.052442) rotate(-76.779522)" rx="25.311126" ry="22.544984" stroke="red" fill="none" stroke-width="1" />
<ellipse transform="translate(797.429113 358.556408) rotate(-89.703756)" rx="25.383725" ry="22.811074" stroke="red" fill="none" stroke-width="1" />
<ellipse transform="translate(576.929432 582.210873) rotate(-15.588996)" rx="25.749924" ry="24.122894" stroke="red" fill="none" stroke-width="1" />
<ellipse transform="translate(354.880607 578.822005) rotate(37.461211)" rx="25.323026" ry="23.093874" stroke="red" fill="none" stroke-width="1" />
<ellipse transform="translate(427.650805 581.368078) rotate(23.420202)" rx="25.669024" ry="23.973450" stroke="red" fill="none" stroke-width="1" />
<ellipse transform="translate(727.558054 433.387043) rotate(-73.449548)" rx="25.939236" ry="24.301840" stroke="red" fill="none" stroke-width="1" />
<ellipse transform="translate(502.195737 582.557444) rotate(3.231424)" rx="25.834230" ry="24.276598" stroke="red" fill="none" stroke-width="1" />
<ellipse transform="translate(796.741059 285.169783) rotate(74.980183)" rx="25.348743" ry="22.638121" stroke="red" fill="none" stroke-width="1" />
<ellipse transform="translate(653.081804 508.968002) rotate(-44.360722)" rx="26.032957" ry="24.737761" stroke="red" fill="none" stroke-width="1" />
<ellipse transform="translate(728.477430 358.310048) rotate(87.358452)" rx="26.076358" ry="24.456445" stroke="red" fill="none" stroke-width="1" />
<ellipse transform="translate(285.154033 575.039406) rotate(47.757516)" rx="24.895450" ry="21.934149" stroke="red" fill="none" stroke-width="1" />
<ellipse transform="translate(578.246635 510.077390) rotate(-22.199666)" rx="26.263121" ry="25.425852" stroke="red" fill="none" stroke-width="1" />
<ellipse transform="translate(654.704598 434.332574) rotate(-65.987925)" rx="26.356398" ry="25.556827" stroke="red" fill="none" stroke-width="1" />
<ellipse transform="translate(727.937285 283.285861) rotate(69.498793)" rx="25.891439" ry="24.205016" stroke="red" fill="none" stroke-width="1" />
<ellipse transform="translate(219.380445 570.250081) rotate(54.869100)" rx="24.334563" ry="20.526532" stroke="red" fill="none" stroke-width="1" />
<ellipse transform="translate(725.897774 209.690393) rotate(54.827584)" rx="25.659483" ry="23.466526" stroke="red" fill="none" stroke-width="1" />
<ellipse transform="translate(794.113430 213.081998) rotate(62.504802)" rx="25.066899" ry="21.961734" stroke="red" fill="none" stroke-width="1" />
<ellipse transform="translate(281.365568 505.015320) rotate(59.634648)" rx="25.431019" ry="23.013961" stroke="red" fill="none" stroke-width="1" />
<ellipse transform="translate(579.071939 434.825433) rotate(-49.250953)" rx="26.601157" ry="26.304033" stroke="red" fill="none" stroke-width="1" />
<ellipse transform="translate(426.235121 509.433262) rotate(34.094529)" rx="26.198212" ry="25.220252" stroke="red" fill="none" stroke-width="1" />
<ellipse transform="translate(722.496698 138.890805) rotate(44.232660)" rx="25.187402" ry="22.327638" stroke="red" fill="none" stroke-width="1" />
<ellipse transform="translate(502.151063 510.222490) rotate(7.448954)" rx="26.339228" ry="25.656504" stroke="red" fill="none" stroke-width="1" />
<ellipse transform="translate(789.824959 143.706727) rotate(51.564804)" rx="24.636167" ry="20.958960" stroke="red" fill="none" stroke-width="1" />
<ellipse transform="translate(655.433864 358.074316) rotate(84.951226)" rx="26.513040" ry="25.735077" stroke="red" fill="none" stroke-width="1" />
<ellipse transform="translate(211.857464 430.448216) rotate(77.458608)" rx="25.030978" ry="22.118119" stroke="red" fill="none" stroke-width="1" />
<ellipse transform="translate(214.784142 501.651348) rotate(64.793651)" rx="24.787054" ry="21.429092" stroke="red" fill="none" stroke-width="1" />
<ellipse transform="translate(279.022177 432.139782) rotate(75.102010)" rx="25.742443" ry="23.715581" stroke="red" fill="none" stroke-width="1" />
<ellipse transform="translate(149.781937 428.507632) rotate(80.161243)" rx="24.347277" ry="20.191149" stroke="red" fill="none" stroke-width="1" />
<ellipse transform="translate(352.228192 507.602025) rotate(50.384123)" rx="25.932633" ry="24.347036" stroke="red" fill="none" stroke-width="1" />
<ellipse transform="translate(651.406648 135.310130) rotate(31.594071)" rx="25.590562" ry="23.395119" stroke="red" fill="none" stroke-width="1" />
<ellipse cx="502.120296" cy="434.884673" rx="26.630717" ry="26.630717" stroke="red" stroke-width="1" fill="none" /> 
<ellipse transform="translate(577.587500 133.290279) rotate(16.061884)" rx="25.878701" ry="24.002066" stroke="red" fill="none" stroke-width="1" />
<ellipse transform="translate(350.518102 433.454173) rotate(70.020294)" rx="26.209037" ry="25.104582" stroke="red" fill="none" stroke-width="1" />
<ellipse transform="translate(153.095612 497.768004) rotate(68.872817)" rx="24.067343" ry="19.785973" stroke="red" fill="none" stroke-width="1" />
<ellipse transform="translate(158.360331 564.565910) rotate(60.805240)" rx="23.672446" ry="18.918317" stroke="red" fill="none" stroke-width="1" />
<ellipse transform="translate(655.129991 281.824344) rotate(61.467588)" rx="26.409863" ry="25.486414" stroke="red" fill="none" stroke-width="1" />
<ellipse transform="translate(278.808734 283.398676) rotate(-74.890393)" rx="25.740576" ry="23.792846" stroke="red" fill="none" stroke-width="1" />
<ellipse transform="translate(210.718617 357.932790) rotate(-89.504544)" rx="25.161229" ry="22.315402" stroke="red" fill="none" stroke-width="1" />
<ellipse cx="425.311366" cy="434.411225" rx="26.331069" ry="26.331069" stroke="red" stroke-width="1" fill="none" /> 
<ellipse transform="translate(653.745822 207.017718) rotate(43.063138)" rx="26.097612" ry="24.658117" stroke="red" fill="none" stroke-width="1" />
<ellipse transform="translate(278.142669 357.775888) rotate(-88.613084)" rx="25.834402" ry="24.007075" stroke="red" fill="none" stroke-width="1" />
<ellipse transform="translate(579.530448 357.916699) rotate(77.237582)" rx="26.795246" ry="26.574024" stroke="red" fill="none" stroke-width="1" />
<ellipse transform="translate(152.449339 218.106435) rotate(-69.175783)" rx="24.112646" ry="19.722351" stroke="red" fill="none" stroke-width="1" />
<ellipse transform="translate(427.700576 133.831518) rotate(-20.641558)" rx="25.717675" ry="23.905766" stroke="red" fill="none" stroke-width="1" />
<ellipse transform="translate(280.955460 210.391320) rotate(-58.616265)" rx="25.405359" ry="23.121283" stroke="red" fill="none" stroke-width="1" />
<ellipse transform="translate(578.757089 205.544127) rotate(23.730003)" rx="26.399988" ry="25.402659" stroke="red" fill="none" stroke-width="1" />
<ellipse transform="translate(148.493843 358.037491) rotate(-89.153868)" rx="24.414374" ry="20.409208" stroke="red" fill="none" stroke-width="1" />
<ellipse transform="translate(502.183976 357.807107) rotate(43.819772)" rx="26.858349" ry="26.807714" stroke="red" fill="none" stroke-width="1" />
<ellipse transform="translate(349.921000 357.785482) rotate(-86.868870)" rx="26.356422" ry="25.347843" stroke="red" fill="none" stroke-width="1" />
<ellipse transform="translate(502.532944 132.719318) rotate(-2.063514)" rx="25.911113" ry="24.234071" stroke="red" fill="none" stroke-width="1" />
<ellipse transform="translate(352.019806 207.629896) rotate(-48.804156)" rx="25.884546" ry="24.405946" stroke="red" fill="none" stroke-width="1" />
<ellipse transform="translate(211.526519 285.219145) rotate(-77.241539)" rx="25.065095" ry="22.101051" stroke="red" fill="none" stroke-width="1" />
<ellipse transform="translate(350.407245 281.903078) rotate(-68.177283)" rx="26.263559" ry="25.144979" stroke="red" fill="none" stroke-width="1" />
<ellipse transform="translate(149.445526 287.515892) rotate(-79.527936)" rx="24.350397" ry="20.207641" stroke="red" fill="none" stroke-width="1" />
<ellipse transform="translate(284.641700 140.210082) rotate(-46.126716)" rx="24.955903" ry="22.004320" stroke="red" fill="none" stroke-width="1" />
<ellipse transform="translate(425.069329 357.726622) rotate(89.759900)" rx="26.750845" ry="26.338383" stroke="red" fill="none" stroke-width="1" />
<ellipse transform="translate(354.688586 136.328072) rotate(-36.256699)" rx="25.366602" ry="23.163961" stroke="red" fill="none" stroke-width="1" />
<ellipse transform="translate(214.243712 213.959018) rotate(-64.765441)" rx="24.746480" ry="21.489801" stroke="red" fill="none" stroke-width="1" />
<ellipse transform="translate(579.364928 280.913441) rotate(40.448139)" rx="26.710667" ry="26.369292" stroke="red" fill="none" stroke-width="1" />
<ellipse transform="translate(502.293122 280.636153) rotate(10.937286)" rx="26.764209" ry="26.557491" stroke="red" fill="none" stroke-width="1" />
<ellipse transform="translate(218.662434 145.252626) rotate(-53.729945)" rx="24.348883" ry="20.500767" stroke="red" fill="none" stroke-width="1" />
<ellipse transform="translate(425.341634 280.981582) rotate(-63.842556)" rx="26.584142" ry="26.123586" stroke="red" fill="none" stroke-width="1" />
<ellipse transform="translate(426.253201 205.791596) rotate(-30.029795)" rx="26.206804" ry="25.232570" stroke="red" fill="none" stroke-width="1" />
<ellipse transform="translate(502.405242 205.083989) rotate(-1.711573)" rx="26.464224" ry="25.629050" stroke="red" fill="none" stroke-width="1" />
<ellipse transform="translate(157.486037 151.138977) rotate(-59.777672)" rx="23.691011" ry="18.974426" stroke="red" fill="none" stroke-width="1" />
<line x1="562.495061" y1="689.384215" x2="682.490005" y2="684.265677"  fill="none" stroke ="blue" stroke-width="1" />
<line x1="681.744270" y1="684.100504" x2="803.515247" y2="672.662322"  fill="none" stroke ="blue" stroke-width="1" />
<line x1="802.725419" y1="672.119993" x2="896.441502" y2="659.079597"  fill="none" stroke ="blue" stroke-width="1" />
<line x1="428.482767" y1="688.465576" x2="561.498844" y2="689.631811"  fill="none" stroke ="blue" stroke-width="1" />
<line x1="257.389830" y1="676.026367" x2="427.514032" y2="688.305588"  fill="none" stroke ="blue" stroke-width="1" />
<line x1="151.611831" y1="662.595405" x2="257.233840" y2="675.652958"  fill="none" stroke ="blue" stroke-width="1" />
<line x1="70.520418" y1="648.380197" x2="151.552773" y2="662.190347"  fill="none" stroke ="blue" stroke-width="1" />
<line x1="921.095308" y1="345.516571" x2="915.851194" y2="217.444673"  fill="none" stroke ="blue" stroke-width="1" />
<line x1="915.589652" y1="216.583514" x2="906.690138" y2="119.574296"  fill="none" stroke ="blue" stroke-width="1" />
<line x1="906.192330" y1="120.258550" x2="897.403366" y2="58.656460"  fill="none" stroke ="blue" stroke-width="1" />
<line x1="918.724299" y1="445.525967" x2="920.824918" y2="346.485682"  fill="none" stroke ="blue" stroke-width="1" />
<line x1="911.545715" y1="548.570557" x2="918.437515" y2="446.428311"  fill="none" stroke ="blue" stroke-width="1" />
<line x1="670.521648" y1="688.118533" x2="534.478298" y2="692.879925"  fill="none" stroke ="blue" stroke-width="1" />
<line x1="533.510936" y1="692.556475" x2="435.489333" y2="691.420356"  fill="none" stroke ="blue" stroke-width="1" />
<line x1="434.524422" y1="691.071561" x2="358.486482" y2="686.737148"  fill="none" stroke ="blue" stroke-width="1" />
<line x1="768.524801" y1="678.776225" x2="671.498887" y2="687.487607"  fill="none" stroke ="blue" stroke-width="1" />
<line x1="523.520202" y1="28.259794" x2="413.465064" y2="31.186079"  fill="none" stroke ="blue" stroke-width="1" />
<line x1="412.526463" y1="30.877531" x2="273.369043" y2="40.631718"  fill="none" stroke ="blue" stroke-width="1" />
<line x1="273.623895" y1="40.382718" x2="120.276281" y2="61.906069"  fill="none" stroke ="blue" stroke-width="1" />
<line x1="119.608998" y1="63.094358" x2="67.526712" y2="72.645658"  fill="none" stroke ="blue" stroke-width="1" />
<line x1="656.539910" y1="32.053723" x2="524.474906" y2="28.409382"  fill="none" stroke ="blue" stroke-width="1" />
<line x1="751.596013" y1="39.161195" x2="657.434854" y2="32.408393"  fill="none" stroke ="blue" stroke-width="1" />
<line x1="895.731837" y1="57.726734" x2="752.435648" y2="38.992216"  fill="none" stroke ="blue" stroke-width="1" />
<line x1="908.464249" y1="570.611632" x2="911.017210" y2="548.559878"  fill="none" stroke ="blue" stroke-width="1" />
<line x1="896.594614" y1="658.370451" x2="909.034225" y2="571.433353"  fill="none" stroke ="blue" stroke-width="1" />
<line x1="45.873322" y1="265.483227" x2="43.678085" y2="347.504766"  fill="none" stroke ="blue" stroke-width="1" />
<line x1="43.862659" y1="348.492696" x2="45.655678" y2="437.517005"  fill="none" stroke ="blue" stroke-width="1" />
<line x1="45.456225" y1="438.503622" x2="55.145020" y2="555.612102"  fill="none" stroke ="blue" stroke-width="1" />
<line x1="55.576583" y1="556.488873" x2="68.793962" y2="647.457288"  fill="none" stroke ="blue" stroke-width="1" />
<line x1="54.735295" y1="153.437942" x2="45.720902" y2="264.517927"  fill="none" stroke ="blue" stroke-width="1" />
<line x1="66.178792" y1="74.454542" x2="55.121129" y2="152.587904"  fill="none" stroke ="blue" stroke-width="1" />
<line x1="1022.637845" y1="604.522385" x2="1018.104924" y2="632.435843"  fill="none" stroke ="blue" stroke-width="1" />
</svg>
