<?xml version="1.0" standalone="no"?>
<!DOCTYPE svg PUBLIC "-//W3C//DTD SVG 1.1//EN"
 "http://www.w3.org/Graphics/SVG/1.1/DTD/svg11.dtd">
<svg width="1024px" height="768px" version="1.1"
 xmlns="http://www.w3.org/2000/svg" xmlns:xlink="http://www.w3.org/1999/xlink">
<ellipse transform="translate(829.363054 461.805647) rotate(-75.745214)" rx="17.116733" ry="12.895765" stroke="red" fill="none" stroke-width="1" />
<ellipse transform="translate(747.009474 469.485098) rotate(-72.022482)" rx="18.114462" ry="14.946382" stroke="red" fill="none" stroke-width="1" />
<ellipse transform="translate(789.748997 465.686433) rotate(-73.775418)" rx="17.607665" ry="13.896457" stroke="red" fill="none" stroke-width="1" />
<ellipse transform="translate(701.280871 473.314161) rotate(-70.540746)" rx="18.624436" ry="15.998753" stroke="red" fill="none" stroke-width="1" />
<ellipse transform="translate(791.398064 415.356012) rotate(-81.417447)" rx="17.827829" ry="14.160344" stroke="red" fill="none" stroke-width="1" />
<ellipse transform="translate(600.934895 480.557705) rotate(-62.939553)" rx="19.462604" ry="18.087698" stroke="red" fill="none" stroke-width="1" />
<ellipse transform="translate(652.530853 477.026830) rotate(-68.587972)" rx="19.041769" ry="16.977418" stroke="red" fill="none" stroke-width="1" />
<ellipse transform="translate(789.870847 465.785212) rotate(-74.783692)" rx="8.025435" ry="6.264495" stroke="red" fill="none" stroke-width="1" />
<ellipse transform="translate(831.173258 413.015586) rotate(-82.076823)" rx="17.214999" ry="13.094175" stroke="red" fill="none" stroke-width="1" />
<ellipse transform="translate(701.373264 473.422726) rotate(-71.239199)" rx="8.402654" ry="7.263849" stroke="red" fill="none" stroke-width="1" />
<ellipse transform="translate(791.562808 415.473028) rotate(-80.558592)" rx="8.092833" ry="6.424662" stroke="red" fill="none" stroke-width="1" />
<ellipse transform="translate(702.683228 366.298451) rotate(-89.656993)" rx="18.941605" ry="16.488931" stroke="red" fill="none" stroke-width="1" />
<ellipse transform="translate(792.011103 364.359853) rotate(-87.805587)" rx="17.822532" ry="14.313873" stroke="red" fill="none" stroke-width="1" />
<ellipse transform="translate(601.111878 480.590819) rotate(-64.934188)" rx="8.775068" ry="8.138782" stroke="red" fill="none" stroke-width="1" />
<ellipse transform="translate(831.870177 363.513119) rotate(-87.611862)" rx="17.320809" ry="13.235506" stroke="red" fill="none" stroke-width="1" />
<ellipse transform="translate(702.424081 420.187865) rotate(-78.639481)" rx="18.818953" ry="16.344088" stroke="red" fill="none" stroke-width="1" />
<ellipse transform="translate(791.665656 313.111431) rotate(86.129426)" rx="17.828555" ry="14.288390" stroke="red" fill="none" stroke-width="1" />
<ellipse transform="translate(748.466563 417.786895) rotate(-79.971334)" rx="18.293507" ry="15.240731" stroke="red" fill="none" stroke-width="1" />
<ellipse transform="translate(747.130282 469.577637) rotate(-72.187048)" rx="8.266790" ry="6.753603" stroke="red" fill="none" stroke-width="1" />
<ellipse transform="translate(652.643867 477.102081) rotate(-68.145553)" rx="8.627872" ry="7.638750" stroke="red" fill="none" stroke-width="1" />
<ellipse transform="translate(546.819645 483.749267) rotate(-55.498162)" rx="19.854544" ry="18.822205" stroke="red" fill="none" stroke-width="1" />
<ellipse transform="translate(748.848433 365.204644) rotate(-88.231905)" rx="18.425529" ry="15.403015" stroke="red" fill="none" stroke-width="1" />
<ellipse transform="translate(829.503213 461.870216) rotate(-76.311136)" rx="7.849134" ry="5.777243" stroke="red" fill="none" stroke-width="1" />
<ellipse transform="translate(374.519574 491.157581) rotate(20.114258)" rx="20.369177" ry="20.096024" stroke="red" fill="none" stroke-width="1" />
<path d="M 746.365187,425.896229 A8.331349,7.064788 -79.183510 1,1 753.521783,411.484734" fill="none" stroke ="red" stroke-width="1" />
<ellipse transform="translate(831.569517 313.826607) rotate(86.103597)" rx="17.291174" ry="13.257847" stroke="red" fill="none" stroke-width="1" />
<ellipse transform="translate(490.685575 486.635663) rotate(-46.788370)" rx="20.125457" ry="19.481300" stroke="red" fill="none" stroke-width="1" />
<ellipse transform="translate(792.213089 364.349592) rotate(-88.935620)" rx="8.073738" ry="6.484073" stroke="red" fill="none" stroke-width="1" />
<ellipse transform="translate(653.412931 367.245474) rotate(-87.758914)" rx="19.409228" ry="17.574714" stroke="red" fill="none" stroke-width="1" />
<path d="M 753.879140,411.901299 A8.332908,6.620399 -80.515229 0,1 747.988347,426.150189" fill="none" stroke ="red" stroke-width="1" />
<ellipse transform="translate(748.991287 365.232601) rotate(-88.492136)" rx="8.271444" ry="6.968318" stroke="red" fill="none" stroke-width="1" />
<ellipse transform="translate(702.836459 366.182809) rotate(89.891629)" rx="8.488015" ry="7.451583" stroke="red" fill="none" stroke-width="1" />
<ellipse transform="translate(546.993284 483.842769) rotate(-60.041158)" rx="8.945757" ry="8.399714" stroke="red" fill="none" stroke-width="1" />
<ellipse transform="translate(791.756773 313.094076) rotate(86.311272)" rx="8.064831" ry="6.477525" stroke="red" fill="none" stroke-width="1" />
<ellipse transform="translate(830.376162 264.392982) rotate(80.573974)" rx="17.242122" ry="13.109864" stroke="red" fill="none" stroke-width="1" />
<ellipse transform="translate(653.310282 422.576552) rotate(-76.259279)" rx="19.305277" ry="17.391592" stroke="red" fill="none" stroke-width="1" />
<ellipse transform="translate(433.022329 489.183292) rotate(-27.930692)" rx="20.313784" ry="19.929587" stroke="red" fill="none" stroke-width="1" />
<ellipse transform="translate(748.616946 312.452369) rotate(85.165866)" rx="18.414240" ry="15.401124" stroke="red" fill="none" stroke-width="1" />
<ellipse transform="translate(546.592117 427.048828) rotate(-69.821343)" rx="20.102019" ry="19.263900" stroke="red" fill="none" stroke-width="1" />
<ellipse transform="translate(601.180482 424.881866) rotate(-71.980170)" rx="19.715600" ry="18.448137" stroke="red" fill="none" stroke-width="1" />
<ellipse transform="translate(702.574117 420.266584) rotate(-77.216310)" rx="8.549989" ry="7.364178" stroke="red" fill="none" stroke-width="1" />
<ellipse transform="translate(832.010305 363.522032) rotate(-87.433261)" rx="7.848236" ry="5.964117" stroke="red" fill="none" stroke-width="1" />
<ellipse transform="translate(490.829455 486.756063) rotate(-51.038312)" rx="9.042366" ry="8.714478" stroke="red" fill="none" stroke-width="1" />
<ellipse cx="374.573891" cy="491.255244" rx="9.158525" ry="9.158525" stroke="red" stroke-width="1" fill="none" /> 
<ellipse transform="translate(788.447151 211.889731) rotate(73.313161)" rx="17.560097" ry="13.976750" stroke="red" fill="none" stroke-width="1" />
<ellipse transform="translate(653.644075 367.204150) rotate(-88.571566)" rx="8.657764" ry="7.890002" stroke="red" fill="none" stroke-width="1" />
<ellipse transform="translate(831.643179 313.857239) rotate(86.610057)" rx="7.816035" ry="5.988744" stroke="red" fill="none" stroke-width="1" />
<ellipse transform="translate(653.456960 422.651756) rotate(-75.171655)" rx="8.726379" ry="7.766388" stroke="red" fill="none" stroke-width="1" />
<ellipse transform="translate(702.321997 311.956468) rotate(85.249125)" rx="18.904048" ry="16.515902" stroke="red" fill="none" stroke-width="1" />
<ellipse cx="372.687455" cy="432.498394" rx="9.289340" ry="9.289340" stroke="red" stroke-width="1" fill="none" /> 
<ellipse cx="433.154783" cy="489.272833" rx="9.056030" ry="9.056030" stroke="red" stroke-width="1" fill="none" /> 
<ellipse transform="translate(601.076346 368.235209) rotate(-84.750287)" rx="19.853818" ry="18.621953" stroke="red" fill="none" stroke-width="1" />
<ellipse transform="translate(828.206365 215.598883) rotate(74.250343)" rx="17.121828" ry="12.903384" stroke="red" fill="none" stroke-width="1" />
<ellipse transform="translate(747.562815 259.981664) rotate(78.438748)" rx="18.306658" ry="15.273941" stroke="red" fill="none" stroke-width="1" />
<ellipse transform="translate(790.516909 262.121094) rotate(78.744225)" rx="17.751249" ry="14.164857" stroke="red" fill="none" stroke-width="1" />
<ellipse cx="431.786768" cy="430.944317" rx="9.211278" ry="9.211278" stroke="red" stroke-width="1" fill="none" /> 
<ellipse transform="translate(489.874361 429.005525) rotate(-68.310612)" rx="20.406846" ry="19.922913" stroke="red" fill="none" stroke-width="1" />
<ellipse transform="translate(790.745984 262.131909) rotate(79.230562)" rx="8.017594" ry="6.414954" stroke="red" fill="none" stroke-width="1" />
<ellipse transform="translate(748.820979 312.460080) rotate(85.621119)" rx="8.285515" ry="6.961235" stroke="red" fill="none" stroke-width="1" />
<ellipse transform="translate(431.675762 430.859115) rotate(-70.946168)" rx="20.579105" ry="20.347969" stroke="red" fill="none" stroke-width="1" />
<ellipse transform="translate(372.621530 432.392493) rotate(73.584330)" rx="20.717966" ry="20.509851" stroke="red" fill="none" stroke-width="1" />
<ellipse transform="translate(745.634655 208.293321) rotate(71.463179)" rx="18.124445" ry="15.031270" stroke="red" fill="none" stroke-width="1" />
<ellipse transform="translate(653.041080 311.555479) rotate(84.768032)" rx="19.348481" ry="17.576572" stroke="red" fill="none" stroke-width="1" />
<ellipse transform="translate(546.777702 427.120889) rotate(-70.642046)" rx="9.042791" ry="8.586400" stroke="red" fill="none" stroke-width="1" />
<ellipse transform="translate(489.255610 370.412821) rotate(-84.166321)" rx="20.576470" ry="20.087459" stroke="red" fill="none" stroke-width="1" />
<ellipse transform="translate(490.034085 429.098298) rotate(-72.381037)" rx="9.173594" ry="8.901658" stroke="red" fill="none" stroke-width="1" />
<ellipse transform="translate(601.376047 424.962955) rotate(-72.599129)" rx="8.900742" ry="8.202321" stroke="red" fill="none" stroke-width="1" />
<ellipse transform="translate(785.526829 162.740848) rotate(66.638557)" rx="17.411202" ry="13.595137" stroke="red" fill="none" stroke-width="1" />
<ellipse transform="translate(701.359527 258.000084) rotate(76.371506)" rx="18.760258" ry="16.351144" stroke="red" fill="none" stroke-width="1" />
<ellipse transform="translate(601.306247 368.174485) rotate(-84.214355)" rx="8.873764" ry="8.279237" stroke="red" fill="none" stroke-width="1" />
<ellipse transform="translate(600.914245 311.242085) rotate(84.138884)" rx="8.829317" ry="8.360128" stroke="red" fill="none" stroke-width="1" />
<ellipse transform="translate(546.255498 369.325864) rotate(-84.533206)" rx="20.269007" ry="19.453898" stroke="red" fill="none" stroke-width="1" />
<ellipse cx="546.456883" cy="369.256159" rx="8.866547" ry="8.866547" stroke="red" stroke-width="1" fill="none" /> 
<ellipse transform="translate(699.692473 204.912893) rotate(68.285112)" rx="18.602749" ry="16.040855" stroke="red" fill="none" stroke-width="1" />
<ellipse transform="translate(742.948048 157.898940) rotate(63.823056)" rx="17.888855" ry="14.546244" stroke="red" fill="none" stroke-width="1" />
<ellipse transform="translate(430.729573 371.470704) rotate(-80.226726)" rx="20.822500" ry="20.523907" stroke="red" fill="none" stroke-width="1" />
<ellipse cx="371.336975" cy="372.576869" rx="20.838807" ry="20.838807" stroke="red" stroke-width="1" fill="none" /> 
<ellipse transform="translate(652.170459 256.253358) rotate(73.282807)" rx="19.300373" ry="17.434140" stroke="red" fill="none" stroke-width="1" />
<ellipse transform="translate(702.417211 311.938394) rotate(86.793506)" rx="8.498068" ry="7.441250" stroke="red" fill="none" stroke-width="1" />
<ellipse transform="translate(697.309551 153.249369) rotate(59.745151)" rx="18.343289" ry="15.454982" stroke="red" fill="none" stroke-width="1" />
<ellipse transform="translate(747.762152 259.999695) rotate(80.506779)" rx="8.315220" ry="6.905108" stroke="red" fill="none" stroke-width="1" />
<ellipse transform="translate(598.788295 199.093368) rotate(57.733948)" rx="19.535447" ry="18.001060" stroke="red" fill="none" stroke-width="1" />
<ellipse transform="translate(650.691704 201.798563) rotate(63.903911)" rx="19.136469" ry="17.043340" stroke="red" fill="none" stroke-width="1" />
<ellipse transform="translate(745.791501 208.231389) rotate(71.116231)" rx="8.170681" ry="6.819708" stroke="red" fill="none" stroke-width="1" />
<ellipse transform="translate(830.504470 264.392686) rotate(82.219749)" rx="7.821650" ry="5.938785" stroke="red" fill="none" stroke-width="1" />
<ellipse transform="translate(653.136592 311.504924) rotate(88.544871)" rx="8.639830" ry="7.928910" stroke="red" fill="none" stroke-width="1" />
<ellipse transform="translate(600.702951 311.348453) rotate(81.411208)" rx="19.845537" ry="18.679130" stroke="red" fill="none" stroke-width="1" />
<ellipse cx="489.419762" cy="370.335930" rx="9.085912" ry="9.085912" stroke="red" stroke-width="1" fill="none" /> 
<ellipse transform="translate(788.585092 211.871402) rotate(74.430528)" rx="7.973238" ry="6.351851" stroke="red" fill="none" stroke-width="1" />
<ellipse cx="370.710098" cy="312.351150" rx="20.817344" ry="20.817344" stroke="red" stroke-width="1" fill="none" /> 
<ellipse transform="translate(545.796982 311.207279) rotate(84.879294)" rx="20.196458" ry="19.517701" stroke="red" fill="none" stroke-width="1" />
<ellipse transform="translate(697.468271 153.154050) rotate(59.754507)" rx="8.359420" ry="6.995094" stroke="red" fill="none" stroke-width="1" />
<ellipse transform="translate(430.158867 311.742484) rotate(87.461400)" rx="20.809725" ry="20.565785" stroke="red" fill="none" stroke-width="1" />
<ellipse transform="translate(648.783635 148.934026) rotate(55.543821)" rx="18.738708" ry="16.527199" stroke="red" fill="none" stroke-width="1" />
<ellipse transform="translate(825.123543 167.903237) rotate(69.685260)" rx="16.889488" ry="12.694577" stroke="red" fill="none" stroke-width="1" />
<ellipse transform="translate(701.523538 257.989716) rotate(77.481167)" rx="8.440877" ry="7.373885" stroke="red" fill="none" stroke-width="1" />
<ellipse transform="translate(599.938179 254.730552) rotate(70.191645)" rx="19.658495" ry="18.513813" stroke="red" fill="none" stroke-width="1" />
<ellipse transform="translate(597.541458 144.974678) rotate(47.402897)" rx="8.697849" ry="7.849878" stroke="red" fill="none" stroke-width="1" />
<ellipse transform="translate(699.901586 204.834149) rotate(68.045384)" rx="8.403009" ry="7.228665" stroke="red" fill="none" stroke-width="1" />
<ellipse transform="translate(743.081653 157.840884) rotate(63.806802)" rx="8.154931" ry="6.569415" stroke="red" fill="none" stroke-width="1" />
<ellipse cx="430.255359" cy="311.672646" rx="9.258581" ry="9.258581" stroke="red" stroke-width="1" fill="none" /> 
<ellipse cx="370.747941" cy="312.268706" rx="9.341448" ry="9.341448" stroke="red" stroke-width="1" fill="none" /> 
<ellipse cx="430.839017" cy="371.448134" rx="9.238902" ry="9.238902" stroke="red" stroke-width="1" fill="none" /> 
<ellipse transform="translate(597.348666 145.130446) rotate(47.418925)" rx="19.191816" ry="17.452319" stroke="red" fill="none" stroke-width="1" />
<ellipse transform="translate(371.355387 193.869537) rotate(-23.348628)" rx="20.515590" ry="20.020234" stroke="red" fill="none" stroke-width="1" />
<ellipse transform="translate(488.749366 311.356020) rotate(84.528012)" rx="20.526213" ry="20.177785" stroke="red" fill="none" stroke-width="1" />
<ellipse transform="translate(650.823308 201.768257) rotate(61.166541)" rx="8.534052" ry="7.708037" stroke="red" fill="none" stroke-width="1" />
<ellipse transform="translate(544.655113 196.749950) rotate(52.627824)" rx="8.889842" ry="8.435735" stroke="red" fill="none" stroke-width="1" />
<ellipse transform="translate(652.345374 256.165176) rotate(75.809916)" rx="8.658260" ry="7.876070" stroke="red" fill="none" stroke-width="1" />
<path d="M 564.589152,254.983486 A20.069153,19.299693 64.284556 1,1 562.574643,245.247634" fill="none" stroke ="red" stroke-width="1" />
<ellipse cx="828.341896" cy="215.569082" rx="6.938484" ry="6.938484" stroke="red" stroke-width="1" fill="none" /> 
<ellipse cx="371.395071" cy="372.511118" rx="9.337838" ry="9.337838" stroke="red" stroke-width="1" fill="none" /> 
<ellipse transform="translate(370.734559 252.507805) rotate(-53.691948)" rx="20.783815" ry="20.494928" stroke="red" fill="none" stroke-width="1" />
<ellipse transform="translate(487.936689 139.237699) rotate(29.796190)" rx="8.954977" ry="8.455562" stroke="red" fill="none" stroke-width="1" />
<ellipse transform="translate(785.681090 162.766640) rotate(66.309044)" rx="7.929468" ry="6.161091" stroke="red" fill="none" stroke-width="1" />
<ellipse cx="488.869152" cy="311.299257" rx="9.087698" ry="9.087698" stroke="red" stroke-width="1" fill="none" /> 
<ellipse transform="translate(372.564447 137.014238) rotate(-12.793211)" rx="20.254321" ry="19.162082" stroke="red" fill="none" stroke-width="1" />
<ellipse transform="translate(487.797783 139.425557) rotate(25.921043)" rx="19.779747" ry="18.784708" stroke="red" fill="none" stroke-width="1" />
<ellipse transform="translate(598.998093 199.012636) rotate(58.427354)" rx="8.738149" ry="8.098677" stroke="red" fill="none" stroke-width="1" />
<ellipse transform="translate(544.470538 196.924023) rotate(50.356427)" rx="19.854514" ry="18.816711" stroke="red" fill="none" stroke-width="1" />
<ellipse transform="translate(370.802752 252.445812) rotate(-42.222767)" rx="9.319916" ry="9.184630" stroke="red" fill="none" stroke-width="1" />
<ellipse transform="translate(488.366650 252.731298) rotate(61.553392)" rx="20.328968" ry="19.977040" stroke="red" fill="none" stroke-width="1" />
<ellipse cx="545.950448" cy="311.200922" rx="8.866981" ry="8.866981" stroke="red" stroke-width="1" fill="none" /> 
<path d="M 562.878584,245.460034 A20.204668,20.204668 0.000000 0,1 564.933292,255.209465" fill="none" stroke ="red" stroke-width="1" />
<ellipse transform="translate(543.564584 141.920260) rotate(37.779056)" rx="19.518326" ry="18.228581" stroke="red" fill="none" stroke-width="1" />
<ellipse cx="430.082883" cy="252.305108" rx="9.200597" ry="9.200597" stroke="red" stroke-width="1" fill="none" /> 
<ellipse transform="translate(430.574741 137.758118) rotate(6.572354)" rx="20.042771" ry="19.090075" stroke="red" fill="none" stroke-width="1" />
<ellipse transform="translate(429.953825 252.404393) rotate(82.519997)" rx="20.495820" ry="20.452407" stroke="red" fill="none" stroke-width="1" />
<ellipse transform="translate(648.929742 148.802017) rotate(57.421699)" rx="8.554121" ry="7.528939" stroke="red" fill="none" stroke-width="1" />
<ellipse transform="translate(430.130221 194.163085) rotate(8.320952)" rx="20.329174" ry="19.955299" stroke="red" fill="none" stroke-width="1" />
<ellipse transform="translate(543.746361 141.780787) rotate(38.156490)" rx="8.820207" ry="8.231467" stroke="red" fill="none" stroke-width="1" />
<ellipse cx="488.069359" cy="195.220812" rx="19.838342" ry="19.838342" stroke="red" stroke-width="1" fill="none" /> 
<ellipse transform="translate(545.359293 253.442157) rotate(69.660969)" rx="8.978859" ry="8.624204" stroke="red" fill="none" stroke-width="1" />
<ellipse transform="translate(600.122742 254.649534) rotate(77.624507)" rx="8.838729" ry="8.301043" stroke="red" fill="none" stroke-width="1" />
<ellipse transform="translate(371.400781 193.643034) rotate(-19.793999)" rx="9.234329" ry="8.998088" stroke="red" fill="none" stroke-width="1" />
<ellipse transform="translate(17.228691 429.111537) rotate(79.677739)" rx="19.713168" ry="15.811476" stroke="red" fill="none" stroke-width="1" />
<ellipse transform="translate(825.207321 167.950600) rotate(69.432842)" rx="7.698225" ry="5.707357" stroke="red" fill="none" stroke-width="1" />
<ellipse cx="430.211157" cy="194.023050" rx="9.079483" ry="9.079483" stroke="red" stroke-width="1" fill="none" /> 
<ellipse transform="translate(488.500105 252.671932) rotate(76.233535)" rx="9.106934" ry="8.937035" stroke="red" fill="none" stroke-width="1" />
<ellipse transform="translate(14.438091 372.273550) rotate(87.806414)" rx="19.720537" ry="15.924179" stroke="red" fill="none" stroke-width="1" />
<ellipse transform="translate(372.590123 136.838106) rotate(-12.930855)" rx="9.128943" ry="8.792526" stroke="red" fill="none" stroke-width="1" />
<ellipse transform="translate(430.679896 137.596147) rotate(8.276478)" rx="9.043120" ry="8.740241" stroke="red" fill="none" stroke-width="1" />
<ellipse cx="488.204506" cy="195.084149" rx="8.926028" ry="8.926028" stroke="red" stroke-width="1" fill="none" /> 
<ellipse transform="translate(22.064080 485.130714) rotate(71.155170)" rx="19.445584" ry="15.432575" stroke="red" fill="none" stroke-width="1" />
<ellipse transform="translate(14.454515 258.405199) rotate(-77.141540)" rx="19.645198" ry="15.580315" stroke="red" fill="none" stroke-width="1" />
<path d="M -1.520887,308.843640 A19.699501,15.935166 -85.372571 1,1 -1.592057,322.461561" fill="none" stroke ="red" stroke-width="1" />
<ellipse transform="translate(1013.882193 402.984609) rotate(-84.576064)" rx="14.654368" ry="8.371153" stroke="red" fill="none" stroke-width="1" />
<path d="M 1007.881801,456.511084 A14.393172,7.817654 -80.245784 0,1 1014.776938,428.875876" fill="none" stroke ="red" stroke-width="1" />
<ellipse transform="translate(1014.409656 362.441250) rotate(-88.130462)" rx="14.718361" ry="8.428635" stroke="red" fill="none" stroke-width="1" />
<ellipse transform="translate(1014.125711 321.740385) rotate(88.397200)" rx="14.640587" ry="8.469183" stroke="red" fill="none" stroke-width="1" />
<ellipse transform="translate(17.260048 202.721951) rotate(-69.707875)" rx="19.478266" ry="15.279663" stroke="red" fill="none" stroke-width="1" />
<ellipse transform="translate(1012.775179 281.067858) rotate(84.780504)" rx="14.749648" ry="8.633766" stroke="red" fill="none" stroke-width="1" />
<path d="M 1014.136517,429.121000 A14.368905,7.775833 -80.039348 1,1 1009.064582,456.889890" fill="none" stroke ="red" stroke-width="1" />
<ellipse transform="translate(21.830845 148.682591) rotate(-63.145895)" rx="19.216707" ry="14.762438" stroke="red" fill="none" stroke-width="1" />
<path d="M 1012.177722,437.054976 A5.887655,5.887655 0.000000 0,1 1010.668499,448.687108" fill="none" stroke ="red" stroke-width="1" />
<path d="M 1005.894086,251.320845 A14.691526,8.515610 81.240141 1,1 1011.150536,255.167381" fill="none" stroke ="red" stroke-width="1" />
<path d="M 1010.649509,449.387206 A8.278466,8.278466 0.000000 0,1 1011.720636,438.019427" fill="none" stroke ="red" stroke-width="1" />
<ellipse transform="translate(1007.146652 200.938873) rotate(77.002558)" rx="14.551088" ry="8.396604" stroke="red" fill="none" stroke-width="1" />
<path d="M 1013.943389,328.750977 A8.174715,8.174715 0.000000 0,1 1012.742047,316.793236" fill="none" stroke ="red" stroke-width="1" />
<path d="M 1012.976073,286.459719 A6.014562,6.014562 0.000000 0,1 1014.527533,274.689255" fill="none" stroke ="red" stroke-width="1" />
<line x1="658.336703" y1="558.184771" x2="720.740470" y2="550.436798"  fill="none" stroke ="blue" stroke-width="1" />
<line x1="721.350629" y1="550.452839" x2="816.692979" y2="536.852880"  fill="none" stroke ="blue" stroke-width="1" />
<line x1="565.469954" y1="567.192864" x2="658.751179" y2="558.067641"  fill="none" stroke ="blue" stroke-width="1" />
<line x1="439.405936" y1="576.213642" x2="565.681338" y2="566.979864"  fill="none" stroke ="blue" stroke-width="1" />
<line x1="267.455097" y1="582.155647" x2="438.564812" y2="576.440440"  fill="none" stroke ="blue" stroke-width="1" />
<line x1="837.305484" y1="415.534721" x2="837.100501" y2="408.482545"  fill="none" stroke ="blue" stroke-width="1" />
<line x1="836.865301" y1="408.273195" x2="833.601769" y2="405.594230"  fill="none" stroke ="blue" stroke-width="1" />
<line x1="834.428618" y1="420.837945" x2="837.493550" y2="415.878069"  fill="none" stroke ="blue" stroke-width="1" />
<line x1="831.151910" y1="421.487255" x2="834.170181" y2="420.449847"  fill="none" stroke ="blue" stroke-width="1" />
<line x1="827.837361" y1="419.817556" x2="831.042735" y2="421.402108"  fill="none" stroke ="blue" stroke-width="1" />
<line x1="825.814290" y1="413.195282" x2="827.456474" y2="420.278241"  fill="none" stroke ="blue" stroke-width="1" />
<line x1="828.588079" y1="406.996078" x2="825.807038" y2="413.095906"  fill="none" stroke ="blue" stroke-width="1" />
<line x1="832.869595" y1="405.735965" x2="828.648943" y2="406.998081"  fill="none" stroke ="blue" stroke-width="1" />
<line x1="833.788479" y1="406.312377" x2="833.073564" y2="406.138721"  fill="none" stroke ="blue" stroke-width="1" />
<line x1="817.339344" y1="536.520426" x2="891.477261" y2="524.361351"  fill="none" stroke ="blue" stroke-width="1" />
<line x1="116.814505" y1="459.484311" x2="111.126895" y2="345.468728"  fill="none" stroke ="blue" stroke-width="1" />
<line x1="110.670112" y1="346.502785" x2="113.126317" y2="196.477510"  fill="none" stroke ="blue" stroke-width="1" />
<line x1="113.448671" y1="196.574347" x2="121.616486" y2="92.352390"  fill="none" stroke ="blue" stroke-width="1" />
<line x1="128.892920" y1="571.675596" x2="116.646353" y2="459.593273"  fill="none" stroke ="blue" stroke-width="1" />
<line x1="1017.638947" y1="366.513275" x2="1018.319755" y2="359.387242"  fill="none" stroke ="blue" stroke-width="1" />
<line x1="1017.809247" y1="359.639682" x2="1016.275055" y2="357.304922"  fill="none" stroke ="blue" stroke-width="1" />
<line x1="1016.467087" y1="357.795880" x2="1014.881690" y2="357.228887"  fill="none" stroke ="blue" stroke-width="1" />
<line x1="1015.386397" y1="356.731074" x2="1013.015460" y2="358.438195"  fill="none" stroke ="blue" stroke-width="1" />
<line x1="1012.769787" y1="357.690860" x2="1011.571792" y2="365.661100"  fill="none" stroke ="blue" stroke-width="1" />
<line x1="1012.015244" y1="364.735905" x2="1013.589104" y2="367.969990"  fill="none" stroke ="blue" stroke-width="1" />
<line x1="1013.159203" y1="368.048951" x2="1015.193627" y2="368.973179"  fill="none" stroke ="blue" stroke-width="1" />
<line x1="1014.917418" y1="368.496468" x2="1016.375675" y2="368.072440"  fill="none" stroke ="blue" stroke-width="1" />
<line x1="1016.443543" y1="368.634643" x2="1017.825498" y2="366.947507"  fill="none" stroke ="blue" stroke-width="1" />
<line x1="255.585455" y1="430.437246" x2="262.187542" y2="544.633691"  fill="none" stroke ="blue" stroke-width="1" />
<line x1="252.899229" y1="271.493930" x2="255.302255" y2="429.533417"  fill="none" stroke ="blue" stroke-width="1" />
<line x1="258.674868" y1="108.470696" x2="252.920065" y2="270.514918"  fill="none" stroke ="blue" stroke-width="1" />
<line x1="263.332325" y1="53.559167" x2="259.361420" y2="109.419062"  fill="none" stroke ="blue" stroke-width="1" />
<line x1="1016.324031" y1="408.461863" x2="1017.862792" y2="401.361899"  fill="none" stroke ="blue" stroke-width="1" />
<line x1="1017.660471" y1="401.491263" x2="1015.718409" y2="397.331836"  fill="none" stroke ="blue" stroke-width="1" />
<line x1="1016.534698" y1="398.429309" x2="1014.937760" y2="397.645473"  fill="none" stroke ="blue" stroke-width="1" />
<line x1="1015.178536" y1="397.757633" x2="1012.793690" y2="399.044340"  fill="none" stroke ="blue" stroke-width="1" />
<line x1="1012.601736" y1="397.727161" x2="1011.135739" y2="404.837265"  fill="none" stroke ="blue" stroke-width="1" />
<line x1="1011.338621" y1="404.835662" x2="1012.847975" y2="409.012944"  fill="none" stroke ="blue" stroke-width="1" />
<line x1="1012.471350" y1="408.551389" x2="1014.084861" y2="409.450925"  fill="none" stroke ="blue" stroke-width="1" />
<line x1="1014.104597" y1="409.007879" x2="1015.534196" y2="408.629044"  fill="none" stroke ="blue" stroke-width="1" />
<line x1="1016.235193" y1="410.216076" x2="1017.268776" y2="409.252084"  fill="none" stroke ="blue" stroke-width="1" />
<line x1="262.676765" y1="545.406506" x2="265.465175" y2="580.502767"  fill="none" stroke ="blue" stroke-width="1" />
<line x1="1017.599545" y1="326.484886" x2="1017.717008" y2="319.486857"  fill="none" stroke ="blue" stroke-width="1" />
<line x1="1015.362593" y1="328.330311" x2="1017.390181" y2="326.358682"  fill="none" stroke ="blue" stroke-width="1" />
<line x1="1014.420199" y1="328.187987" x2="1015.537712" y2="328.120016"  fill="none" stroke ="blue" stroke-width="1" />
<line x1="743.624079" y1="81.523553" x2="603.472783" y2="63.714189"  fill="none" stroke ="blue" stroke-width="1" />
<line x1="602.619147" y1="63.929402" x2="465.422505" y2="53.521534"  fill="none" stroke ="blue" stroke-width="1" />
<line x1="464.524938" y1="53.676159" x2="315.498107" y2="51.638437"  fill="none" stroke ="blue" stroke-width="1" />
<line x1="314.517480" y1="52.350198" x2="263.539031" y2="53.398341"  fill="none" stroke ="blue" stroke-width="1" />
<line x1="850.545786" y1="100.242733" x2="743.898170" y2="81.262709"  fill="none" stroke ="blue" stroke-width="1" />
<line x1="886.327788" y1="108.343493" x2="850.592371" y2="101.047567"  fill="none" stroke ="blue" stroke-width="1" />
<line x1="0.448127" y1="568.830596" x2="128.526367" y2="573.823655"  fill="none" stroke ="blue" stroke-width="1" />
<line x1="900.584429" y1="397.502465" x2="900.288202" y2="287.495185"  fill="none" stroke ="blue" stroke-width="1" />
<line x1="900.474459" y1="288.385647" x2="892.712890" y2="154.371838"  fill="none" stroke ="blue" stroke-width="1" />
<line x1="891.935529" y1="155.337329" x2="886.639068" y2="108.597559"  fill="none" stroke ="blue" stroke-width="1" />
<line x1="893.939888" y1="522.578575" x2="900.758684" y2="397.623256"  fill="none" stroke ="blue" stroke-width="1" />
<line x1="1016.703617" y1="284.646287" x2="1015.249431" y2="276.729716"  fill="none" stroke ="blue" stroke-width="1" />
<line x1="705.612226" y1="555.398006" x2="653.427471" y2="561.919642"  fill="none" stroke ="blue" stroke-width="1" />
<line x1="652.550358" y1="562.034453" x2="559.528197" y2="570.799254"  fill="none" stroke ="blue" stroke-width="1" />
<line x1="795.539454" y1="542.781235" x2="706.468699" y2="555.276879"  fill="none" stroke ="blue" stroke-width="1" />
<line x1="1014.231507" y1="243.630320" x2="1013.509423" y2="236.601768"  fill="none" stroke ="blue" stroke-width="1" />
<line x1="1013.118569" y1="246.699451" x2="1014.671425" y2="244.019835"  fill="none" stroke ="blue" stroke-width="1" />
<line x1="1011.924965" y1="247.119732" x2="1013.132066" y2="246.616840"  fill="none" stroke ="blue" stroke-width="1" />
<line x1="1009.770286" y1="245.915168" x2="1012.179926" y2="247.028808"  fill="none" stroke ="blue" stroke-width="1" />
<line x1="1007.943396" y1="240.128701" x2="1009.515174" y2="246.238857"  fill="none" stroke ="blue" stroke-width="1" />
<line x1="1008.982477" y1="235.977346" x2="1007.721560" y2="239.893333"  fill="none" stroke ="blue" stroke-width="1" />
<line x1="1010.309879" y1="235.766951" x2="1009.146163" y2="236.510839"  fill="none" stroke ="blue" stroke-width="1" />
<line x1="1012.356484" y1="235.831407" x2="1010.307656" y2="234.944161"  fill="none" stroke ="blue" stroke-width="1" />
<line x1="1012.783648" y1="237.323106" x2="1012.202675" y2="236.689433"  fill="none" stroke ="blue" stroke-width="1" />
<line x1="960.287169" y1="516.634850" x2="1022.692573" y2="501.282803"  fill="none" stroke ="blue" stroke-width="1" />
<line x1="1022.037666" y1="210.478189" x2="1021.469038" y2="196.460690"  fill="none" stroke ="blue" stroke-width="1" />
<line x1="1011.127977" y1="203.879921" x2="1009.371217" y2="197.535661"  fill="none" stroke ="blue" stroke-width="1" />
<line x1="1009.671175" y1="197.508372" x2="1007.496488" y2="195.720901"  fill="none" stroke ="blue" stroke-width="1" />
<line x1="1007.537155" y1="195.789532" x2="1006.480407" y2="195.819980"  fill="none" stroke ="blue" stroke-width="1" />
<line x1="1010.566729" y1="206.167654" x2="1011.311334" y2="204.076706"  fill="none" stroke ="blue" stroke-width="1" />
<line x1="1008.825712" y1="207.574812" x2="1010.607889" y2="206.275939"  fill="none" stroke ="blue" stroke-width="1" />
<line x1="1006.247417" y1="205.805118" x2="1009.128186" y2="207.075493"  fill="none" stroke ="blue" stroke-width="1" />
<line x1="1004.729726" y1="200.248385" x2="1005.988424" y2="206.400063"  fill="none" stroke ="blue" stroke-width="1" />
<line x1="1005.308183" y1="196.765899" x2="1004.319891" y2="199.769751"  fill="none" stroke ="blue" stroke-width="1" />
<line x1="1006.386724" y1="195.668286" x2="1005.270663" y2="196.515372"  fill="none" stroke ="blue" stroke-width="1" />
<line x1="964.466559" y1="280.483109" x2="966.039813" y2="370.508042"  fill="none" stroke ="blue" stroke-width="1" />
<line x1="965.694214" y1="367.467438" x2="964.160376" y2="452.529940"  fill="none" stroke ="blue" stroke-width="1" />
<line x1="963.917825" y1="453.378821" x2="959.150258" y2="515.626394"  fill="none" stroke ="blue" stroke-width="1" />
<line x1="958.734132" y1="195.484475" x2="964.363141" y2="280.376459"  fill="none" stroke ="blue" stroke-width="1" />
<line x1="949.716747" y1="130.472563" x2="957.941182" y2="195.444153"  fill="none" stroke ="blue" stroke-width="1" />
<line x1="122.358751" y1="91.600336" x2="126.358614" y2="57.366641"  fill="none" stroke ="blue" stroke-width="1" />
<line x1="123.574149" y1="56.038882" x2="0.428925" y2="72.983462"  fill="none" stroke ="blue" stroke-width="1" />
<line x1="1011.467149" y1="256.576513" x2="1006.540125" y2="251.416542"  fill="none" stroke ="blue" stroke-width="1" />
<line x1="1022.726602" y1="145.535117" x2="952.379261" y2="129.014112"  fill="none" stroke ="blue" stroke-width="1" />
<line x1="559.495809" y1="570.439469" x2="527.510662" y2="572.653991"  fill="none" stroke ="blue" stroke-width="1" />
<line x1="382.496969" y1="581.419447" x2="357.494739" y2="582.360168"  fill="none" stroke ="blue" stroke-width="1" />
<line x1="958.609570" y1="233.491579" x2="957.228491" y2="215.520866"  fill="none" stroke ="blue" stroke-width="1" />
</svg>
