<?xml version="1.0" standalone="no"?>
<!DOCTYPE svg PUBLIC "-//W3C//DTD SVG 1.1//EN"
 "http://www.w3.org/Graphics/SVG/1.1/DTD/svg11.dtd">
<svg width="688px" height="683px" version="1.1"
 xmlns="http://www.w3.org/2000/svg" xmlns:xlink="http://www.w3.org/1999/xlink">
<path d="M 158.271417,48.472735 A96.907469,96.907469 0.000000 0,1 218.968412,130.817256" fill="none" stroke ="red" stroke-width="1" />
<path d="M 149.771860,39.835625 A95.693385,95.693385 0.000000 0,1 213.148307,94.972273" fill="none" stroke ="red" stroke-width="1" />
<path d="M 379.194169,353.775805 A154.022686,154.022686 0.000000 0,1 314.750952,455.264440" fill="none" stroke ="red" stroke-width="1" />
<path d="M 117.641531,251.957953 A95.455545,95.455545 0.000000 0,1 38.855504,194.028193" fill="none" stroke ="red" stroke-width="1" />
<path d="M 99.341370,243.204731 A93.580019,93.580019 0.000000 0,1 42.796632,191.047816" fill="none" stroke ="red" stroke-width="1" />
<path d="M 369.243920,373.764659 A151.749061,151.749061 0.000000 0,1 305.964255,455.524750" fill="none" stroke ="red" stroke-width="1" />
<path d="M 43.871842,96.025324 A91.378921,91.378921 0.000000 0,1 103.198315,44.808849" fill="none" stroke ="red" stroke-width="1" />
<path d="M 316.665299,34.445521 A69.678760,69.678760 0.000000 0,1 343.705503,66.656341" fill="none" stroke ="red" stroke-width="1" />
<path d="M 295.331055,250.568763 A71.041863,71.041863 0.000000 0,1 268.228845,218.359838" fill="none" stroke ="red" stroke-width="1" />
<path d="M 313.717305,38.513650 A66.122139,66.122139 0.000000 0,1 338.823425,67.619395" fill="none" stroke ="red" stroke-width="1" />
<path d="M 315.698641,316.323271 A60.095023,34.826827 -86.476857 0,1 370.770777,312.656608" fill="none" stroke ="red" stroke-width="1" />
<path d="M 269.135204,64.662023 A76.687108,76.687108 0.000000 0,1 289.971546,37.987052" fill="none" stroke ="red" stroke-width="1" />
<path d="M 240.046213,317.406794 A40.248839,40.248839 0.000000 0,1 257.284391,293.379489" fill="none" stroke ="red" stroke-width="1" />
<line x1="556.500000" y1="36.496671" x2="653.500001" y2="36.496540"  fill="none" stroke ="blue" stroke-width="1" />
<line x1="119.499924" y1="37.508910" x2="133.500075" y2="37.509964"  fill="none" stroke ="blue" stroke-width="1" />
<line x1="648.500000" y1="41.496249" x2="561.499992" y2="41.495532"  fill="none" stroke ="blue" stroke-width="1" />
<line x1="134.500015" y1="42.508892" x2="119.499985" y2="42.509116"  fill="none" stroke ="blue" stroke-width="1" />
<line x1="555.498655" y1="241.500000" x2="555.498209" y2="37.499998"  fill="none" stroke ="blue" stroke-width="1" />
<line x1="649.503663" y1="236.500002" x2="649.503185" y2="42.500000"  fill="none" stroke ="blue" stroke-width="1" />
<line x1="654.501320" y1="37.500000" x2="654.501983" y2="241.500003"  fill="none" stroke ="blue" stroke-width="1" />
<line x1="560.498658" y1="42.500000" x2="560.498585" y2="236.500000"  fill="none" stroke ="blue" stroke-width="1" />
<line x1="254.503284" y1="155.500103" x2="254.505963" y2="129.499898"  fill="none" stroke ="blue" stroke-width="1" />
<line x1="259.505519" y1="129.499989" x2="259.505822" y2="156.500011"  fill="none" stroke ="blue" stroke-width="1" />
<line x1="353.496367" y1="156.500092" x2="353.493808" y2="128.499818"  fill="none" stroke ="blue" stroke-width="1" />
<line x1="358.498411" y1="129.499804" x2="358.493136" y2="156.500194"  fill="none" stroke ="blue" stroke-width="1" />
<line x1="220.495177" y1="155.500093" x2="220.493320" y2="135.499908"  fill="none" stroke ="blue" stroke-width="1" />
<line x1="357.539858" y1="158.491860" x2="357.463421" y2="167.508168"  fill="none" stroke ="blue" stroke-width="1" />
<line x1="394.499950" y1="229.507221" x2="514.500000" y2="229.501156"  fill="none" stroke ="blue" stroke-width="1" />
<line x1="519.500003" y1="234.500025" x2="389.499997" y2="234.499612"  fill="none" stroke ="blue" stroke-width="1" />
<line x1="561.499980" y1="237.504510" x2="648.500000" y2="237.502725"  fill="none" stroke ="blue" stroke-width="1" />
<line x1="653.500000" y1="242.502961" x2="556.499978" y2="242.505110"  fill="none" stroke ="blue" stroke-width="1" />
<line x1="117.499796" y1="247.494736" x2="134.500201" y2="247.491289"  fill="none" stroke ="blue" stroke-width="1" />
<line x1="302.499632" y1="247.486657" x2="310.500357" y2="247.483753"  fill="none" stroke ="blue" stroke-width="1" />
<line x1="134.500005" y1="252.492099" x2="118.499995" y2="252.492025"  fill="none" stroke ="blue" stroke-width="1" />
<line x1="310.500018" y1="252.484367" x2="302.499983" y2="252.484227"  fill="none" stroke ="blue" stroke-width="1" />
<line x1="41.500000" y1="290.498991" x2="205.500003" y2="290.498576"  fill="none" stroke ="blue" stroke-width="1" />
<line x1="200.500000" y1="295.498002" x2="46.500000" y2="295.498070"  fill="none" stroke ="blue" stroke-width="1" />
<line x1="206.502132" y1="291.499997" x2="206.501571" y2="455.500000"  fill="none" stroke ="blue" stroke-width="1" />
<line x1="45.498295" y1="296.500000" x2="45.497862" y2="450.500003"  fill="none" stroke ="blue" stroke-width="1" />
<line x1="201.503986" y1="450.500000" x2="201.504177" y2="296.499999"  fill="none" stroke ="blue" stroke-width="1" />
<line x1="436.496125" y1="340.502450" x2="446.503706" y2="340.541132"  fill="none" stroke ="blue" stroke-width="1" />
<line x1="485.495733" y1="340.542694" x2="495.504448" y2="340.498086"  fill="none" stroke ="blue" stroke-width="1" />
<line x1="409.498682" y1="341.515663" x2="434.501315" y2="341.482185"  fill="none" stroke ="blue" stroke-width="1" />
<line x1="497.498812" y1="341.484698" x2="522.501188" y2="341.514858"  fill="none" stroke ="blue" stroke-width="1" />
<line x1="449.504193" y1="345.470825" x2="436.495798" y2="345.527010"  fill="none" stroke ="blue" stroke-width="1" />
<line x1="495.504259" y1="345.527186" x2="482.495752" y2="345.470228"  fill="none" stroke ="blue" stroke-width="1" />
<line x1="434.501108" y1="346.486020" x2="409.498892" y2="346.514108"  fill="none" stroke ="blue" stroke-width="1" />
<line x1="522.501086" y1="346.514865" x2="497.498911" y2="346.487299"  fill="none" stroke ="blue" stroke-width="1" />
<line x1="428.501198" y1="616.500008" x2="428.500115" y2="478.499992"  fill="none" stroke ="blue" stroke-width="1" />
<line x1="433.486333" y1="488.499869" x2="433.502798" y2="612.500000"  fill="none" stroke ="blue" stroke-width="1" />
<line x1="367.499197" y1="520.499989" x2="367.498382" y2="596.500011"  fill="none" stroke ="blue" stroke-width="1" />
<line x1="300.853160" y1="480.606346" x2="368.213755" y2="519.989590"  fill="none" stroke ="blue" stroke-width="1" />
<line x1="231.502136" y1="596.500022" x2="231.500462" y2="520.499978"  fill="none" stroke ="blue" stroke-width="1" />
<line x1="362.499148" y1="593.500016" x2="362.498010" y2="523.499984"  fill="none" stroke ="blue" stroke-width="1" />
<line x1="363.277209" y1="522.881707" x2="299.742285" y2="485.798187"  fill="none" stroke ="blue" stroke-width="1" />
<line x1="434.500000" y1="613.502491" x2="521.500030" y2="613.505074"  fill="none" stroke ="blue" stroke-width="1" />
<line x1="528.500009" y1="618.498928" x2="430.499991" y2="618.499799"  fill="none" stroke ="blue" stroke-width="1" />
<line x1="164.500021" y1="632.497392" x2="66.499979" y2="632.495293"  fill="none" stroke ="blue" stroke-width="1" />
<line x1="309.501086" y1="38.517190" x2="303.498957" y2="38.523600"  fill="none" stroke ="blue" stroke-width="1" />
<line x1="357.465270" y1="118.492695" x2="357.533490" y2="127.507314"  fill="none" stroke ="blue" stroke-width="1" />
<line x1="260.532120" y1="118.492242" x2="260.459861" y2="127.507693"  fill="none" stroke ="blue" stroke-width="1" />
<line x1="225.498594" y1="134.499880" x2="225.496189" y2="154.500120"  fill="none" stroke ="blue" stroke-width="1" />
<line x1="32.504263" y1="135.499834" x2="32.507405" y2="154.500164"  fill="none" stroke ="blue" stroke-width="1" />
<line x1="352.464681" y1="167.507339" x2="352.533265" y2="158.492645"  fill="none" stroke ="blue" stroke-width="1" />
<line x1="260.469444" y1="158.492905" x2="260.535417" y2="167.507060"  fill="none" stroke ="blue" stroke-width="1" />
<line x1="40.498341" y1="455.500000" x2="40.497716" y2="291.499996"  fill="none" stroke ="blue" stroke-width="1" />
<line x1="374.540566" y1="332.510369" x2="374.464688" y2="325.489574"  fill="none" stroke ="blue" stroke-width="1" />
<line x1="374.466447" y1="353.506984" x2="374.531585" y2="344.493002"  fill="none" stroke ="blue" stroke-width="1" />
<line x1="379.535451" y1="344.492485" x2="379.465218" y2="353.507520"  fill="none" stroke ="blue" stroke-width="1" />
<line x1="236.504412" y1="523.499963" x2="236.501821" y2="593.500037"  fill="none" stroke ="blue" stroke-width="1" />
<line x1="27.506983" y1="153.500038" x2="27.507632" y2="136.499962"  fill="none" stroke ="blue" stroke-width="1" />
<line x1="380.494306" y1="334.498923" x2="380.485734" y2="342.501056"  fill="none" stroke ="blue" stroke-width="1" />
<line x1="524.495938" y1="342.470478" x2="537.504082" y2="342.524931"  fill="none" stroke ="blue" stroke-width="1" />
<line x1="205.500000" y1="456.499400" x2="41.499999" y2="456.499485"  fill="none" stroke ="blue" stroke-width="1" />
<line x1="352.540111" y1="126.509047" x2="352.464539" y2="118.490909"  fill="none" stroke ="blue" stroke-width="1" />
<line x1="379.459481" y1="325.488057" x2="379.546906" y2="332.511863"  fill="none" stroke ="blue" stroke-width="1" />
<line x1="394.496241" y1="342.523972" x2="407.503750" y2="342.473882"  fill="none" stroke ="blue" stroke-width="1" />
<line x1="233.535657" y1="352.507726" x2="233.463431" y2="343.492282"  fill="none" stroke ="blue" stroke-width="1" />
<line x1="303.499346" y1="33.519914" x2="309.500678" y2="33.515909"  fill="none" stroke ="blue" stroke-width="1" />
<line x1="255.470181" y1="127.506783" x2="255.533199" y2="118.493241"  fill="none" stroke ="blue" stroke-width="1" />
<line x1="237.522812" y1="334.498603" x2="237.512804" y2="341.501447"  fill="none" stroke ="blue" stroke-width="1" />
<line x1="375.483604" y1="342.500271" x2="375.485805" y2="334.499721"  fill="none" stroke ="blue" stroke-width="1" />
<line x1="232.520088" y1="341.500972" x2="232.513144" y2="334.498995"  fill="none" stroke ="blue" stroke-width="1" />
<line x1="238.465559" y1="343.492977" x2="238.531119" y2="352.507047"  fill="none" stroke ="blue" stroke-width="1" />
<line x1="46.500000" y1="451.501519" x2="200.500008" y2="451.502814"  fill="none" stroke ="blue" stroke-width="1" />
<line x1="69.499983" y1="627.503719" x2="161.500000" y2="627.502185"  fill="none" stroke ="blue" stroke-width="1" />
<line x1="255.535396" y1="167.506497" x2="255.467960" y2="157.493481"  fill="none" stroke ="blue" stroke-width="1" />
<line x1="195.646032" y1="539.227574" x2="165.947289" y2="632.323679"  fill="none" stroke ="blue" stroke-width="1" />
<line x1="596.028947" y1="336.401981" x2="609.732048" y2="270.548285"  fill="none" stroke ="blue" stroke-width="1" />
<line x1="468.212890" y1="279.578672" x2="484.807895" y2="340.141621"  fill="none" stroke ="blue" stroke-width="1" />
<line x1="496.858881" y1="383.147745" x2="512.809278" y2="444.679052"  fill="none" stroke ="blue" stroke-width="1" />
<line x1="600.485604" y1="380.295849" x2="611.861763" y2="435.217934"  fill="none" stroke ="blue" stroke-width="1" />
<line x1="561.271301" y1="359.948861" x2="601.319596" y2="379.862805"  fill="none" stroke ="blue" stroke-width="1" />
<line x1="419.534137" y1="443.766597" x2="435.159725" y2="383.154482"  fill="none" stroke ="blue" stroke-width="1" />
<line x1="454.887622" y1="50.976831" x2="393.738742" y2="228.925671"  fill="none" stroke ="blue" stroke-width="1" />
<line x1="515.042976" y1="227.993225" x2="455.117263" y2="50.968078"  fill="none" stroke ="blue" stroke-width="1" />
<line x1="387.463940" y1="231.831509" x2="452.876307" y2="41.629416"  fill="none" stroke ="blue" stroke-width="1" />
<line x1="40.981882" y1="540.027107" x2="68.766886" y2="627.095716"  fill="none" stroke ="blue" stroke-width="1" />
<line x1="457.173001" y1="41.610691" x2="521.559268" y2="231.818442"  fill="none" stroke ="blue" stroke-width="1" />
<line x1="64.806723" y1="631.402266" x2="35.428790" y2="539.204052"  fill="none" stroke ="blue" stroke-width="1" />
<line x1="162.268254" y1="627.106369" x2="190.089261" y2="540.049168"  fill="none" stroke ="blue" stroke-width="1" />
<line x1="67.815535" y1="57.197318" x2="99.520351" y2="40.538733"  fill="none" stroke ="blue" stroke-width="1" />
<line x1="49.083882" y1="77.135005" x2="67.764399" y2="57.754854"  fill="none" stroke ="blue" stroke-width="1" />
<line x1="38.471059" y1="95.099586" x2="49.658753" y2="76.980567"  fill="none" stroke ="blue" stroke-width="1" />
<line x1="153.284676" y1="244.079339" x2="178.772707" y2="231.032765"  fill="none" stroke ="blue" stroke-width="1" />
<line x1="178.955110" y1="230.946637" x2="199.108216" y2="211.102124"  fill="none" stroke ="blue" stroke-width="1" />
<line x1="199.232011" y1="210.334185" x2="210.608115" y2="191.948158"  fill="none" stroke ="blue" stroke-width="1" />
<line x1="447.273340" y1="340.165572" x2="463.975730" y2="278.902333"  fill="none" stroke ="blue" stroke-width="1" />
<line x1="480.759974" y1="344.429679" x2="466.262853" y2="290.834641"  fill="none" stroke ="blue" stroke-width="1" />
<line x1="238.106850" y1="353.322820" x2="248.465582" y2="388.802015"  fill="none" stroke ="blue" stroke-width="1" />
<line x1="248.478551" y1="388.919495" x2="266.670427" y2="419.585356"  fill="none" stroke ="blue" stroke-width="1" />
<line x1="266.875377" y1="420.102517" x2="293.380390" y2="447.579986"  fill="none" stroke ="blue" stroke-width="1" />
<line x1="292.996156" y1="446.188219" x2="307.179509" y2="456.571835"  fill="none" stroke ="blue" stroke-width="1" />
<line x1="576.031559" y1="474.771748" x2="599.870389" y2="515.865245"  fill="none" stroke ="blue" stroke-width="1" />
<line x1="440.826783" y1="381.324765" x2="426.647510" y2="435.798691"  fill="none" stroke ="blue" stroke-width="1" />
<line x1="462.321003" y1="304.174286" x2="451.203143" y2="344.417989"  fill="none" stroke ="blue" stroke-width="1" />
<line x1="251.793193" y1="406.374966" x2="236.855779" y2="371.348275"  fill="none" stroke ="blue" stroke-width="1" />
<line x1="278.199285" y1="440.959147" x2="251.903916" y2="406.961033"  fill="none" stroke ="blue" stroke-width="1" />
<line x1="305.796392" y1="462.120914" x2="278.849866" y2="441.052521"  fill="none" stroke ="blue" stroke-width="1" />
<line x1="116.757588" y1="480.521235" x2="196.503820" y2="538.494745"  fill="none" stroke ="blue" stroke-width="1" />
<line x1="505.406748" y1="435.783834" x2="491.262017" y2="381.302162"  fill="none" stroke ="blue" stroke-width="1" />
<line x1="610.485603" y1="558.871751" x2="644.909561" y2="612.876362"  fill="none" stroke ="blue" stroke-width="1" />
<line x1="435.756912" y1="383.365792" x2="392.052931" y2="345.855765"  fill="none" stroke ="blue" stroke-width="1" />
<line x1="115.332105" y1="486.660966" x2="40.216171" y2="540.499212"  fill="none" stroke ="blue" stroke-width="1" />
<line x1="299.810559" y1="630.287619" x2="363.315027" y2="594.174726"  fill="none" stroke ="blue" stroke-width="1" />
<line x1="236.152260" y1="594.339408" x2="300.165755" y2="630.315395"  fill="none" stroke ="blue" stroke-width="1" />
<line x1="627.097536" y1="337.303632" x2="669.907843" y2="358.685599"  fill="none" stroke ="blue" stroke-width="1" />
<line x1="553.104840" y1="358.707324" x2="597.086083" y2="336.673779"  fill="none" stroke ="blue" stroke-width="1" />
<line x1="661.728956" y1="360.050243" x2="622.081521" y2="340.330808"  fill="none" stroke ="blue" stroke-width="1" />
<line x1="622.720205" y1="340.457743" x2="612.220948" y2="285.745449"  fill="none" stroke ="blue" stroke-width="1" />
<line x1="669.107109" y1="361.712652" x2="627.088836" y2="382.680019"  fill="none" stroke ="blue" stroke-width="1" />
<line x1="596.283377" y1="382.932089" x2="553.108252" y2="361.286743"  fill="none" stroke ="blue" stroke-width="1" />
<line x1="300.217490" y1="485.744694" x2="236.488716" y2="522.480425"  fill="none" stroke ="blue" stroke-width="1" />
<line x1="231.248925" y1="519.799204" x2="299.163023" y2="480.650184"  fill="none" stroke ="blue" stroke-width="1" />
<line x1="522.318664" y1="612.335875" x2="433.687916" y2="487.074604"  fill="none" stroke ="blue" stroke-width="1" />
<line x1="632.325485" y1="602.252483" x2="604.517393" y2="558.848181"  fill="none" stroke ="blue" stroke-width="1" />
<line x1="299.119625" y1="635.396203" x2="230.766330" y2="597.025561"  fill="none" stroke ="blue" stroke-width="1" />
<line x1="208.121918" y1="206.869512" x2="190.541201" y2="227.690411"  fill="none" stroke ="blue" stroke-width="1" />
<line x1="190.264150" y1="228.146838" x2="165.123555" y2="244.936310"  fill="none" stroke ="blue" stroke-width="1" />
<line x1="215.539245" y1="192.940570" x2="207.354217" y2="206.997395"  fill="none" stroke ="blue" stroke-width="1" />
<line x1="539.956564" y1="345.867575" x2="496.275382" y2="383.402352"  fill="none" stroke ="blue" stroke-width="1" />
<line x1="491.058352" y1="381.152880" x2="529.967441" y2="347.877280"  fill="none" stroke ="blue" stroke-width="1" />
<line x1="622.078181" y1="379.663853" x2="661.736186" y2="359.962475"  fill="none" stroke ="blue" stroke-width="1" />
<line x1="612.426070" y1="433.294541" x2="622.710080" y2="379.540192"  fill="none" stroke ="blue" stroke-width="1" />
<line x1="466.780602" y1="405.375408" x2="505.052976" y2="436.827104"  fill="none" stroke ="blue" stroke-width="1" />
<line x1="509.240558" y1="446.594708" x2="465.945438" y2="411.177922"  fill="none" stroke ="blue" stroke-width="1" />
<line x1="426.997848" y1="436.889756" x2="465.250853" y2="405.412480"  fill="none" stroke ="blue" stroke-width="1" />
<line x1="528.844301" y1="503.067877" x2="574.162052" y2="475.591965"  fill="none" stroke ="blue" stroke-width="1" />
<line x1="34.947560" y1="538.123894" x2="115.236847" y2="480.527157"  fill="none" stroke ="blue" stroke-width="1" />
<line x1="190.776267" y1="540.495742" x2="116.674164" y2="486.636219"  fill="none" stroke ="blue" stroke-width="1" />
<line x1="431.918159" y1="475.911765" x2="530.497995" y2="615.209113"  fill="none" stroke ="blue" stroke-width="1" />
<line x1="561.965611" y1="538.826455" x2="597.083306" y2="563.102782"  fill="none" stroke ="blue" stroke-width="1" />
<line x1="641.210333" y1="615.517489" x2="580.915309" y2="571.925558"  fill="none" stroke ="blue" stroke-width="1" />
<line x1="367.826285" y1="597.315172" x2="300.868138" y2="635.388776"  fill="none" stroke ="blue" stroke-width="1" />
<line x1="600.923937" y1="340.339845" x2="561.261576" y2="360.033768"  fill="none" stroke ="blue" stroke-width="1" />
<line x1="611.283806" y1="287.662097" x2="600.362396" y2="340.471543"  fill="none" stroke ="blue" stroke-width="1" />
<line x1="402.053253" y1="347.853000" x2="440.964505" y2="381.126232"  fill="none" stroke ="blue" stroke-width="1" />
<line x1="466.033283" y1="411.150406" x2="422.776506" y2="446.617607"  fill="none" stroke ="blue" stroke-width="1" />
<line x1="574.155894" y1="481.594353" x2="536.497658" y2="504.164584"  fill="none" stroke ="blue" stroke-width="1" />
<line x1="590.048281" y1="564.156541" x2="554.874376" y2="539.955872"  fill="none" stroke ="blue" stroke-width="1" />
<line x1="593.530259" y1="515.057087" x2="574.562196" y2="482.038740"  fill="none" stroke ="blue" stroke-width="1" />
<line x1="566.022538" y1="531.176745" x2="528.875160" y2="504.968256"  fill="none" stroke ="blue" stroke-width="1" />
<line x1="536.609424" y1="504.344418" x2="573.128035" y2="530.028867"  fill="none" stroke ="blue" stroke-width="1" />
<line x1="588.026669" y1="570.777441" x2="631.992708" y2="602.824034"  fill="none" stroke ="blue" stroke-width="1" />
<line x1="611.865244" y1="551.053831" x2="586.324251" y2="521.780832"  fill="none" stroke ="blue" stroke-width="1" />
<line x1="593.129657" y1="521.950254" x2="618.680681" y2="551.215339"  fill="none" stroke ="blue" stroke-width="1" />
<line x1="280.225449" y1="288.793807" x2="298.315086" y2="305.697883"  fill="none" stroke ="blue" stroke-width="1" />
<line x1="297.601047" y1="305.947541" x2="307.228291" y2="325.134574"  fill="none" stroke ="blue" stroke-width="1" />
<line x1="320.272462" y1="243.270886" x2="330.810304" y2="232.805527"  fill="none" stroke ="blue" stroke-width="1" />
<line x1="330.291821" y1="232.994686" x2="339.670897" y2="217.982022"  fill="none" stroke ="blue" stroke-width="1" />
<line x1="339.643264" y1="219.245576" x2="351.177904" y2="180.404347"  fill="none" stroke ="blue" stroke-width="1" />
<line x1="313.903817" y1="246.337467" x2="320.664325" y2="242.870468"  fill="none" stroke ="blue" stroke-width="1" />
<line x1="361.266972" y1="291.735321" x2="369.810848" y2="300.195934"  fill="none" stroke ="blue" stroke-width="1" />
<line x1="369.413150" y1="300.008478" x2="376.443171" y2="313.068860"  fill="none" stroke ="blue" stroke-width="1" />
<line x1="352.904352" y1="287.667334" x2="360.887397" y2="291.740791"  fill="none" stroke ="blue" stroke-width="1" />
<line x1="349.456391" y1="287.504541" x2="352.538093" y2="287.369537"  fill="none" stroke ="blue" stroke-width="1" />
<line x1="339.288331" y1="230.301692" x2="321.394489" y2="249.401149"  fill="none" stroke ="blue" stroke-width="1" />
<line x1="320.880310" y1="248.455438" x2="310.186389" y2="252.712128"  fill="none" stroke ="blue" stroke-width="1" />
<line x1="344.469516" y1="218.929201" x2="338.117825" y2="230.396135"  fill="none" stroke ="blue" stroke-width="1" />
<line x1="291.419435" y1="305.588965" x2="279.798949" y2="295.065625"  fill="none" stroke ="blue" stroke-width="1" />
<line x1="279.879299" y1="295.760319" x2="273.504429" y2="292.491363"  fill="none" stroke ="blue" stroke-width="1" />
<line x1="273.591729" y1="292.154610" x2="270.374644" y2="292.605411"  fill="none" stroke ="blue" stroke-width="1" />
<line x1="301.529568" y1="324.035721" x2="291.154911" y2="305.242548"  fill="none" stroke ="blue" stroke-width="1" />
<line x1="291.938048" y1="42.873004" x2="278.576199" y2="58.564885"  fill="none" stroke ="blue" stroke-width="1" />
<line x1="278.718956" y1="59.108722" x2="271.707354" y2="73.104845"  fill="none" stroke ="blue" stroke-width="1" />
<line x1="609.744312" y1="449.449002" x2="595.999846" y2="383.604403"  fill="none" stroke ="blue" stroke-width="1" />
<line x1="616.253089" y1="280.354887" x2="625.750734" y2="329.644377"  fill="none" stroke ="blue" stroke-width="1" />
<line x1="627.303404" y1="382.656920" x2="614.293739" y2="449.264395"  fill="none" stroke ="blue" stroke-width="1" />
<line x1="278.901676" y1="228.148224" x2="291.978957" y2="243.080544"  fill="none" stroke ="blue" stroke-width="1" />
<line x1="292.062993" y1="242.203902" x2="299.082451" y2="246.561827"  fill="none" stroke ="blue" stroke-width="1" />
<line x1="273.912957" y1="217.746683" x2="279.198600" y2="227.660691"  fill="none" stroke ="blue" stroke-width="1" />
</svg>
