<?xml version="1.0" standalone="no"?>
<!DOCTYPE svg PUBLIC "-//W3C//DTD SVG 1.1//EN"
 "http://www.w3.org/Graphics/SVG/1.1/DTD/svg11.dtd">
<svg width="641px" height="600px" version="1.1"
 xmlns="http://www.w3.org/2000/svg" xmlns:xlink="http://www.w3.org/1999/xlink">
<path d="M 452.068863,553.546717 A140.317912,132.495458 -72.269722 0,1 377.388779,324.331324" fill="none" stroke ="red" stroke-width="1" />
<path d="M 339.087063,329.321913 A290.234830,290.234830 0.000000 0,1 300.068616,332.362023" fill="none" stroke ="red" stroke-width="1" />
<path d="M 193.492135,475.446249 A59.057032,54.998593 74.482419 0,1 98.599360,421.275213" fill="none" stroke ="red" stroke-width="1" />
<path d="M 45.313491,403.271659 A135.104036,127.717613 17.875517 0,1 306.810815,402.054151" fill="none" stroke ="red" stroke-width="1" />
<path d="M 479.004281,427.858530 A12.157587,8.545891 -13.597966 1,1 470.103253,444.704274" fill="none" stroke ="red" stroke-width="1" />
<path d="M 322.525826,365.256604 A227.504128,227.504128 0.000000 0,1 339.360809,329.293151" fill="none" stroke ="red" stroke-width="1" />
<path d="M 299.006375,332.425267 A189.194615,189.194615 0.000000 0,1 322.234579,365.069217" fill="none" stroke ="red" stroke-width="1" />
<line x1="267.470782" y1="135.464620" x2="266.610052" y2="160.503783"  fill="none" stroke ="blue" stroke-width="1" />
<line x1="265.968333" y1="157.306284" x2="273.141504" y2="174.648285"  fill="none" stroke ="blue" stroke-width="1" />
<line x1="272.060646" y1="173.940926" x2="287.039560" y2="188.961953"  fill="none" stroke ="blue" stroke-width="1" />
<line x1="285.084431" y1="188.394734" x2="311.146679" y2="194.110924"  fill="none" stroke ="blue" stroke-width="1" />
<line x1="309.259475" y1="193.895298" x2="323.751049" y2="188.131161"  fill="none" stroke ="blue" stroke-width="1" />
<line x1="321.871474" y1="189.866576" x2="332.913998" y2="178.909432"  fill="none" stroke ="blue" stroke-width="1" />
<line x1="332.504411" y1="179.731315" x2="336.255443" y2="163.443679"  fill="none" stroke ="blue" stroke-width="1" />
<line x1="335.872858" y1="164.410970" x2="331.180789" y2="154.187550"  fill="none" stroke ="blue" stroke-width="1" />
<line x1="331.144456" y1="154.115143" x2="322.981505" y2="149.397073"  fill="none" stroke ="blue" stroke-width="1" />
<line x1="323.448087" y1="150.031057" x2="317.411365" y2="150.699333"  fill="none" stroke ="blue" stroke-width="1" />
<line x1="317.484876" y1="150.494783" x2="312.964986" y2="154.969663"  fill="none" stroke ="blue" stroke-width="1" />
<line x1="324.552381" y1="275.786144" x2="292.477570" y2="276.521059"  fill="none" stroke ="blue" stroke-width="1" />
<line x1="291.709202" y1="276.755427" x2="255.218294" y2="266.502624"  fill="none" stroke ="blue" stroke-width="1" />
<line x1="255.926326" y1="266.894945" x2="224.397471" y2="246.177918"  fill="none" stroke ="blue" stroke-width="1" />
<line x1="224.071804" y1="246.033282" x2="199.109840" y2="215.450897"  fill="none" stroke ="blue" stroke-width="1" />
<line x1="199.804678" y1="215.801175" x2="186.967423" y2="186.163827"  fill="none" stroke ="blue" stroke-width="1" />
<line x1="187.156967" y1="188.674129" x2="181.558311" y2="145.492440"  fill="none" stroke ="blue" stroke-width="1" />
<line x1="182.129850" y1="145.151544" x2="186.387814" y2="116.189469"  fill="none" stroke ="blue" stroke-width="1" />
<line x1="186.028517" y1="116.514978" x2="198.678965" y2="84.774217"  fill="none" stroke ="blue" stroke-width="1" />
<line x1="198.271431" y1="85.072531" x2="220.797519" y2="54.720809"  fill="none" stroke ="blue" stroke-width="1" />
<line x1="221.222499" y1="54.133209" x2="254.393385" y2="29.037314"  fill="none" stroke ="blue" stroke-width="1" />
<line x1="254.102679" y1="29.468464" x2="289.812116" y2="15.714098"  fill="none" stroke ="blue" stroke-width="1" />
<line x1="289.422823" y1="15.547909" x2="333.538251" y2="11.971886"  fill="none" stroke ="blue" stroke-width="1" />
<line x1="334.402236" y1="11.920326" x2="379.519945" y2="22.414247"  fill="none" stroke ="blue" stroke-width="1" />
<line x1="378.212420" y1="21.998228" x2="414.740888" y2="43.082665"  fill="none" stroke ="blue" stroke-width="1" />
<line x1="414.856947" y1="43.140190" x2="442.301019" y2="70.706999"  fill="none" stroke ="blue" stroke-width="1" />
<line x1="442.572984" y1="71.055332" x2="461.433775" y2="102.539672"  fill="none" stroke ="blue" stroke-width="1" />
<line x1="461.467201" y1="102.208575" x2="473.431905" y2="141.917903"  fill="none" stroke ="blue" stroke-width="1" />
<line x1="473.857193" y1="140.500277" x2="473.814513" y2="195.501020"  fill="none" stroke ="blue" stroke-width="1" />
<line x1="473.396100" y1="194.084265" x2="460.730592" y2="235.187335"  fill="none" stroke ="blue" stroke-width="1" />
<line x1="461.136915" y1="235.217171" x2="434.326800" y2="276.387211"  fill="none" stroke ="blue" stroke-width="1" />
<line x1="433.737031" y1="276.778195" x2="377.016377" y2="325.106052"  fill="none" stroke ="blue" stroke-width="1" />
<line x1="350.928188" y1="267.997842" x2="322.929340" y2="276.001871"  fill="none" stroke ="blue" stroke-width="1" />
<line x1="377.871399" y1="252.118930" x2="350.078021" y2="268.796779"  fill="none" stroke ="blue" stroke-width="1" />
<line x1="453.474944" y1="555.745094" x2="494.503315" y2="556.202976"  fill="none" stroke ="blue" stroke-width="1" />
<line x1="494.807604" y1="555.548767" x2="525.782672" y2="546.463763"  fill="none" stroke ="blue" stroke-width="1" />
<line x1="525.812982" y1="546.598627" x2="555.286549" y2="528.158827"  fill="none" stroke ="blue" stroke-width="1" />
<line x1="555.704688" y1="527.799651" x2="578.764286" y2="501.613326"  fill="none" stroke ="blue" stroke-width="1" />
<line x1="578.726929" y1="501.122359" x2="590.907441" y2="476.187526"  fill="none" stroke ="blue" stroke-width="1" />
<line x1="591.296359" y1="476.639282" x2="597.812997" y2="439.379844"  fill="none" stroke ="blue" stroke-width="1" />
<line x1="597.549406" y1="438.630577" x2="593.124046" y2="406.414279"  fill="none" stroke ="blue" stroke-width="1" />
<line x1="592.915380" y1="406.899726" x2="582.764012" y2="382.963922"  fill="none" stroke ="blue" stroke-width="1" />
<line x1="583.363036" y1="382.614570" x2="559.210967" y2="353.741776"  fill="none" stroke ="blue" stroke-width="1" />
<line x1="558.501759" y1="353.497123" x2="531.444642" y2="336.954905"  fill="none" stroke ="blue" stroke-width="1" />
<line x1="537.726620" y1="339.779471" x2="509.385039" y2="330.865514"  fill="none" stroke ="blue" stroke-width="1" />
<line x1="508.506375" y1="330.462689" x2="474.494622" y2="330.687915"  fill="none" stroke ="blue" stroke-width="1" />
<line x1="474.839515" y1="330.694309" x2="443.389561" y2="342.198072"  fill="none" stroke ="blue" stroke-width="1" />
<line x1="444.766739" y1="340.807320" x2="416.916568" y2="364.979944"  fill="none" stroke ="blue" stroke-width="1" />
<line x1="416.810188" y1="365.675257" x2="402.771085" y2="390.523160"  fill="none" stroke ="blue" stroke-width="1" />
<line x1="405.817620" y1="383.309001" x2="398.487691" y2="409.496555"  fill="none" stroke ="blue" stroke-width="1" />
<line x1="398.431116" y1="409.477131" x2="399.045971" y2="434.511151"  fill="none" stroke ="blue" stroke-width="1" />
<line x1="399.061447" y1="434.983837" x2="407.126189" y2="458.962062"  fill="none" stroke ="blue" stroke-width="1" />
<line x1="406.023096" y1="458.090080" x2="424.693676" y2="481.915509"  fill="none" stroke ="blue" stroke-width="1" />
<line x1="424.824516" y1="481.978156" x2="447.512939" y2="496.087262"  fill="none" stroke ="blue" stroke-width="1" />
<line x1="443.315223" y1="494.155489" x2="465.262571" y2="500.342270"  fill="none" stroke ="blue" stroke-width="1" />
<line x1="291.497518" y1="248.384639" x2="323.547224" y2="247.695155"  fill="none" stroke ="blue" stroke-width="1" />
<line x1="323.204001" y1="247.732368" x2="349.866783" y2="237.451200"  fill="none" stroke ="blue" stroke-width="1" />
<line x1="349.906189" y1="237.807750" x2="373.039928" y2="217.963659"  fill="none" stroke ="blue" stroke-width="1" />
<line x1="373.260267" y1="217.361423" x2="385.980529" y2="195.355814"  fill="none" stroke ="blue" stroke-width="1" />
<line x1="385.426198" y1="197.686443" x2="391.231243" y2="168.848497"  fill="none" stroke ="blue" stroke-width="1" />
<line x1="390.943087" y1="168.574378" x2="388.099996" y2="147.286315"  fill="none" stroke ="blue" stroke-width="1" />
<line x1="388.587807" y1="147.919917" x2="379.067486" y2="127.238765"  fill="none" stroke ="blue" stroke-width="1" />
<line x1="381.003090" y1="128.964969" x2="363.121073" y2="109.854570"  fill="none" stroke ="blue" stroke-width="1" />
<line x1="362.833231" y1="109.720442" x2="345.255508" y2="100.117132"  fill="none" stroke ="blue" stroke-width="1" />
<line x1="347.664081" y1="100.632319" x2="323.397242" y2="96.043397"  fill="none" stroke ="blue" stroke-width="1" />
<line x1="322.616473" y1="96.079963" x2="299.349889" y2="100.752536"  fill="none" stroke ="blue" stroke-width="1" />
<line x1="301.274220" y1="99.722359" x2="277.787872" y2="115.917475"  fill="none" stroke ="blue" stroke-width="1" />
<line x1="278.961563" y1="115.632143" x2="267.933927" y2="135.180669"  fill="none" stroke ="blue" stroke-width="1" />
<line x1="268.320712" y1="241.103577" x2="293.750332" y2="248.657251"  fill="none" stroke ="blue" stroke-width="1" />
<line x1="239.694693" y1="222.215772" x2="268.757780" y2="242.123673"  fill="none" stroke ="blue" stroke-width="1" />
<line x1="221.451553" y1="197.273802" x2="239.390972" y2="221.580468"  fill="none" stroke ="blue" stroke-width="1" />
<line x1="213.066286" y1="174.035477" x2="221.912050" y2="197.719593"  fill="none" stroke ="blue" stroke-width="1" />
<line x1="210.464572" y1="134.501673" x2="212.355710" y2="174.554030"  fill="none" stroke ="blue" stroke-width="1" />
<line x1="220.444555" y1="103.483141" x2="210.861049" y2="135.001661"  fill="none" stroke ="blue" stroke-width="1" />
<line x1="371.713366" y1="442.534534" x2="370.217823" y2="408.468487"  fill="none" stroke ="blue" stroke-width="1" />
<line x1="370.103468" y1="407.668310" x2="380.026681" y2="372.089084"  fill="none" stroke ="blue" stroke-width="1" />
<line x1="380.147207" y1="371.964043" x2="398.959523" y2="343.147164"  fill="none" stroke ="blue" stroke-width="1" />
<line x1="398.886225" y1="342.961219" x2="427.746135" y2="318.793927"  fill="none" stroke ="blue" stroke-width="1" />
<line x1="426.257091" y1="319.947587" x2="458.700357" y2="305.681490"  fill="none" stroke ="blue" stroke-width="1" />
<line x1="458.397267" y1="305.563574" x2="498.463575" y2="301.167979"  fill="none" stroke ="blue" stroke-width="1" />
<line x1="498.411607" y1="300.908799" x2="539.852573" y2="309.869428"  fill="none" stroke ="blue" stroke-width="1" />
<line x1="539.432524" y1="309.857144" x2="572.118451" y2="328.410457"  fill="none" stroke ="blue" stroke-width="1" />
<line x1="572.661499" y1="328.348541" x2="602.230214" y2="359.877350"  fill="none" stroke ="blue" stroke-width="1" />
<line x1="602.090031" y1="360.210040" x2="619.452539" y2="395.540460"  fill="none" stroke ="blue" stroke-width="1" />
<line x1="618.664271" y1="392.309823" x2="626.138752" y2="438.068976"  fill="none" stroke ="blue" stroke-width="1" />
<line x1="625.768990" y1="438.399437" x2="620.489942" y2="476.773751"  fill="none" stroke ="blue" stroke-width="1" />
<line x1="621.024031" y1="475.299712" x2="606.462201" y2="509.904893"  fill="none" stroke ="blue" stroke-width="1" />
<line x1="606.700984" y1="509.887732" x2="582.855591" y2="541.006204"  fill="none" stroke ="blue" stroke-width="1" />
<line x1="582.469988" y1="541.460252" x2="548.793146" y2="566.888242"  fill="none" stroke ="blue" stroke-width="1" />
<line x1="550.793915" y1="565.175328" x2="520.339775" y2="578.429546"  fill="none" stroke ="blue" stroke-width="1" />
<line x1="521.654326" y1="578.429539" x2="478.515220" y2="585.591671"  fill="none" stroke ="blue" stroke-width="1" />
<line x1="477.528383" y1="585.184639" x2="443.355188" y2="582.109000"  fill="none" stroke ="blue" stroke-width="1" />
<line x1="442.620421" y1="582.150040" x2="404.922524" y2="569.178227"  fill="none" stroke ="blue" stroke-width="1" />
<line x1="405.804957" y1="570.049501" x2="368.362344" y2="544.703352"  fill="none" stroke ="blue" stroke-width="1" />
<line x1="367.993606" y1="544.069362" x2="342.264383" y2="514.577993"  fill="none" stroke ="blue" stroke-width="1" />
<line x1="341.864851" y1="514.317941" x2="321.496725" y2="473.499624"  fill="none" stroke ="blue" stroke-width="1" />
<line x1="322.849196" y1="478.805857" x2="308.737581" y2="402.641259"  fill="none" stroke ="blue" stroke-width="1" />
<line x1="317.461584" y1="220.538973" x2="288.464253" y2="219.466795"  fill="none" stroke ="blue" stroke-width="1" />
<line x1="288.630056" y1="219.196927" x2="263.961509" y2="206.550390"  fill="none" stroke ="blue" stroke-width="1" />
<line x1="267.389231" y1="209.414322" x2="249.810795" y2="190.031992"  fill="none" stroke ="blue" stroke-width="1" />
<line x1="249.584936" y1="189.461651" x2="241.273622" y2="171.053718"  fill="none" stroke ="blue" stroke-width="1" />
<line x1="241.639534" y1="174.608497" x2="237.713643" y2="143.473062"  fill="none" stroke ="blue" stroke-width="1" />
<line x1="238.118440" y1="145.182885" x2="243.987828" y2="119.611973"  fill="none" stroke ="blue" stroke-width="1" />
<line x1="242.922324" y1="120.781448" x2="260.763902" y2="94.009445"  fill="none" stroke ="blue" stroke-width="1" />
<line x1="260.952180" y1="94.101079" x2="281.246652" y2="78.833936"  fill="none" stroke ="blue" stroke-width="1" />
<line x1="281.302178" y1="78.993172" x2="301.029088" y2="71.293501"  fill="none" stroke ="blue" stroke-width="1" />
<line x1="300.446608" y1="70.603403" x2="336.497416" y2="68.456600"  fill="none" stroke ="blue" stroke-width="1" />
<line x1="335.063862" y1="68.667004" x2="365.632167" y2="78.070352"  fill="none" stroke ="blue" stroke-width="1" />
<line x1="364.279869" y1="76.781636" x2="394.547470" y2="100.439267"  fill="none" stroke ="blue" stroke-width="1" />
<line x1="394.723175" y1="100.976852" x2="412.203851" y2="129.454096"  fill="none" stroke ="blue" stroke-width="1" />
<line x1="409.472773" y1="123.224373" x2="418.346766" y2="154.543418"  fill="none" stroke ="blue" stroke-width="1" />
<line x1="418.372495" y1="154.472932" x2="417.626410" y2="185.551048"  fill="none" stroke ="blue" stroke-width="1" />
<line x1="417.927353" y1="185.301032" x2="406.498457" y2="218.194370"  fill="none" stroke ="blue" stroke-width="1" />
<line x1="407.954548" y1="216.090802" x2="386.590843" y2="244.568151"  fill="none" stroke ="blue" stroke-width="1" />
<line x1="336.275114" y1="212.909227" x2="315.273105" y2="220.903951"  fill="none" stroke ="blue" stroke-width="1" />
<line x1="352.506310" y1="198.624126" x2="336.111738" y2="213.300436"  fill="none" stroke ="blue" stroke-width="1" />
<line x1="293.475657" y1="304.933295" x2="331.491421" y2="303.300282"  fill="none" stroke ="blue" stroke-width="1" />
<line x1="329.215246" y1="303.535827" x2="362.827514" y2="293.608959"  fill="none" stroke ="blue" stroke-width="1" />
<line x1="362.929003" y1="293.849221" x2="397.198120" y2="273.003722"  fill="none" stroke ="blue" stroke-width="1" />
<line x1="397.625167" y1="272.612459" x2="425.096957" y2="242.036349"  fill="none" stroke ="blue" stroke-width="1" />
<line x1="424.960589" y1="241.242971" x2="438.756555" y2="214.121825"  fill="none" stroke ="blue" stroke-width="1" />
<line x1="439.419322" y1="213.676900" x2="447.533916" y2="171.506526"  fill="none" stroke ="blue" stroke-width="1" />
<line x1="447.332075" y1="170.520927" x2="442.561764" y2="132.243056"  fill="none" stroke ="blue" stroke-width="1" />
<line x1="442.918088" y1="133.741916" x2="430.722940" y2="104.407318"  fill="none" stroke ="blue" stroke-width="1" />
<line x1="431.190364" y1="103.751487" x2="403.606261" y2="69.789294"  fill="none" stroke ="blue" stroke-width="1" />
<line x1="403.242215" y1="69.905268" x2="371.596619" y2="49.775987"  fill="none" stroke ="blue" stroke-width="1" />
<line x1="378.762390" y1="53.831474" x2="356.978285" y2="45.281411"  fill="none" stroke ="blue" stroke-width="1" />
<line x1="356.900724" y1="44.895726" x2="326.542400" y2="40.224442"  fill="none" stroke ="blue" stroke-width="1" />
<line x1="326.552137" y1="39.918869" x2="292.212857" y2="44.193077"  fill="none" stroke ="blue" stroke-width="1" />
<line x1="292.684588" y1="43.737041" x2="258.137369" y2="59.715974"  fill="none" stroke ="blue" stroke-width="1" />
<line x1="257.745585" y1="59.750368" x2="229.978066" y2="86.987378"  fill="none" stroke ="blue" stroke-width="1" />
<line x1="230.278206" y1="87.957648" x2="221.231059" y2="103.341841"  fill="none" stroke ="blue" stroke-width="1" />
<line x1="257.133512" y1="297.193396" x2="292.969943" y2="304.949183"  fill="none" stroke ="blue" stroke-width="1" />
<line x1="221.580244" y1="282.298728" x2="258.146965" y2="296.877242"  fill="none" stroke ="blue" stroke-width="1" />
<line x1="361.057249" y1="153.442455" x2="363.132417" y2="173.537959"  fill="none" stroke ="blue" stroke-width="1" />
<line x1="363.022345" y1="170.908886" x2="357.993374" y2="189.632515"  fill="none" stroke ="blue" stroke-width="1" />
<line x1="358.529578" y1="187.917477" x2="352.086260" y2="198.651363"  fill="none" stroke ="blue" stroke-width="1" />
<line x1="352.002446" y1="137.215930" x2="361.950152" y2="154.810869"  fill="none" stroke ="blue" stroke-width="1" />
<line x1="330.532504" y1="123.446336" x2="353.563101" y2="137.395820"  fill="none" stroke ="blue" stroke-width="1" />
<line x1="318.449694" y1="124.081761" x2="331.524869" y2="125.212408"  fill="none" stroke ="blue" stroke-width="1" />
<line x1="305.324367" y1="128.987028" x2="319.976313" y2="123.970461"  fill="none" stroke ="blue" stroke-width="1" />
<line x1="293.833152" y1="143.217351" x2="305.768659" y2="127.706734"  fill="none" stroke ="blue" stroke-width="1" />
<line x1="294.512386" y1="158.548737" x2="293.769107" y2="143.486720"  fill="none" stroke ="blue" stroke-width="1" />
<line x1="303.880617" y1="168.128857" x2="294.008210" y2="158.004440"  fill="none" stroke ="blue" stroke-width="1" />
<line x1="310.478409" y1="167.125725" x2="303.486733" y2="166.884469"  fill="none" stroke ="blue" stroke-width="1" />
<line x1="316.045556" y1="162.938904" x2="309.976855" y2="167.854080"  fill="none" stroke ="blue" stroke-width="1" />
<line x1="44.301049" y1="404.339681" x2="41.663829" y2="440.511944"  fill="none" stroke ="blue" stroke-width="1" />
<line x1="41.238943" y1="437.354000" x2="47.396806" y2="468.520389"  fill="none" stroke ="blue" stroke-width="1" />
<line x1="46.904416" y1="468.837359" x2="64.918512" y2="503.799609"  fill="none" stroke ="blue" stroke-width="1" />
<line x1="65.032558" y1="503.943420" x2="92.682236" y2="530.399756"  fill="none" stroke ="blue" stroke-width="1" />
<line x1="93.145414" y1="530.209239" x2="120.745972" y2="544.008199"  fill="none" stroke ="blue" stroke-width="1" />
<line x1="118.314200" y1="543.568583" x2="154.607949" y2="549.879156"  fill="none" stroke ="blue" stroke-width="1" />
<line x1="155.382816" y1="549.656454" x2="185.768847" y2="545.435293"  fill="none" stroke ="blue" stroke-width="1" />
<line x1="185.247649" y1="545.968969" x2="215.923628" y2="531.391456"  fill="none" stroke ="blue" stroke-width="1" />
<line x1="216.433561" y1="531.433078" x2="242.527338" y2="505.527537"  fill="none" stroke ="blue" stroke-width="1" />
<line x1="242.407286" y1="504.953508" x2="254.809607" y2="480.154964"  fill="none" stroke ="blue" stroke-width="1" />
<line x1="254.267874" y1="482.644754" x2="259.900780" y2="452.764066"  fill="none" stroke ="blue" stroke-width="1" />
<line x1="259.799562" y1="452.570952" x2="257.252252" y2="427.423800"  fill="none" stroke ="blue" stroke-width="1" />
<line x1="257.673664" y1="427.842861" x2="246.560925" y2="401.059804"  fill="none" stroke ="blue" stroke-width="1" />
<line x1="248.310783" y1="404.142557" x2="235.234398" y2="386.699107"  fill="none" stroke ="blue" stroke-width="1" />
<line x1="235.204568" y1="385.898449" x2="209.337501" y2="366.719163"  fill="none" stroke ="blue" stroke-width="1" />
<line x1="214.593684" y1="370.270587" x2="195.859300" y2="362.620147"  fill="none" stroke ="blue" stroke-width="1" />
<line x1="195.536557" y1="362.176399" x2="170.405405" y2="359.337346"  fill="none" stroke ="blue" stroke-width="1" />
<line x1="169.651153" y1="359.158826" x2="141.307654" y2="365.661631"  fill="none" stroke ="blue" stroke-width="1" />
<line x1="143.348566" y1="364.763052" x2="119.072821" y2="380.855596"  fill="none" stroke ="blue" stroke-width="1" />
<line x1="118.999205" y1="380.848193" x2="102.970673" y2="403.828293"  fill="none" stroke ="blue" stroke-width="1" />
<line x1="106.047205" y1="398.341590" x2="98.847257" y2="418.921791"  fill="none" stroke ="blue" stroke-width="1" />
<line x1="202.668913" y1="459.513447" x2="203.947193" y2="443.455993"  fill="none" stroke ="blue" stroke-width="1" />
<line x1="203.822311" y1="446.138322" x2="199.981154" y2="432.094875"  fill="none" stroke ="blue" stroke-width="1" />
<line x1="201.103154" y1="432.850468" x2="188.576520" y2="418.666157"  fill="none" stroke ="blue" stroke-width="1" />
<line x1="190.968538" y1="419.844846" x2="170.879844" y2="414.158169"  fill="none" stroke ="blue" stroke-width="1" />
<line x1="170.898385" y1="414.592241" x2="161.345550" y2="418.076549"  fill="none" stroke ="blue" stroke-width="1" />
<line x1="163.145988" y1="416.207618" x2="155.842421" y2="422.875089"  fill="none" stroke ="blue" stroke-width="1" />
<line x1="155.244721" y1="422.760033" x2="151.697796" y2="432.918233"  fill="none" stroke ="blue" stroke-width="1" />
<line x1="151.706263" y1="433.012731" x2="155.045652" y2="441.279584"  fill="none" stroke ="blue" stroke-width="1" />
<line x1="155.483195" y1="440.963615" x2="159.938515" y2="443.814756"  fill="none" stroke ="blue" stroke-width="1" />
<line x1="159.346189" y1="442.374672" x2="162.597352" y2="442.946387"  fill="none" stroke ="blue" stroke-width="1" />
<line x1="162.690334" y1="442.804662" x2="167.848053" y2="436.798906"  fill="none" stroke ="blue" stroke-width="1" />
<line x1="194.424021" y1="475.972150" x2="202.968430" y2="459.250329"  fill="none" stroke ="blue" stroke-width="1" />
<line x1="162.572723" y1="577.588938" x2="126.324747" y2="574.695531"  fill="none" stroke ="blue" stroke-width="1" />
<line x1="125.773864" y1="574.793277" x2="86.138087" y2="559.433939"  fill="none" stroke ="blue" stroke-width="1" />
<line x1="88.712737" y1="561.225328" x2="55.640164" y2="535.610162"  fill="none" stroke ="blue" stroke-width="1" />
<line x1="55.350703" y1="535.609669" x2="30.016265" y2="501.120768"  fill="none" stroke ="blue" stroke-width="1" />
<line x1="30.793748" y1="501.772688" x2="17.812429" y2="468.151582"  fill="none" stroke ="blue" stroke-width="1" />
<line x1="17.788227" y1="468.582261" x2="13.186753" y2="428.767346"  fill="none" stroke ="blue" stroke-width="1" />
<line x1="12.945623" y1="428.576170" x2="20.702915" y2="383.192828"  fill="none" stroke ="blue" stroke-width="1" />
<line x1="20.841993" y1="383.706039" x2="37.663443" y2="348.578267"  fill="none" stroke ="blue" stroke-width="1" />
<line x1="37.877287" y1="347.970588" x2="64.576976" y2="316.565443"  fill="none" stroke ="blue" stroke-width="1" />
<line x1="64.925172" y1="316.124695" x2="100.691723" y2="291.781694"  fill="none" stroke ="blue" stroke-width="1" />
<line x1="101.251186" y1="291.802761" x2="137.870172" y2="278.735062"  fill="none" stroke ="blue" stroke-width="1" />
<line x1="137.425663" y1="278.510302" x2="184.535442" y2="274.971865"  fill="none" stroke ="blue" stroke-width="1" />
<line x1="185.332662" y1="275.421226" x2="221.413675" y2="281.975237"  fill="none" stroke ="blue" stroke-width="1" />
<line x1="200.658976" y1="570.298313" x2="163.346409" y2="577.728726"  fill="none" stroke ="blue" stroke-width="1" />
<line x1="237.969236" y1="550.361991" x2="200.188779" y2="570.928284"  fill="none" stroke ="blue" stroke-width="1" />
<line x1="262.803605" y1="524.778893" x2="238.026150" y2="550.035133"  fill="none" stroke ="blue" stroke-width="1" />
<line x1="281.290857" y1="491.384800" x2="263.155010" y2="524.309972"  fill="none" stroke ="blue" stroke-width="1" />
<line x1="288.120551" y1="456.417190" x2="279.541612" y2="495.727319"  fill="none" stroke ="blue" stroke-width="1" />
<line x1="285.125650" y1="422.448827" x2="287.833406" y2="455.554522"  fill="none" stroke ="blue" stroke-width="1" />
<line x1="271.848627" y1="388.362508" x2="285.067968" y2="421.881621"  fill="none" stroke ="blue" stroke-width="1" />
<line x1="244.257639" y1="355.709331" x2="273.467430" y2="389.528131"  fill="none" stroke ="blue" stroke-width="1" />
<line x1="210.395170" y1="336.683823" x2="243.473047" y2="355.547264"  fill="none" stroke ="blue" stroke-width="1" />
<line x1="184.697949" y1="331.700816" x2="216.715211" y2="339.631124"  fill="none" stroke ="blue" stroke-width="1" />
<line x1="495.499830" y1="527.813030" x2="453.499301" y2="527.790261"  fill="none" stroke ="blue" stroke-width="1" />
<line x1="454.014700" y1="526.880376" x2="428.371667" y2="517.865026"  fill="none" stroke ="blue" stroke-width="1" />
<line x1="427.721719" y1="518.216468" x2="396.974293" y2="494.172267"  fill="none" stroke ="blue" stroke-width="1" />
<line x1="397.023317" y1="494.175516" x2="376.689842" y2="461.382288"  fill="none" stroke ="blue" stroke-width="1" />
<line x1="378.340588" y1="462.548273" x2="372.372980" y2="442.841281"  fill="none" stroke ="blue" stroke-width="1" />
<line x1="524.072698" y1="515.983330" x2="492.390202" y2="528.215614"  fill="none" stroke ="blue" stroke-width="1" />
<line x1="548.912474" y1="494.980285" x2="523.156375" y2="517.099882"  fill="none" stroke ="blue" stroke-width="1" />
<line x1="564.215370" y1="469.328689" x2="548.739180" y2="495.042083"  fill="none" stroke ="blue" stroke-width="1" />
<line x1="568.204673" y1="452.020068" x2="560.995229" y2="475.651086"  fill="none" stroke ="blue" stroke-width="1" />
<line x1="568.167574" y1="421.491052" x2="568.569961" y2="451.512466"  fill="none" stroke ="blue" stroke-width="1" />
<line x1="559.409939" y1="398.179595" x2="568.124299" y2="422.928056"  fill="none" stroke ="blue" stroke-width="1" />
<line x1="542.831868" y1="377.028863" x2="560.958371" y2="399.928729"  fill="none" stroke ="blue" stroke-width="1" />
<line x1="518.583823" y1="361.760895" x2="542.425650" y2="376.619302"  fill="none" stroke ="blue" stroke-width="1" />
<line x1="495.322039" y1="357.279482" x2="522.720382" y2="363.534712"  fill="none" stroke ="blue" stroke-width="1" />
<line x1="467.357663" y1="361.597765" x2="494.625573" y2="357.295972"  fill="none" stroke ="blue" stroke-width="1" />
<line x1="444.726851" y1="375.871564" x2="469.448740" y2="360.778117"  fill="none" stroke ="blue" stroke-width="1" />
<line x1="430.048846" y1="396.891115" x2="444.552946" y2="376.537730"  fill="none" stroke ="blue" stroke-width="1" />
<line x1="426.827192" y1="410.277216" x2="432.791390" y2="392.265360"  fill="none" stroke ="blue" stroke-width="1" />
<line x1="426.944064" y1="432.513246" x2="426.419036" y2="410.478102"  fill="none" stroke ="blue" stroke-width="1" />
<line x1="488.568689" y1="471.211350" x2="468.466440" y2="473.152445"  fill="none" stroke ="blue" stroke-width="1" />
<line x1="469.996268" y1="473.055270" x2="452.239561" y2="467.304105"  fill="none" stroke ="blue" stroke-width="1" />
<line x1="453.936461" y1="469.002058" x2="437.027051" y2="454.180429"  fill="none" stroke ="blue" stroke-width="1" />
<line x1="436.801032" y1="454.360660" x2="427.003054" y2="433.192895"  fill="none" stroke ="blue" stroke-width="1" />
<line x1="503.701346" y1="461.825647" x2="487.206072" y2="472.024616"  fill="none" stroke ="blue" stroke-width="1" />
<line x1="510.541634" y1="451.803452" x2="503.366218" y2="461.675958"  fill="none" stroke ="blue" stroke-width="1" />
<line x1="513.763612" y1="430.651125" x2="511.127267" y2="452.694617"  fill="none" stroke ="blue" stroke-width="1" />
<line x1="501.730820" y1="413.340412" x2="514.823187" y2="432.276550"  fill="none" stroke ="blue" stroke-width="1" />
<line x1="489.396467" y1="411.882734" x2="502.770372" y2="415.500513"  fill="none" stroke ="blue" stroke-width="1" />
<line x1="479.751140" y1="417.022223" x2="489.044559" y2="412.552954"  fill="none" stroke ="blue" stroke-width="1" />
<line x1="478.086493" y1="422.753358" x2="480.378545" y2="417.447533"  fill="none" stroke ="blue" stroke-width="1" />
<line x1="479.569805" y1="428.215127" x2="478.260326" y2="423.297537"  fill="none" stroke ="blue" stroke-width="1" />
<line x1="465.455083" y1="500.696164" x2="492.538154" y2="499.182806"  fill="none" stroke ="blue" stroke-width="1" />
<line x1="492.104197" y1="498.894161" x2="512.225496" y2="490.174054"  fill="none" stroke ="blue" stroke-width="1" />
<line x1="511.968965" y1="490.958759" x2="534.676253" y2="468.679641"  fill="none" stroke ="blue" stroke-width="1" />
<line x1="530.835322" y1="471.664174" x2="539.877689" y2="453.195316"  fill="none" stroke ="blue" stroke-width="1" />
<line x1="539.181327" y1="455.556717" x2="541.268775" y2="430.480752"  fill="none" stroke ="blue" stroke-width="1" />
<line x1="542.358862" y1="434.547122" x2="534.246922" y2="410.250623"  fill="none" stroke ="blue" stroke-width="1" />
<line x1="535.743895" y1="412.728346" x2="524.608512" y2="398.624781"  fill="none" stroke ="blue" stroke-width="1" />
<line x1="524.778801" y1="398.572004" x2="509.132696" y2="388.045968"  fill="none" stroke ="blue" stroke-width="1" />
<line x1="514.631729" y1="391.087492" x2="497.755972" y2="385.698429"  fill="none" stroke ="blue" stroke-width="1" />
<line x1="497.588179" y1="385.470276" x2="480.457028" y2="387.027155"  fill="none" stroke ="blue" stroke-width="1" />
<line x1="481.824260" y1="386.095088" x2="465.285756" y2="395.106815"  fill="none" stroke ="blue" stroke-width="1" />
<line x1="466.673394" y1="393.986537" x2="457.367051" y2="405.218409"  fill="none" stroke ="blue" stroke-width="1" />
<line x1="456.813111" y1="404.233451" x2="453.169918" y2="427.289831"  fill="none" stroke ="blue" stroke-width="1" />
<line x1="452.977885" y1="424.287694" x2="458.419279" y2="436.535861"  fill="none" stroke ="blue" stroke-width="1" />
<line x1="456.691990" y1="436.224562" x2="470.805289" y2="446.062017"  fill="none" stroke ="blue" stroke-width="1" />
<line x1="161.509473" y1="521.395100" x2="134.459145" y2="518.952430"  fill="none" stroke ="blue" stroke-width="1" />
<line x1="134.823491" y1="518.987155" x2="108.683721" y2="507.096131"  fill="none" stroke ="blue" stroke-width="1" />
<line x1="108.726079" y1="507.313734" x2="86.462241" y2="485.538606"  fill="none" stroke ="blue" stroke-width="1" />
<line x1="87.567492" y1="486.980485" x2="73.846797" y2="460.351830"  fill="none" stroke ="blue" stroke-width="1" />
<line x1="75.428004" y1="465.700806" x2="69.433586" y2="433.699760"  fill="none" stroke ="blue" stroke-width="1" />
<line x1="69.163528" y1="433.605561" x2="74.611876" y2="399.358708"  fill="none" stroke ="blue" stroke-width="1" />
<line x1="73.932364" y1="400.743059" x2="91.550099" y2="369.403839"  fill="none" stroke ="blue" stroke-width="1" />
<line x1="91.952353" y1="369.015512" x2="117.121973" y2="346.929571"  fill="none" stroke ="blue" stroke-width="1" />
<line x1="116.188963" y1="347.823800" x2="141.824720" y2="336.031928"  fill="none" stroke ="blue" stroke-width="1" />
<line x1="141.378964" y1="335.312552" x2="184.441209" y2="330.923221"  fill="none" stroke ="blue" stroke-width="1" />
<line x1="191.776769" y1="513.504848" x2="161.332082" y2="521.890352"  fill="none" stroke ="blue" stroke-width="1" />
<line x1="212.463315" y1="497.831144" x2="188.344592" y2="515.285252"  fill="none" stroke ="blue" stroke-width="1" />
<line x1="228.364923" y1="473.412062" x2="212.628636" y2="497.583745"  fill="none" stroke ="blue" stroke-width="1" />
<line x1="231.551232" y1="457.212264" x2="224.127676" y2="481.690357"  fill="none" stroke ="blue" stroke-width="1" />
<line x1="230.093339" y1="433.463261" x2="231.523492" y2="456.560464"  fill="none" stroke ="blue" stroke-width="1" />
<line x1="221.951761" y1="414.734144" x2="230.925327" y2="435.745433"  fill="none" stroke ="blue" stroke-width="1" />
<line x1="201.721509" y1="393.286044" x2="222.833751" y2="415.143532"  fill="none" stroke ="blue" stroke-width="1" />
<line x1="188.141704" y1="389.157090" x2="204.704688" y2="397.071645"  fill="none" stroke ="blue" stroke-width="1" />
<line x1="169.411601" y1="387.264483" x2="190.590944" y2="389.713507"  fill="none" stroke ="blue" stroke-width="1" />
<line x1="167.615889" y1="464.310689" x2="147.569999" y2="465.593685"  fill="none" stroke ="blue" stroke-width="1" />
<line x1="149.778741" y1="466.047131" x2="135.607769" y2="457.324908"  fill="none" stroke ="blue" stroke-width="1" />
<line x1="134.353633" y1="457.560433" x2="124.431221" y2="433.528398"  fill="none" stroke ="blue" stroke-width="1" />
<line x1="125.459414" y1="432.656382" x2="127.944627" y2="417.409475"  fill="none" stroke ="blue" stroke-width="1" />
<line x1="126.838151" y1="419.484597" x2="137.738021" y2="401.645433"  fill="none" stroke ="blue" stroke-width="1" />
<line x1="138.189287" y1="401.507175" x2="153.065471" y2="391.326257"  fill="none" stroke ="blue" stroke-width="1" />
<line x1="150.240381" y1="392.569621" x2="168.752246" y2="387.403959"  fill="none" stroke ="blue" stroke-width="1" />
<line x1="176.791047" y1="453.668979" x2="166.268463" y2="465.290355"  fill="none" stroke ="blue" stroke-width="1" />
<line x1="176.796244" y1="443.495701" x2="176.941534" y2="453.508104"  fill="none" stroke ="blue" stroke-width="1" />
<line x1="173.550668" y1="439.198964" x2="177.821481" y2="444.999573"  fill="none" stroke ="blue" stroke-width="1" />
<line x1="169.931913" y1="437.452866" x2="173.464761" y2="439.559108"  fill="none" stroke ="blue" stroke-width="1" />
<line x1="168.491673" y1="437.501589" x2="169.516543" y2="437.510110"  fill="none" stroke ="blue" stroke-width="1" />
<line x1="385.584047" y1="244.482256" x2="377.683428" y2="251.592680"  fill="none" stroke ="blue" stroke-width="1" />
</svg>
