<?xml version="1.0" standalone="no"?>
<!DOCTYPE svg PUBLIC "-//W3C//DTD SVG 1.1//EN"
 "http://www.w3.org/Graphics/SVG/1.1/DTD/svg11.dtd">
<svg width="640px" height="480px" version="1.1"
 xmlns="http://www.w3.org/2000/svg" xmlns:xlink="http://www.w3.org/1999/xlink">
<path d="M 279.075317,428.498768 A77.447498,77.447498 0.000000 0,1 300.863099,425.547286" fill="none" stroke ="red" stroke-width="1" />
<path d="M 297.869137,426.951282 A29.586494,29.586494 0.000000 0,1 309.861178,420.775689" fill="none" stroke ="red" stroke-width="1" />
<path d="M 41.703212,315.207522 A48.590835,48.590835 0.000000 0,1 54.251074,313.634966" fill="none" stroke ="red" stroke-width="1" />
<path d="M 233.320304,425.359537 A41.868050,41.868050 0.000000 0,1 246.085706,425.320818" fill="none" stroke ="red" stroke-width="1" />
<path d="M 616.185472,249.168944 A24.264946,11.124099 -88.096030 0,1 617.408652,200.945452" fill="none" stroke ="red" stroke-width="1" />
<path d="M 536.377428,167.992887 A5.378201,5.378201 0.000000 0,1 543.086411,164.417694" fill="none" stroke ="red" stroke-width="1" />
<path d="M 546.012871,167.566359 A21.861892,8.576953 -86.699577 0,1 536.126975,205.878399" fill="none" stroke ="red" stroke-width="1" />
<path d="M 623.374634,203.029948 A22.834251,8.825103 -88.048841 0,1 622.146670,247.213981" fill="none" stroke ="red" stroke-width="1" />
<path d="M 619.663768,219.155242 A9.403919,9.403919 0.000000 0,1 619.480956,229.966448" fill="none" stroke ="red" stroke-width="1" />
<path d="M 114.515513,291.860518 A47.650144,47.650144 0.000000 0,1 139.959678,308.936007" fill="none" stroke ="red" stroke-width="1" />
<path d="M 623.035866,206.974960 A20.698828,9.410080 -89.155224 1,1 610.441713,237.830132" fill="none" stroke ="red" stroke-width="1" />
<path d="M 23.800911,294.363892 A532.966786,532.966786 0.000000 0,1 43.275472,313.882419" fill="none" stroke ="red" stroke-width="1" />
<path d="M 534.410068,204.668021 A43.980133,43.980133 0.000000 0,1 536.016528,168.240391" fill="none" stroke ="red" stroke-width="1" />
<ellipse transform="translate(617.930584 224.848026) rotate(-88.297249)" rx="13.659333" ry="6.416375" stroke="red" fill="none" stroke-width="1" />
<path d="M 611.874429,210.454501 A48.300426,14.812012 85.282801 0,1 622.100160,205.864652" fill="none" stroke ="red" stroke-width="1" />
<path d="M 624.774205,230.985184 A11.582975,6.873669 -87.808445 0,1 612.171894,236.930523" fill="none" stroke ="red" stroke-width="1" />
<path d="M 611.813895,236.697760 A17.756573,8.063979 -89.255224 1,1 625.099092,215.972129" fill="none" stroke ="red" stroke-width="1" />
<path d="M 450.231416,373.045751 A154.391869,99.766865 59.254090 0,1 558.007281,341.984099" fill="none" stroke ="red" stroke-width="1" />
<path d="M 154.347887,375.957026 A120.917323,120.917323 0.000000 0,1 154.685811,345.070958" fill="none" stroke ="red" stroke-width="1" />
<path d="M 277.056163,435.508662 A631.572962,631.572962 0.000000 0,1 333.957227,438.535137" fill="none" stroke ="red" stroke-width="1" />
<path d="M 331.902845,417.066664 A6.117795,6.117795 0.000000 0,1 325.981859,424.847834" fill="none" stroke ="red" stroke-width="1" />
<path d="M 635.920536,158.981595 A266.956888,266.956888 0.000000 0,1 635.458825,128.033788" fill="none" stroke ="red" stroke-width="1" />
<ellipse transform="translate(214.756281 105.805081) rotate(81.329431)" rx="5.313191" ry="4.779983" stroke="red" fill="none" stroke-width="1" />
<path d="M 359.839869,421.064476 A12.937770,12.937770 0.000000 0,1 348.254047,434.694695" fill="none" stroke ="red" stroke-width="1" />
<path d="M 401.986454,272.006597 A512.407439,512.407439 0.000000 0,1 421.969102,272.701943" fill="none" stroke ="red" stroke-width="1" />
<path d="M -0.150991,166.245681 A17.068972,17.068972 0.000000 0,1 10.321864,181.889949" fill="none" stroke ="red" stroke-width="1" />
<ellipse transform="translate(214.440443 105.754031) rotate(76.239553)" rx="23.088228" ry="21.853390" stroke="red" fill="none" stroke-width="1" />
<ellipse transform="translate(214.728530 105.740651) rotate(83.782321)" rx="15.732733" ry="14.198752" stroke="red" fill="none" stroke-width="1" />
<ellipse transform="translate(214.717967 105.762686) rotate(83.322187)" rx="8.972094" ry="8.081796" stroke="red" fill="none" stroke-width="1" />
<ellipse transform="translate(214.727923 105.816047) rotate(82.504551)" rx="12.369478" ry="11.157699" stroke="red" fill="none" stroke-width="1" />
<ellipse transform="translate(214.704687 105.788287) rotate(83.019401)" rx="19.052257" ry="17.230910" stroke="red" fill="none" stroke-width="1" />
<path d="M 355.811499,343.382760 A20.700935,20.700935 0.000000 0,1 363.777163,358.919282" fill="none" stroke ="red" stroke-width="1" />
<path d="M 0.049031,169.817388 A10.064159,10.064159 0.000000 0,1 6.663375,182.679553" fill="none" stroke ="red" stroke-width="1" />
<path d="M 48.266884,275.160071 A12.268080,12.268080 0.000000 0,1 62.791366,275.843830" fill="none" stroke ="red" stroke-width="1" />
<path d="M 186.998077,133.084080 A265.440596,265.440596 0.000000 0,1 189.239113,109.863694" fill="none" stroke ="red" stroke-width="1" />
<path d="M 157.355153,464.868114 A4.565972,4.565972 0.000000 0,1 148.860313,464.731900" fill="none" stroke ="red" stroke-width="1" />
<path d="M 228.543571,389.178873 A61.906066,61.906066 0.000000 0,1 207.458929,394.110603" fill="none" stroke ="red" stroke-width="1" />
<path d="M 276.692047,436.891576 A32.743171,32.743171 0.000000 0,1 251.164082,437.429155" fill="none" stroke ="red" stroke-width="1" />
<path d="M 31.752722,236.637414 A9.871199,9.871199 0.000000 0,1 40.982773,244.824603" fill="none" stroke ="red" stroke-width="1" />
<path d="M 216.947767,279.560382 A221.740824,221.740824 0.000000 0,1 189.951447,282.372764" fill="none" stroke ="red" stroke-width="1" />
<path d="M 190.014664,96.147363 A324.770133,324.770133 0.000000 0,1 192.363228,79.057468" fill="none" stroke ="red" stroke-width="1" />
<path d="M 155.762566,315.653313 A5.590371,5.590371 0.000000 1,1 156.771275,326.595733" fill="none" stroke ="red" stroke-width="1" />
<path d="M 220.432805,475.866125 A4.768985,4.768985 0.000000 1,1 218.546952,466.566242" fill="none" stroke ="red" stroke-width="1" />
<path d="M 39.040562,253.551235 A12.157455,12.157455 0.000000 0,1 30.710185,258.191996" fill="none" stroke ="red" stroke-width="1" />
<path d="M 119.972358,270.627973 A13.289777,13.289777 0.000000 0,1 110.151446,270.599567" fill="none" stroke ="red" stroke-width="1" />
<path d="M 29.000351,240.997565 A11.707552,6.490027 0.122656 0,1 28.060950,253.678825" fill="none" stroke ="red" stroke-width="1" />
<path d="M 638.112988,373.784669 A211.506644,211.506644 0.000000 0,1 601.122810,368.720913" fill="none" stroke ="red" stroke-width="1" />
<path d="M 608.480414,295.070687 A10.072347,4.900054 -28.802405 0,1 617.081910,300.064470" fill="none" stroke ="red" stroke-width="1" />
<path d="M 236.529144,336.689611 A236.425747,236.425747 0.000000 0,1 240.934554,367.992372" fill="none" stroke ="red" stroke-width="1" />
<path d="M 197.083942,261.038856 A121.284680,121.284680 0.000000 0,1 229.956407,262.568976" fill="none" stroke ="red" stroke-width="1" />
<path d="M 563.114613,448.949789 A120.120296,120.120296 0.000000 0,1 595.026364,396.189048" fill="none" stroke ="red" stroke-width="1" />
<path d="M 597.661160,297.569391 A4.211950,3.497037 -62.063189 1,1 602.789118,291.147118" fill="none" stroke ="red" stroke-width="1" />
<line x1="160.737145" y1="264.148540" x2="141.453538" y2="260.764780"  fill="none" stroke ="blue" stroke-width="1" />
<line x1="626.345454" y1="168.609170" x2="631.904161" y2="74.642221"  fill="none" stroke ="blue" stroke-width="1" />
<line x1="440.552738" y1="408.326898" x2="445.633356" y2="380.524369"  fill="none" stroke ="blue" stroke-width="1" />
<line x1="141.555472" y1="259.595891" x2="151.454484" y2="47.404574"  fill="none" stroke ="blue" stroke-width="1" />
<line x1="3.927196" y1="34.448328" x2="1.230731" y2="116.524007"  fill="none" stroke ="blue" stroke-width="1" />
<line x1="345.333757" y1="344.237020" x2="333.503960" y2="357.619525"  fill="none" stroke ="blue" stroke-width="1" />
<line x1="336.850861" y1="355.340751" x2="335.060778" y2="362.637572"  fill="none" stroke ="blue" stroke-width="1" />
<line x1="336.025620" y1="362.364468" x2="335.635864" y2="366.604414"  fill="none" stroke ="blue" stroke-width="1" />
<line x1="335.132805" y1="366.388027" x2="334.129900" y2="378.633489"  fill="none" stroke ="blue" stroke-width="1" />
<line x1="8.819926" y1="19.585389" x2="4.866291" y2="34.398469"  fill="none" stroke ="blue" stroke-width="1" />
<line x1="7.984719" y1="7.544294" x2="7.627041" y2="19.533623"  fill="none" stroke ="blue" stroke-width="1" />
<line x1="7.020677" y1="3.155158" x2="9.035931" y2="7.705526"  fill="none" stroke ="blue" stroke-width="1" />
<line x1="540.292591" y1="279.322995" x2="544.353087" y2="251.625062"  fill="none" stroke ="blue" stroke-width="1" />
<line x1="186.137658" y1="417.368569" x2="169.366875" y2="429.680791"  fill="none" stroke ="blue" stroke-width="1" />
<line x1="199.694454" y1="405.913151" x2="188.289855" y2="402.134204"  fill="none" stroke ="blue" stroke-width="1" />
<line x1="266.500270" y1="403.682624" x2="207.497445" y2="403.769751"  fill="none" stroke ="blue" stroke-width="1" />
<line x1="270.455073" y1="432.331894" x2="279.788433" y2="429.837503"  fill="none" stroke ="blue" stroke-width="1" />
<line x1="246.833499" y1="426.622368" x2="272.210527" y2="431.129760"  fill="none" stroke ="blue" stroke-width="1" />
<line x1="195.284784" y1="408.105534" x2="221.524357" y2="417.431467"  fill="none" stroke ="blue" stroke-width="1" />
<line x1="221.099321" y1="417.709231" x2="234.442040" y2="426.168675"  fill="none" stroke ="blue" stroke-width="1" />
<line x1="545.167015" y1="251.149797" x2="549.114038" y2="247.098187"  fill="none" stroke ="blue" stroke-width="1" />
<line x1="92.493530" y1="317.251113" x2="155.476963" y2="315.613823"  fill="none" stroke ="blue" stroke-width="1" />
<line x1="54.424475" y1="314.018965" x2="94.722620" y2="316.022633"  fill="none" stroke ="blue" stroke-width="1" />
<line x1="176.381297" y1="429.514224" x2="194.495899" y2="428.431391"  fill="none" stroke ="blue" stroke-width="1" />
<line x1="548.177902" y1="248.160526" x2="638.906224" y2="259.144598"  fill="none" stroke ="blue" stroke-width="1" />
<line x1="273.001542" y1="402.074706" x2="260.062074" y2="390.851948"  fill="none" stroke ="blue" stroke-width="1" />
<line x1="440.092089" y1="444.530841" x2="439.656350" y2="410.510806"  fill="none" stroke ="blue" stroke-width="1" />
<line x1="212.368159" y1="368.287213" x2="188.697146" y2="364.322850"  fill="none" stroke ="blue" stroke-width="1" />
<line x1="308.151512" y1="414.255893" x2="330.552037" y2="417.088480"  fill="none" stroke ="blue" stroke-width="1" />
<line x1="287.838841" y1="408.195010" x2="311.989593" y2="414.465752"  fill="none" stroke ="blue" stroke-width="1" />
<line x1="311.767485" y1="391.442418" x2="299.327718" y2="389.825254"  fill="none" stroke ="blue" stroke-width="1" />
<line x1="300.086001" y1="389.890218" x2="295.637408" y2="391.034294"  fill="none" stroke ="blue" stroke-width="1" />
<line x1="308.538396" y1="418.246414" x2="281.255406" y2="414.115408"  fill="none" stroke ="blue" stroke-width="1" />
<line x1="281.244512" y1="414.503753" x2="273.558487" y2="408.759858"  fill="none" stroke ="blue" stroke-width="1" />
<line x1="332.789147" y1="415.515917" x2="333.895871" y2="395.411694"  fill="none" stroke ="blue" stroke-width="1" />
<line x1="296.571965" y1="393.731631" x2="289.556552" y2="405.533616"  fill="none" stroke ="blue" stroke-width="1" />
<line x1="638.736190" y1="172.004934" x2="624.614689" y2="169.774026"  fill="none" stroke ="blue" stroke-width="1" />
<line x1="436.502733" y1="413.310793" x2="372.497839" y2="413.230876"  fill="none" stroke ="blue" stroke-width="1" />
<line x1="362.427123" y1="401.520595" x2="366.590033" y2="405.461282"  fill="none" stroke ="blue" stroke-width="1" />
<line x1="362.217483" y1="397.562440" x2="363.013788" y2="401.165435"  fill="none" stroke ="blue" stroke-width="1" />
<line x1="364.197675" y1="373.552663" x2="362.379341" y2="397.641859"  fill="none" stroke ="blue" stroke-width="1" />
<line x1="14.528543" y1="186.038936" x2="0.475299" y2="185.764399"  fill="none" stroke ="blue" stroke-width="1" />
<line x1="192.366837" y1="389.817725" x2="175.411370" y2="382.711470"  fill="none" stroke ="blue" stroke-width="1" />
<line x1="364.531371" y1="406.777803" x2="438.533067" y2="407.630608"  fill="none" stroke ="blue" stroke-width="1" />
<line x1="150.581982" y1="47.009121" x2="148.372884" y2="34.347704"  fill="none" stroke ="blue" stroke-width="1" />
<line x1="148.995342" y1="33.568755" x2="150.240495" y2="6.488068"  fill="none" stroke ="blue" stroke-width="1" />
<line x1="17.453922" y1="195.501815" x2="88.533526" y2="198.771078"  fill="none" stroke ="blue" stroke-width="1" />
<line x1="88.511322" y1="198.610465" x2="141.509419" y2="198.928026"  fill="none" stroke ="blue" stroke-width="1" />
<line x1="446.659450" y1="380.580003" x2="450.070025" y2="373.782523"  fill="none" stroke ="blue" stroke-width="1" />
<line x1="422.531301" y1="271.987525" x2="537.651540" y2="279.018942"  fill="none" stroke ="blue" stroke-width="1" />
<line x1="618.417506" y1="201.648764" x2="622.488289" y2="201.805047"  fill="none" stroke ="blue" stroke-width="1" />
<line x1="139.914558" y1="262.512974" x2="139.693742" y2="269.568656"  fill="none" stroke ="blue" stroke-width="1" />
<line x1="15.157595" y1="159.602107" x2="16.245294" y2="184.554693"  fill="none" stroke ="blue" stroke-width="1" />
<line x1="183.499582" y1="371.547445" x2="226.522673" y2="371.926480"  fill="none" stroke ="blue" stroke-width="1" />
<line x1="144.973795" y1="41.657711" x2="8.906626" y2="28.344195"  fill="none" stroke ="blue" stroke-width="1" />
<line x1="622.994979" y1="247.498919" x2="618.597211" y2="249.678078"  fill="none" stroke ="blue" stroke-width="1" />
<line x1="346.104943" y1="352.971590" x2="348.800094" y2="345.856121"  fill="none" stroke ="blue" stroke-width="1" />
<line x1="349.741012" y1="346.005771" x2="346.665143" y2="341.389953"  fill="none" stroke ="blue" stroke-width="1" />
<line x1="152.573215" y1="381.979022" x2="170.775853" y2="384.537092"  fill="none" stroke ="blue" stroke-width="1" />
<line x1="194.233098" y1="430.272457" x2="209.342243" y2="432.547639"  fill="none" stroke ="blue" stroke-width="1" />
<line x1="209.691523" y1="432.182434" x2="218.934834" y2="443.132958"  fill="none" stroke ="blue" stroke-width="1" />
<line x1="634.956268" y1="191.456126" x2="636.078619" y2="177.546689"  fill="none" stroke ="blue" stroke-width="1" />
<line x1="248.360479" y1="365.427509" x2="242.175582" y2="377.331443"  fill="none" stroke ="blue" stroke-width="1" />
<line x1="370.696676" y1="415.293761" x2="378.857662" y2="423.076322"  fill="none" stroke ="blue" stroke-width="1" />
<line x1="370.601543" y1="412.762626" x2="369.699170" y2="416.547485"  fill="none" stroke ="blue" stroke-width="1" />
<line x1="379.499020" y1="423.710756" x2="436.507089" y2="423.975906"  fill="none" stroke ="blue" stroke-width="1" />
<line x1="630.500932" y1="254.500064" x2="634.840627" y2="191.523472"  fill="none" stroke ="blue" stroke-width="1" />
<line x1="114.495901" y1="293.667748" x2="25.451326" y2="291.492114"  fill="none" stroke ="blue" stroke-width="1" />
<line x1="243.977544" y1="382.782304" x2="253.656171" y2="366.410005"  fill="none" stroke ="blue" stroke-width="1" />
<line x1="189.392561" y1="405.701368" x2="194.945881" y2="408.664300"  fill="none" stroke ="blue" stroke-width="1" />
<line x1="186.899685" y1="404.101877" x2="187.329760" y2="406.694150"  fill="none" stroke ="blue" stroke-width="1" />
<line x1="616.627986" y1="219.516714" x2="615.455561" y2="228.494196"  fill="none" stroke ="blue" stroke-width="1" />
<line x1="170.733171" y1="386.246671" x2="188.723262" y2="396.092042"  fill="none" stroke ="blue" stroke-width="1" />
<line x1="254.449040" y1="366.887103" x2="248.558509" y2="335.677699"  fill="none" stroke ="blue" stroke-width="1" />
<line x1="252.570247" y1="435.728585" x2="237.505144" y2="436.589962"  fill="none" stroke ="blue" stroke-width="1" />
<line x1="334.372115" y1="392.891830" x2="311.838007" y2="390.821329"  fill="none" stroke ="blue" stroke-width="1" />
<line x1="149.422395" y1="311.780754" x2="140.547644" y2="309.327637"  fill="none" stroke ="blue" stroke-width="1" />
<line x1="332.866200" y1="426.864563" x2="343.719431" y2="433.119240"  fill="none" stroke ="blue" stroke-width="1" />
<line x1="637.335781" y1="197.551690" x2="633.808700" y2="254.580939"  fill="none" stroke ="blue" stroke-width="1" />
<line x1="273.445297" y1="408.670809" x2="269.676052" y2="406.228317"  fill="none" stroke ="blue" stroke-width="1" />
<line x1="222.236800" y1="432.387086" x2="185.776188" y2="421.569139"  fill="none" stroke ="blue" stroke-width="1" />
<line x1="542.567302" y1="189.516451" x2="542.690822" y2="181.502941"  fill="none" stroke ="blue" stroke-width="1" />
<line x1="12.196011" y1="223.541010" x2="14.081896" y2="191.534286"  fill="none" stroke ="blue" stroke-width="1" />
<line x1="539.253074" y1="181.475856" x2="538.468796" y2="189.496949"  fill="none" stroke ="blue" stroke-width="1" />
<line x1="170.611172" y1="382.830138" x2="172.777590" y2="379.955558"  fill="none" stroke ="blue" stroke-width="1" />
<line x1="174.383354" y1="382.492270" x2="174.295849" y2="372.493035"  fill="none" stroke ="blue" stroke-width="1" />
<line x1="543.430520" y1="164.424938" x2="546.760206" y2="168.274962"  fill="none" stroke ="blue" stroke-width="1" />
<line x1="349.572559" y1="390.492453" x2="349.755498" y2="416.491166"  fill="none" stroke ="blue" stroke-width="1" />
<line x1="16.025386" y1="238.640919" x2="19.657056" y2="199.329744"  fill="none" stroke ="blue" stroke-width="1" />
<line x1="0.001930" y1="159.558367" x2="12.167834" y2="161.539643"  fill="none" stroke ="blue" stroke-width="1" />
<line x1="15.799719" y1="247.473209" x2="15.082362" y2="239.447944"  fill="none" stroke ="blue" stroke-width="1" />
<line x1="9.740739" y1="264.283753" x2="11.888566" y2="246.810248"  fill="none" stroke ="blue" stroke-width="1" />
<line x1="234.796281" y1="435.597144" x2="222.777888" y2="431.653192"  fill="none" stroke ="blue" stroke-width="1" />
<line x1="170.159079" y1="378.203314" x2="161.301409" y2="373.909690"  fill="none" stroke ="blue" stroke-width="1" />
<line x1="4.471182" y1="233.523346" x2="4.712004" y2="223.505096"  fill="none" stroke ="blue" stroke-width="1" />
<line x1="339.306392" y1="356.297841" x2="343.390911" y2="352.386093"  fill="none" stroke ="blue" stroke-width="1" />
<line x1="455.499134" y1="360.522939" x2="369.433011" y2="357.275263"  fill="none" stroke ="blue" stroke-width="1" />
<line x1="247.515846" y1="391.232352" x2="239.425793" y2="390.753374"  fill="none" stroke ="blue" stroke-width="1" />
<line x1="632.289537" y1="177.526942" x2="632.328447" y2="173.498343"  fill="none" stroke ="blue" stroke-width="1" />
<line x1="203.688124" y1="380.159936" x2="189.408016" y2="378.155232"  fill="none" stroke ="blue" stroke-width="1" />
<line x1="186.885452" y1="358.338986" x2="191.130018" y2="289.415631"  fill="none" stroke ="blue" stroke-width="1" />
<line x1="320.178239" y1="420.997361" x2="324.821004" y2="427.262106"  fill="none" stroke ="blue" stroke-width="1" />
<line x1="436.540790" y1="428.220547" x2="424.489277" y2="427.836338"  fill="none" stroke ="blue" stroke-width="1" />
<line x1="219.506840" y1="442.556681" x2="438.517078" y2="444.144684"  fill="none" stroke ="blue" stroke-width="1" />
<line x1="186.635511" y1="412.368246" x2="192.668750" y2="413.090638"  fill="none" stroke ="blue" stroke-width="1" />
<line x1="185.714788" y1="411.187312" x2="187.794306" y2="412.615747"  fill="none" stroke ="blue" stroke-width="1" />
<line x1="183.049122" y1="410.169052" x2="184.318636" y2="416.111474"  fill="none" stroke ="blue" stroke-width="1" />
<line x1="186.650655" y1="406.746264" x2="183.014322" y2="410.843857"  fill="none" stroke ="blue" stroke-width="1" />
<line x1="259.210391" y1="395.220715" x2="249.562712" y2="391.343936"  fill="none" stroke ="blue" stroke-width="1" />
<line x1="195.442423" y1="381.799113" x2="221.441528" y2="386.803760"  fill="none" stroke ="blue" stroke-width="1" />
<line x1="180.274345" y1="0.389091" x2="167.218441" y2="262.386305"  fill="none" stroke ="blue" stroke-width="1" />
<line x1="241.386933" y1="395.451908" x2="248.519681" y2="394.682436"  fill="none" stroke ="blue" stroke-width="1" />
<line x1="246.826899" y1="395.033109" x2="249.607955" y2="396.254113"  fill="none" stroke ="blue" stroke-width="1" />
<line x1="249.967335" y1="394.787730" x2="251.255406" y2="397.172293"  fill="none" stroke ="blue" stroke-width="1" />
<line x1="223.722803" y1="384.413337" x2="205.465166" y2="380.669892"  fill="none" stroke ="blue" stroke-width="1" />
<line x1="137.410685" y1="271.753256" x2="163.421115" y2="273.606914"  fill="none" stroke ="blue" stroke-width="1" />
<line x1="184.517488" y1="346.062237" x2="156.442447" y2="344.940664"  fill="none" stroke ="blue" stroke-width="1" />
<line x1="175.398996" y1="372.189769" x2="183.661132" y2="373.399605"  fill="none" stroke ="blue" stroke-width="1" />
<line x1="361.111555" y1="416.519130" x2="361.254265" y2="404.497083"  fill="none" stroke ="blue" stroke-width="1" />
<line x1="563.204918" y1="271.760128" x2="553.606615" y2="334.668842"  fill="none" stroke ="blue" stroke-width="1" />
<line x1="302.454970" y1="274.503986" x2="402.516843" y2="272.246587"  fill="none" stroke ="blue" stroke-width="1" />
<line x1="267.516002" y1="277.799335" x2="301.525727" y2="275.981254"  fill="none" stroke ="blue" stroke-width="1" />
<line x1="192.542421" y1="285.895800" x2="267.432398" y2="277.869251"  fill="none" stroke ="blue" stroke-width="1" />
<line x1="290.567631" y1="394.216000" x2="275.551543" y2="394.807810"  fill="none" stroke ="blue" stroke-width="1" />
<line x1="426.591514" y1="376.743569" x2="376.402044" y2="375.520861"  fill="none" stroke ="blue" stroke-width="1" />
<line x1="582.484228" y1="353.595605" x2="638.767132" y2="362.880750"  fill="none" stroke ="blue" stroke-width="1" />
<line x1="555.187061" y1="334.037034" x2="584.250390" y2="353.944579"  fill="none" stroke ="blue" stroke-width="1" />
<line x1="291.445891" y1="250.528882" x2="312.745222" y2="271.274908"  fill="none" stroke ="blue" stroke-width="1" />
<line x1="279.354416" y1="250.522597" x2="293.215833" y2="252.496011"  fill="none" stroke ="blue" stroke-width="1" />
<line x1="272.518797" y1="252.929241" x2="283.454035" y2="252.450368"  fill="none" stroke ="blue" stroke-width="1" />
<line x1="189.482657" y1="265.953249" x2="160.525053" y2="264.845241"  fill="none" stroke ="blue" stroke-width="1" />
<line x1="347.113736" y1="431.386209" x2="348.628787" y2="426.243347"  fill="none" stroke ="blue" stroke-width="1" />
<line x1="241.934751" y1="377.781278" x2="236.354684" y2="386.405983"  fill="none" stroke ="blue" stroke-width="1" />
<line x1="367.505540" y1="355.499625" x2="368.385475" y2="368.507747"  fill="none" stroke ="blue" stroke-width="1" />
<line x1="496.772970" y1="0.405960" x2="488.219732" y2="157.484739"  fill="none" stroke ="blue" stroke-width="1" />
<line x1="364.764186" y1="330.540250" x2="364.477927" y2="339.531136"  fill="none" stroke ="blue" stroke-width="1" />
<line x1="273.217647" y1="274.340447" x2="271.459269" y2="255.410893"  fill="none" stroke ="blue" stroke-width="1" />
<line x1="180.496997" y1="273.007367" x2="226.495287" y2="272.726949"  fill="none" stroke ="blue" stroke-width="1" />
<line x1="143.514754" y1="267.194114" x2="150.546627" y2="267.533276"  fill="none" stroke ="blue" stroke-width="1" />
<line x1="151.336497" y1="268.338042" x2="153.322235" y2="266.333363"  fill="none" stroke ="blue" stroke-width="1" />
<line x1="438.521611" y1="376.230441" x2="427.482728" y2="376.317813"  fill="none" stroke ="blue" stroke-width="1" />
<line x1="215.556831" y1="389.158662" x2="205.502552" y2="387.484674"  fill="none" stroke ="blue" stroke-width="1" />
<line x1="34.981065" y1="402.864293" x2="19.683611" y2="381.073107"  fill="none" stroke ="blue" stroke-width="1" />
<line x1="41.635001" y1="412.099628" x2="34.968134" y2="402.482272"  fill="none" stroke ="blue" stroke-width="1" />
<line x1="368.334700" y1="338.506121" x2="368.292651" y2="330.501089"  fill="none" stroke ="blue" stroke-width="1" />
<line x1="370.543017" y1="367.268870" x2="448.482804" y2="369.992157"  fill="none" stroke ="blue" stroke-width="1" />
<line x1="351.498884" y1="416.502848" x2="360.320495" y2="419.958273"  fill="none" stroke ="blue" stroke-width="1" />
<line x1="445.369918" y1="376.554001" x2="439.216806" y2="375.794599"  fill="none" stroke ="blue" stroke-width="1" />
<line x1="446.494166" y1="376.576214" x2="444.454891" y2="375.522366"  fill="none" stroke ="blue" stroke-width="1" />
<line x1="15.631168" y1="382.407929" x2="37.470314" y2="413.520838"  fill="none" stroke ="blue" stroke-width="1" />
<line x1="375.345911" y1="424.713226" x2="364.139595" y2="416.614936"  fill="none" stroke ="blue" stroke-width="1" />
<line x1="638.782705" y1="284.716141" x2="563.967590" y2="272.859496"  fill="none" stroke ="blue" stroke-width="1" />
<line x1="360.639618" y1="311.777049" x2="365.832199" y2="312.779850"  fill="none" stroke ="blue" stroke-width="1" />
<line x1="359.987903" y1="310.249958" x2="360.799668" y2="311.833943"  fill="none" stroke ="blue" stroke-width="1" />
<line x1="247.594163" y1="334.914358" x2="236.510139" y2="335.652293"  fill="none" stroke ="blue" stroke-width="1" />
<line x1="238.245688" y1="387.244948" x2="228.731176" y2="396.731849"  fill="none" stroke ="blue" stroke-width="1" />
<line x1="635.375331" y1="160.439312" x2="632.247798" y2="166.864026"  fill="none" stroke ="blue" stroke-width="1" />
<line x1="0.503847" y1="266.242117" x2="4.502957" y2="266.301777"  fill="none" stroke ="blue" stroke-width="1" />
<line x1="3.488050" y1="268.417220" x2="9.506976" y2="267.548320"  fill="none" stroke ="blue" stroke-width="1" />
<line x1="9.744729" y1="270.881215" x2="12.577336" y2="269.062764"  fill="none" stroke ="blue" stroke-width="1" />
<line x1="14.776502" y1="272.532846" x2="14.500552" y2="266.454575"  fill="none" stroke ="blue" stroke-width="1" />
<line x1="376.478019" y1="374.876644" x2="363.472060" y2="374.791979"  fill="none" stroke ="blue" stroke-width="1" />
<line x1="187.285350" y1="379.896033" x2="191.188083" y2="384.970835"  fill="none" stroke ="blue" stroke-width="1" />
<line x1="368.023564" y1="311.595801" x2="366.399728" y2="303.520163"  fill="none" stroke ="blue" stroke-width="1" />
<line x1="356.633060" y1="339.728674" x2="355.396744" y2="329.635133"  fill="none" stroke ="blue" stroke-width="1" />
<line x1="341.399173" y1="397.757233" x2="344.147940" y2="393.604951"  fill="none" stroke ="blue" stroke-width="1" />
<line x1="344.107045" y1="393.581392" x2="344.420384" y2="387.394674"  fill="none" stroke ="blue" stroke-width="1" />
<line x1="632.321573" y1="73.442634" x2="639.027726" y2="74.712011"  fill="none" stroke ="blue" stroke-width="1" />
<line x1="187.050631" y1="367.506645" x2="187.089253" y2="358.493955"  fill="none" stroke ="blue" stroke-width="1" />
<line x1="2.312590" y1="173.577024" x2="5.558893" y2="181.475796"  fill="none" stroke ="blue" stroke-width="1" />
<line x1="574.586857" y1="268.803589" x2="638.711858" y2="276.801350"  fill="none" stroke ="blue" stroke-width="1" />
<line x1="368.448366" y1="303.673445" x2="456.453979" y2="307.545883"  fill="none" stroke ="blue" stroke-width="1" />
<line x1="306.552056" y1="272.179305" x2="274.510321" y2="274.634683"  fill="none" stroke ="blue" stroke-width="1" />
<line x1="550.711511" y1="265.376150" x2="540.482735" y2="330.497288"  fill="none" stroke ="blue" stroke-width="1" />
<line x1="160.483306" y1="360.783199" x2="180.590281" y2="361.968454"  fill="none" stroke ="blue" stroke-width="1" />
<line x1="638.791108" y1="268.206882" x2="576.275226" y2="260.270591"  fill="none" stroke ="blue" stroke-width="1" />
<line x1="532.497160" y1="326.661961" x2="540.166131" y2="279.445772"  fill="none" stroke ="blue" stroke-width="1" />
<line x1="204.511693" y1="461.557179" x2="182.495352" y2="461.682324"  fill="none" stroke ="blue" stroke-width="1" />
<line x1="224.375510" y1="266.799417" x2="195.449400" y2="264.028154"  fill="none" stroke ="blue" stroke-width="1" />
<line x1="164.043074" y1="272.181787" x2="169.343243" y2="275.733900"  fill="none" stroke ="blue" stroke-width="1" />
<line x1="169.398739" y1="273.276755" x2="176.546499" y2="273.684122"  fill="none" stroke ="blue" stroke-width="1" />
<line x1="176.623461" y1="275.599463" x2="179.364792" y2="272.196691"  fill="none" stroke ="blue" stroke-width="1" />
<line x1="109.504758" y1="273.781183" x2="64.483806" y2="274.543009"  fill="none" stroke ="blue" stroke-width="1" />
<line x1="457.500446" y1="303.499991" x2="458.574917" y2="355.477780"  fill="none" stroke ="blue" stroke-width="1" />
<line x1="221.678700" y1="377.700169" x2="205.441616" y2="376.088032"  fill="none" stroke ="blue" stroke-width="1" />
<line x1="543.337288" y1="331.629857" x2="554.547019" y2="259.352200"  fill="none" stroke ="blue" stroke-width="1" />
<line x1="359.808014" y1="300.525140" x2="360.170833" y2="310.511959"  fill="none" stroke ="blue" stroke-width="1" />
<line x1="331.999537" y1="377.416691" x2="315.881456" y2="386.200003"  fill="none" stroke ="blue" stroke-width="1" />
<line x1="636.564874" y1="89.502286" x2="635.789363" y2="111.510197"  fill="none" stroke ="blue" stroke-width="1" />
<line x1="636.801441" y1="112.638089" x2="633.457170" y2="119.938475"  fill="none" stroke ="blue" stroke-width="1" />
<line x1="574.290587" y1="260.642517" x2="572.830894" y2="268.739916"  fill="none" stroke ="blue" stroke-width="1" />
<line x1="346.675306" y1="336.907861" x2="354.847215" y2="339.327194"  fill="none" stroke ="blue" stroke-width="1" />
<line x1="338.456326" y1="364.980396" x2="359.464515" y2="366.890318"  fill="none" stroke ="blue" stroke-width="1" />
<line x1="230.486579" y1="378.779247" x2="221.555273" y2="378.349981"  fill="none" stroke ="blue" stroke-width="1" />
<line x1="336.548744" y1="434.589816" x2="322.535380" y2="433.839349"  fill="none" stroke ="blue" stroke-width="1" />
<line x1="191.472411" y1="466.725773" x2="208.463095" y2="468.802010"  fill="none" stroke ="blue" stroke-width="1" />
<line x1="10.967626" y1="308.513089" x2="10.721315" y2="298.494559"  fill="none" stroke ="blue" stroke-width="1" />
<line x1="11.401006" y1="297.490525" x2="13.514783" y2="275.405703"  fill="none" stroke ="blue" stroke-width="1" />
<line x1="253.161146" y1="396.728103" x2="260.691525" y2="398.805861"  fill="none" stroke ="blue" stroke-width="1" />
<line x1="81.995745" y1="255.271512" x2="86.697157" y2="252.250561"  fill="none" stroke ="blue" stroke-width="1" />
<line x1="79.864976" y1="257.017767" x2="81.791542" y2="254.480789"  fill="none" stroke ="blue" stroke-width="1" />
<line x1="346.273607" y1="328.502614" x2="345.938700" y2="299.494935"  fill="none" stroke ="blue" stroke-width="1" />
<line x1="155.155372" y1="320.476294" x2="155.699862" y2="335.528943"  fill="none" stroke ="blue" stroke-width="1" />
<line x1="345.502710" y1="361.686957" x2="338.489687" y2="361.788628"  fill="none" stroke ="blue" stroke-width="1" />
<line x1="165.837258" y1="435.406401" x2="168.771655" y2="445.979667"  fill="none" stroke ="blue" stroke-width="1" />
<line x1="169.976572" y1="431.999712" x2="166.590556" y2="435.542344"  fill="none" stroke ="blue" stroke-width="1" />
<line x1="183.515125" y1="433.821569" x2="170.449959" y2="434.436083"  fill="none" stroke ="blue" stroke-width="1" />
<line x1="70.293378" y1="245.585588" x2="65.964857" y2="235.135894"  fill="none" stroke ="blue" stroke-width="1" />
<line x1="64.404779" y1="270.422615" x2="66.092117" y2="246.541837"  fill="none" stroke ="blue" stroke-width="1" />
<line x1="363.427418" y1="363.248409" x2="345.402983" y2="361.500369"  fill="none" stroke ="blue" stroke-width="1" />
<line x1="161.188722" y1="374.381191" x2="155.658845" y2="378.703235"  fill="none" stroke ="blue" stroke-width="1" />
<line x1="155.108600" y1="377.269949" x2="147.881457" y2="382.982587"  fill="none" stroke ="blue" stroke-width="1" />
<line x1="154.472231" y1="396.493355" x2="151.367383" y2="409.468265"  fill="none" stroke ="blue" stroke-width="1" />
<line x1="89.890712" y1="299.301989" x2="97.700903" y2="305.235556"  fill="none" stroke ="blue" stroke-width="1" />
<line x1="98.442067" y1="304.912579" x2="102.502427" y2="305.482719"  fill="none" stroke ="blue" stroke-width="1" />
<line x1="440.477672" y1="391.166201" x2="371.521614" y2="388.855113"  fill="none" stroke ="blue" stroke-width="1" />
<line x1="11.355088" y1="172.660034" x2="3.918167" y2="165.089228"  fill="none" stroke ="blue" stroke-width="1" />
<line x1="4.274249" y1="303.972950" x2="8.331886" y2="309.933715"  fill="none" stroke ="blue" stroke-width="1" />
<line x1="224.895130" y1="472.609289" x2="218.864548" y2="468.020872"  fill="none" stroke ="blue" stroke-width="1" />
<line x1="0.927909" y1="127.491548" x2="0.706139" y2="142.503045"  fill="none" stroke ="blue" stroke-width="1" />
<line x1="87.539245" y1="252.502547" x2="90.787891" y2="202.453777"  fill="none" stroke ="blue" stroke-width="1" />
<line x1="229.554115" y1="368.356116" x2="222.979678" y2="365.883462"  fill="none" stroke ="blue" stroke-width="1" />
<line x1="223.230620" y1="365.585980" x2="220.927516" y2="367.135451"  fill="none" stroke ="blue" stroke-width="1" />
<line x1="119.412003" y1="230.530796" x2="119.863914" y2="202.473648"  fill="none" stroke ="blue" stroke-width="1" />
<line x1="109.251789" y1="202.492429" x2="108.121453" y2="239.549459"  fill="none" stroke ="blue" stroke-width="1" />
<line x1="78.907145" y1="235.841380" x2="73.518990" y2="245.510582"  fill="none" stroke ="blue" stroke-width="1" />
<line x1="79.948397" y1="202.417559" x2="78.188689" y2="235.536592"  fill="none" stroke ="blue" stroke-width="1" />
<line x1="78.069662" y1="246.427825" x2="76.030054" y2="258.588899"  fill="none" stroke ="blue" stroke-width="1" />
<line x1="44.567704" y1="200.477073" x2="43.090689" y2="260.539117"  fill="none" stroke ="blue" stroke-width="1" />
<line x1="258.455736" y1="276.025383" x2="234.477769" y2="278.261631"  fill="none" stroke ="blue" stroke-width="1" />
<line x1="244.495162" y1="271.703793" x2="259.486715" y2="272.059665"  fill="none" stroke ="blue" stroke-width="1" />
<line x1="199.691863" y1="384.565960" x2="197.635765" y2="390.546674"  fill="none" stroke ="blue" stroke-width="1" />
<line x1="196.951659" y1="390.423215" x2="197.310210" y2="392.532265"  fill="none" stroke ="blue" stroke-width="1" />
<line x1="196.453547" y1="393.617160" x2="199.731257" y2="394.916739"  fill="none" stroke ="blue" stroke-width="1" />
<line x1="199.420319" y1="393.878513" x2="207.566508" y2="394.349383"  fill="none" stroke ="blue" stroke-width="1" />
<line x1="342.962952" y1="434.224721" x2="335.094930" y2="437.538116"  fill="none" stroke ="blue" stroke-width="1" />
<line x1="121.919806" y1="269.542254" x2="125.656677" y2="232.415119"  fill="none" stroke ="blue" stroke-width="1" />
<line x1="349.485531" y1="298.286271" x2="367.484351" y2="298.432059"  fill="none" stroke ="blue" stroke-width="1" />
<line x1="183.939670" y1="369.643607" x2="176.368315" y2="365.756496"  fill="none" stroke ="blue" stroke-width="1" />
<line x1="150.374209" y1="419.498134" x2="149.691502" y2="465.517676"  fill="none" stroke ="blue" stroke-width="1" />
<line x1="484.461825" y1="146.308273" x2="449.492601" y2="144.656655"  fill="none" stroke ="blue" stroke-width="1" />
<line x1="100.003308" y1="310.611172" x2="84.029106" y2="301.565614"  fill="none" stroke ="blue" stroke-width="1" />
<line x1="354.306326" y1="407.376280" x2="359.384781" y2="399.426397"  fill="none" stroke ="blue" stroke-width="1" />
<line x1="529.419179" y1="230.939360" x2="548.509020" y2="234.450967"  fill="none" stroke ="blue" stroke-width="1" />
<line x1="24.246355" y1="238.557918" x2="22.845915" y2="256.604445"  fill="none" stroke ="blue" stroke-width="1" />
<line x1="420.504570" y1="427.231913" x2="375.466518" y2="426.464196"  fill="none" stroke ="blue" stroke-width="1" />
<line x1="27.230022" y1="255.480724" x2="28.300655" y2="240.485767"  fill="none" stroke ="blue" stroke-width="1" />
<line x1="45.482466" y1="271.129428" x2="98.497849" y2="271.699914"  fill="none" stroke ="blue" stroke-width="1" />
<line x1="165.155896" y1="288.448191" x2="162.711615" y2="304.682425"  fill="none" stroke ="blue" stroke-width="1" />
<line x1="162.403875" y1="304.333007" x2="163.028442" y2="311.453649"  fill="none" stroke ="blue" stroke-width="1" />
<line x1="342.549342" y1="293.496526" x2="342.721500" y2="345.495956"  fill="none" stroke ="blue" stroke-width="1" />
<line x1="230.627999" y1="398.156502" x2="239.547042" y2="399.006243"  fill="none" stroke ="blue" stroke-width="1" />
<line x1="173.465280" y1="451.111466" x2="192.499535" y2="451.521572"  fill="none" stroke ="blue" stroke-width="1" />
<line x1="164.965511" y1="447.092668" x2="173.356079" y2="454.659587"  fill="none" stroke ="blue" stroke-width="1" />
<line x1="552.806109" y1="221.563514" x2="548.902744" y2="240.376077"  fill="none" stroke ="blue" stroke-width="1" />
<line x1="552.500000" y1="208.500000" x2="552.500000" y2="220.500000"  fill="none" stroke ="blue" stroke-width="1" />
<line x1="13.504392" y1="266.844130" x2="13.952467" y2="264.234307"  fill="none" stroke ="blue" stroke-width="1" />
<line x1="194.509586" y1="130.441235" x2="206.675244" y2="132.425649"  fill="none" stroke ="blue" stroke-width="1" />
<line x1="227.463939" y1="273.775513" x2="243.573352" y2="272.973666"  fill="none" stroke ="blue" stroke-width="1" />
<line x1="163.835598" y1="276.478796" x2="163.482854" y2="287.531368"  fill="none" stroke ="blue" stroke-width="1" />
<line x1="228.760953" y1="140.906375" x2="189.663067" y2="134.504162"  fill="none" stroke ="blue" stroke-width="1" />
<line x1="60.427612" y1="233.649847" x2="62.228858" y2="210.478922"  fill="none" stroke ="blue" stroke-width="1" />
<line x1="213.578123" y1="360.365959" x2="198.430758" y2="361.732480"  fill="none" stroke ="blue" stroke-width="1" />
<line x1="161.967697" y1="395.253876" x2="155.432823" y2="387.557036"  fill="none" stroke ="blue" stroke-width="1" />
<line x1="108.955778" y1="239.491598" x2="108.792436" y2="269.512473"  fill="none" stroke ="blue" stroke-width="1" />
<line x1="158.120949" y1="331.912566" x2="166.958243" y2="326.210162"  fill="none" stroke ="blue" stroke-width="1" />
<line x1="610.666997" y1="301.370591" x2="607.684699" y2="298.289041"  fill="none" stroke ="blue" stroke-width="1" />
<line x1="609.473587" y1="298.559008" x2="598.480426" y2="298.284828"  fill="none" stroke ="blue" stroke-width="1" />
<line x1="157.946282" y1="404.837156" x2="166.594301" y2="397.612885"  fill="none" stroke ="blue" stroke-width="1" />
<line x1="422.756844" y1="432.770121" x2="432.296056" y2="433.667630"  fill="none" stroke ="blue" stroke-width="1" />
<line x1="430.808098" y1="433.118919" x2="435.495801" y2="433.546082"  fill="none" stroke ="blue" stroke-width="1" />
<line x1="0.609413" y1="243.561441" x2="5.223536" y2="235.344750"  fill="none" stroke ="blue" stroke-width="1" />
<line x1="169.074917" y1="325.487486" x2="168.573173" y2="342.531592"  fill="none" stroke ="blue" stroke-width="1" />
<line x1="306.462042" y1="346.055429" x2="334.603969" y2="347.978670"  fill="none" stroke ="blue" stroke-width="1" />
<line x1="176.582434" y1="294.771871" x2="178.211813" y2="276.298182"  fill="none" stroke ="blue" stroke-width="1" />
<line x1="152.495731" y1="388.377981" x2="153.385221" y2="395.636608"  fill="none" stroke ="blue" stroke-width="1" />
<line x1="192.741846" y1="120.512439" x2="192.641689" y2="130.511436"  fill="none" stroke ="blue" stroke-width="1" />
<line x1="485.485475" y1="154.785555" x2="468.478611" y2="153.920508"  fill="none" stroke ="blue" stroke-width="1" />
<line x1="54.425380" y1="208.718304" x2="56.200551" y2="201.193450"  fill="none" stroke ="blue" stroke-width="1" />
<line x1="57.217346" y1="211.838461" x2="54.343471" y2="208.722148"  fill="none" stroke ="blue" stroke-width="1" />
<line x1="60.380308" y1="210.194094" x2="57.466942" y2="209.691705"  fill="none" stroke ="blue" stroke-width="1" />
<line x1="462.177250" y1="349.476236" x2="460.423761" y2="299.502675"  fill="none" stroke ="blue" stroke-width="1" />
<line x1="110.609777" y1="290.590475" x2="111.850992" y2="275.365564"  fill="none" stroke ="blue" stroke-width="1" />
<line x1="367.478328" y1="296.957259" x2="456.515296" y2="301.177266"  fill="none" stroke ="blue" stroke-width="1" />
<line x1="124.604815" y1="302.780940" x2="112.569019" y2="301.026514"  fill="none" stroke ="blue" stroke-width="1" />
<line x1="78.502857" y1="308.774783" x2="57.505126" y2="308.993066"  fill="none" stroke ="blue" stroke-width="1" />
<line x1="40.776035" y1="376.463859" x2="43.666697" y2="318.558242"  fill="none" stroke ="blue" stroke-width="1" />
<line x1="158.204995" y1="447.484335" x2="159.372714" y2="425.493241"  fill="none" stroke ="blue" stroke-width="1" />
<line x1="47.499664" y1="274.687207" x2="16.499764" y2="274.631610"  fill="none" stroke ="blue" stroke-width="1" />
<line x1="215.523092" y1="134.845555" x2="234.505149" y2="133.577056"  fill="none" stroke ="blue" stroke-width="1" />
<line x1="101.628501" y1="276.405670" x2="100.202958" y2="289.576087"  fill="none" stroke ="blue" stroke-width="1" />
<line x1="77.532151" y1="299.121700" x2="58.479676" y2="300.106996"  fill="none" stroke ="blue" stroke-width="1" />
<line x1="337.579504" y1="343.465822" x2="306.532362" y2="341.079038"  fill="none" stroke ="blue" stroke-width="1" />
<line x1="357.784401" y1="373.206960" x2="337.658303" y2="368.780269"  fill="none" stroke ="blue" stroke-width="1" />
<line x1="547.683744" y1="239.511989" x2="530.353270" y2="236.288987"  fill="none" stroke ="blue" stroke-width="1" />
<line x1="51.122623" y1="277.469267" x2="50.875810" y2="288.530698"  fill="none" stroke ="blue" stroke-width="1" />
<line x1="137.281248" y1="301.444367" x2="138.422144" y2="276.450798"  fill="none" stroke ="blue" stroke-width="1" />
<line x1="454.529774" y1="303.908028" x2="369.493411" y2="299.631010"  fill="none" stroke ="blue" stroke-width="1" />
<line x1="335.469427" y1="382.867769" x2="355.332157" y2="384.518994"  fill="none" stroke ="blue" stroke-width="1" />
<line x1="194.580829" y1="446.965571" x2="172.333512" y2="443.600785"  fill="none" stroke ="blue" stroke-width="1" />
<line x1="24.493100" y1="257.581452" x2="30.618567" y2="258.100352"  fill="none" stroke ="blue" stroke-width="1" />
<line x1="171.492139" y1="260.835162" x2="186.507333" y2="261.187353"  fill="none" stroke ="blue" stroke-width="1" />
<line x1="401.438860" y1="294.784788" x2="343.474948" y2="292.026435"  fill="none" stroke ="blue" stroke-width="1" />
<line x1="446.236427" y1="100.547256" x2="448.769182" y2="7.480111"  fill="none" stroke ="blue" stroke-width="1" />
<line x1="237.015805" y1="135.202393" x2="228.651589" y2="141.344684"  fill="none" stroke ="blue" stroke-width="1" />
<line x1="61.749180" y1="288.562307" x2="62.303920" y2="277.440342"  fill="none" stroke ="blue" stroke-width="1" />
<line x1="231.343957" y1="374.478187" x2="232.890498" y2="363.414798"  fill="none" stroke ="blue" stroke-width="1" />
<line x1="321.681598" y1="385.822230" x2="330.650764" y2="380.767518"  fill="none" stroke ="blue" stroke-width="1" />
<line x1="318.500227" y1="456.446931" x2="407.502875" y2="456.827464"  fill="none" stroke ="blue" stroke-width="1" />
<line x1="44.952047" y1="259.316586" x2="49.560893" y2="262.409255"  fill="none" stroke ="blue" stroke-width="1" />
<line x1="603.508151" y1="293.449395" x2="609.356437" y2="294.391342"  fill="none" stroke ="blue" stroke-width="1" />
<line x1="480.198023" y1="113.509904" x2="481.149218" y2="142.511505"  fill="none" stroke ="blue" stroke-width="1" />
<line x1="603.027929" y1="372.302035" x2="607.918158" y2="385.343197"  fill="none" stroke ="blue" stroke-width="1" />
<line x1="59.507003" y1="305.767353" x2="78.493975" y2="305.270003"  fill="none" stroke ="blue" stroke-width="1" />
<line x1="177.463616" y1="463.532023" x2="191.014093" y2="478.927671"  fill="none" stroke ="blue" stroke-width="1" />
<line x1="488.630811" y1="82.504777" x2="491.626853" y2="0.468112"  fill="none" stroke ="blue" stroke-width="1" />
<line x1="443.530096" y1="144.501707" x2="445.522262" y2="109.387794"  fill="none" stroke ="blue" stroke-width="1" />
<line x1="458.543028" y1="297.655189" x2="402.535520" y2="294.802602"  fill="none" stroke ="blue" stroke-width="1" />
<line x1="474.097567" y1="28.657966" x2="482.174674" y2="49.235172"  fill="none" stroke ="blue" stroke-width="1" />
<line x1="168.962606" y1="313.530130" x2="169.524654" y2="323.554685"  fill="none" stroke ="blue" stroke-width="1" />
<line x1="634.710012" y1="120.424353" x2="638.751206" y2="121.213364"  fill="none" stroke ="blue" stroke-width="1" />
<line x1="538.716128" y1="330.033054" x2="531.576443" y2="328.981149"  fill="none" stroke ="blue" stroke-width="1" />
<line x1="304.152880" y1="395.696986" x2="297.217419" y2="397.032217"  fill="none" stroke ="blue" stroke-width="1" />
<line x1="567.285013" y1="-0.934865" x2="555.861257" y2="32.622979"  fill="none" stroke ="blue" stroke-width="1" />
<line x1="638.601206" y1="291.748579" x2="565.578996" y2="281.913483"  fill="none" stroke ="blue" stroke-width="1" />
<line x1="142.451625" y1="276.497565" x2="141.093689" y2="303.479551"  fill="none" stroke ="blue" stroke-width="1" />
<line x1="181.965049" y1="298.180166" x2="178.390009" y2="295.368394"  fill="none" stroke ="blue" stroke-width="1" />
<line x1="177.419612" y1="297.057794" x2="176.450699" y2="295.042845"  fill="none" stroke ="blue" stroke-width="1" />
<line x1="18.823231" y1="318.513498" x2="18.112828" y2="335.525591"  fill="none" stroke ="blue" stroke-width="1" />
<line x1="550.810613" y1="333.631379" x2="543.970140" y2="331.185268"  fill="none" stroke ="blue" stroke-width="1" />
<line x1="172.578786" y1="371.035849" x2="162.925114" y2="363.923026"  fill="none" stroke ="blue" stroke-width="1" />
<line x1="323.432995" y1="431.286475" x2="332.197536" y2="428.536134"  fill="none" stroke ="blue" stroke-width="1" />
<line x1="221.499828" y1="456.678949" x2="313.500703" y2="456.767152"  fill="none" stroke ="blue" stroke-width="1" />
<line x1="422.505897" y1="270.239918" x2="387.501219" y2="269.446222"  fill="none" stroke ="blue" stroke-width="1" />
<line x1="29.779687" y1="349.499758" x2="29.768449" y2="336.499768"  fill="none" stroke ="blue" stroke-width="1" />
<line x1="366.512631" y1="427.427511" x2="375.585655" y2="429.008416"  fill="none" stroke ="blue" stroke-width="1" />
<line x1="376.459522" y1="429.846179" x2="401.583732" y2="432.783902"  fill="none" stroke ="blue" stroke-width="1" />
<line x1="446.015865" y1="108.709823" x2="447.041771" y2="101.298155"  fill="none" stroke ="blue" stroke-width="1" />
<line x1="35.293752" y1="327.492384" x2="34.702348" y2="343.507472"  fill="none" stroke ="blue" stroke-width="1" />
<line x1="210.394196" y1="476.113420" x2="194.521447" y2="473.375655"  fill="none" stroke ="blue" stroke-width="1" />
<line x1="18.499846" y1="271.855633" x2="44.500275" y2="271.866920"  fill="none" stroke ="blue" stroke-width="1" />
<line x1="207.823876" y1="467.041169" x2="204.017415" y2="462.285463"  fill="none" stroke ="blue" stroke-width="1" />
<line x1="465.143534" y1="93.425599" x2="459.692926" y2="119.540267"  fill="none" stroke ="blue" stroke-width="1" />
<line x1="606.452202" y1="309.923801" x2="596.577807" y2="308.810123"  fill="none" stroke ="blue" stroke-width="1" />
<line x1="358.563475" y1="381.504897" x2="359.112162" y2="374.392929"  fill="none" stroke ="blue" stroke-width="1" />
<line x1="149.966076" y1="413.465049" x2="150.344518" y2="418.511659"  fill="none" stroke ="blue" stroke-width="1" />
<line x1="151.727320" y1="410.142525" x2="150.407785" y2="412.994695"  fill="none" stroke ="blue" stroke-width="1" />
<line x1="408.500000" y1="440.500000" x2="392.500000" y2="440.500000"  fill="none" stroke ="blue" stroke-width="1" />
<line x1="556.918680" y1="33.126375" x2="548.593246" y2="51.982690"  fill="none" stroke ="blue" stroke-width="1" />
<line x1="233.494895" y1="266.729788" x2="244.511674" y2="266.974542"  fill="none" stroke ="blue" stroke-width="1" />
<line x1="401.520015" y1="433.398485" x2="427.685848" y2="438.557380"  fill="none" stroke ="blue" stroke-width="1" />
<line x1="157.677399" y1="465.504562" x2="158.140029" y2="447.516461"  fill="none" stroke ="blue" stroke-width="1" />
<line x1="547.256889" y1="58.911597" x2="541.406819" y2="81.213241"  fill="none" stroke ="blue" stroke-width="1" />
<line x1="548.733080" y1="231.515942" x2="550.103985" y2="211.472913"  fill="none" stroke ="blue" stroke-width="1" />
<line x1="135.526634" y1="272.883656" x2="123.515100" y2="273.717508"  fill="none" stroke ="blue" stroke-width="1" />
<line x1="615.542766" y1="311.253107" x2="608.410333" y2="310.017666"  fill="none" stroke ="blue" stroke-width="1" />
<line x1="485.368813" y1="46.527250" x2="483.693044" y2="38.459900"  fill="none" stroke ="blue" stroke-width="1" />
<line x1="232.660865" y1="380.853281" x2="230.778706" y2="376.382663"  fill="none" stroke ="blue" stroke-width="1" />
<line x1="228.584031" y1="384.763568" x2="229.669743" y2="380.298134"  fill="none" stroke ="blue" stroke-width="1" />
<line x1="483.043891" y1="221.505071" x2="482.820052" y2="245.512308"  fill="none" stroke ="blue" stroke-width="1" />
<line x1="451.966159" y1="40.475915" x2="452.506448" y2="28.500291"  fill="none" stroke ="blue" stroke-width="1" />
<line x1="207.319653" y1="404.683664" x2="200.256461" y2="397.748018"  fill="none" stroke ="blue" stroke-width="1" />
</svg>
