<?xml version="1.0" standalone="no"?>
<!DOCTYPE svg PUBLIC "-//W3C//DTD SVG 1.1//EN"
 "http://www.w3.org/Graphics/SVG/1.1/DTD/svg11.dtd">
<svg width="720px" height="540px" version="1.1"
 xmlns="http://www.w3.org/2000/svg" xmlns:xlink="http://www.w3.org/1999/xlink">
<path d="M 596.703931,0.886036 A62.607851,35.598800 79.764216 0,1 547.736425,8.378222" fill="none" stroke ="red" stroke-width="1" />
<path d="M 141.497125,167.745643 A23.552253,23.552253 0.000000 1,1 94.827023,164.786069" fill="none" stroke ="red" stroke-width="1" />
<path d="M 303.503912,489.135076 A35.267583,35.267583 0.000000 0,1 300.453342,537.672316" fill="none" stroke ="red" stroke-width="1" />
<path d="M 337.888388,126.588305 A194.157700,194.157700 0.000000 0,1 298.625460,230.534982" fill="none" stroke ="red" stroke-width="1" />
<path d="M 298.637697,229.961608 A34.684669,34.684669 0.000000 0,1 255.974511,233.362973" fill="none" stroke ="red" stroke-width="1" />
<path d="M 145.012584,192.971187 A50.749501,50.749501 0.000000 0,1 110.264822,199.964164" fill="none" stroke ="red" stroke-width="1" />
<path d="M 270.328056,134.309913 A205.145782,205.145782 0.000000 0,1 254.255486,235.470480" fill="none" stroke ="red" stroke-width="1" />
<path d="M 79.031084,194.443388 A12.711363,12.711363 0.000000 0,1 81.789823,174.582539" fill="none" stroke ="red" stroke-width="1" />
<path d="M 276.663025,471.215428 A644.105138,644.105138 0.000000 0,1 225.336876,538.972171" fill="none" stroke ="red" stroke-width="1" />
<path d="M 318.063240,95.304150 A87.064754,87.064754 0.000000 0,1 321.265932,149.067264" fill="none" stroke ="red" stroke-width="1" />
<path d="M 319.111718,148.372640 A135.638677,135.638677 0.000000 0,1 312.446277,172.092976" fill="none" stroke ="red" stroke-width="1" />
<line x1="718.703233" y1="442.835495" x2="697.136514" y2="455.899960"  fill="none" stroke ="blue" stroke-width="1" />
<line x1="696.787613" y1="455.534632" x2="694.252203" y2="476.590575"  fill="none" stroke ="blue" stroke-width="1" />
<line x1="693.972906" y1="477.022003" x2="711.063438" y2="493.930496"  fill="none" stroke ="blue" stroke-width="1" />
<line x1="76.621850" y1="197.843874" x2="51.390559" y2="195.987480"  fill="none" stroke ="blue" stroke-width="1" />
<line x1="627.796093" y1="269.637738" x2="625.566969" y2="290.613389"  fill="none" stroke ="blue" stroke-width="1" />
<line x1="626.193987" y1="290.791645" x2="642.866467" y2="307.125946"  fill="none" stroke ="blue" stroke-width="1" />
<line x1="643.369594" y1="306.451273" x2="662.692554" y2="304.048519"  fill="none" stroke ="blue" stroke-width="1" />
<line x1="662.983442" y1="304.179648" x2="674.826847" y2="285.082532"  fill="none" stroke ="blue" stroke-width="1" />
<line x1="674.798872" y1="284.729780" x2="668.201100" y2="264.597958"  fill="none" stroke ="blue" stroke-width="1" />
<line x1="669.031394" y1="264.677479" x2="649.017473" y2="256.712460"  fill="none" stroke ="blue" stroke-width="1" />
<line x1="648.885400" y1="256.131135" x2="627.362134" y2="269.274229"  fill="none" stroke ="blue" stroke-width="1" />
<line x1="402.678472" y1="472.871603" x2="388.672208" y2="468.893659"  fill="none" stroke ="blue" stroke-width="1" />
<line x1="411.370446" y1="476.821864" x2="402.932507" y2="473.425483"  fill="none" stroke ="blue" stroke-width="1" />
<line x1="418.890021" y1="497.704923" x2="411.437330" y2="475.521054"  fill="none" stroke ="blue" stroke-width="1" />
<line x1="407.118037" y1="516.241831" x2="419.232132" y2="498.318947"  fill="none" stroke ="blue" stroke-width="1" />
<line x1="397.526955" y1="519.656763" x2="410.487656" y2="517.428213"  fill="none" stroke ="blue" stroke-width="1" />
<line x1="392.469604" y1="518.584393" x2="397.533095" y2="520.408112"  fill="none" stroke ="blue" stroke-width="1" />
<line x1="387.932568" y1="514.790306" x2="393.036447" y2="517.901185"  fill="none" stroke ="blue" stroke-width="1" />
<line x1="557.585349" y1="408.798707" x2="550.713491" y2="387.756858"  fill="none" stroke ="blue" stroke-width="1" />
<line x1="550.282047" y1="388.060460" x2="531.413375" y2="380.722754"  fill="none" stroke ="blue" stroke-width="1" />
<line x1="531.681258" y1="379.792733" x2="507.446548" y2="394.798666"  fill="none" stroke ="blue" stroke-width="1" />
<line x1="546.142731" y1="428.281975" x2="557.847509" y2="409.101815"  fill="none" stroke ="blue" stroke-width="1" />
<line x1="525.489082" y1="431.421658" x2="546.362398" y2="428.512649"  fill="none" stroke ="blue" stroke-width="1" />
<line x1="517.194802" y1="424.878439" x2="525.951368" y2="431.940314"  fill="none" stroke ="blue" stroke-width="1" />
<line x1="507.567694" y1="414.436807" x2="517.245583" y2="424.803989"  fill="none" stroke ="blue" stroke-width="1" />
<line x1="509.226110" y1="397.469433" x2="507.315301" y2="414.590990"  fill="none" stroke ="blue" stroke-width="1" />
<line x1="510.555538" y1="394.532298" x2="509.251810" y2="396.774115"  fill="none" stroke ="blue" stroke-width="1" />
<line x1="504.588056" y1="132.401641" x2="502.421243" y2="152.491506"  fill="none" stroke ="blue" stroke-width="1" />
<line x1="503.123224" y1="152.862367" x2="519.327074" y2="168.700045"  fill="none" stroke ="blue" stroke-width="1" />
<line x1="519.457992" y1="169.165364" x2="536.565009" y2="167.017859"  fill="none" stroke ="blue" stroke-width="1" />
<line x1="528.466410" y1="180.473790" x2="549.993589" y2="152.885143"  fill="none" stroke ="blue" stroke-width="1" />
<line x1="525.768715" y1="117.935507" x2="503.578506" y2="131.627234"  fill="none" stroke ="blue" stroke-width="1" />
<line x1="536.538414" y1="122.393057" x2="525.522878" y2="118.436308"  fill="none" stroke ="blue" stroke-width="1" />
<line x1="538.792614" y1="124.427782" x2="535.306108" y2="110.301051"  fill="none" stroke ="blue" stroke-width="1" />
<line x1="693.778639" y1="518.632250" x2="691.721339" y2="538.522893"  fill="none" stroke ="blue" stroke-width="1" />
<line x1="713.801844" y1="504.977749" x2="693.185966" y2="518.002957"  fill="none" stroke ="blue" stroke-width="1" />
<line x1="159.570760" y1="102.236971" x2="178.793688" y2="107.408302"  fill="none" stroke ="blue" stroke-width="1" />
<line x1="370.380731" y1="482.485636" x2="367.977900" y2="502.437122"  fill="none" stroke ="blue" stroke-width="1" />
<line x1="364.734264" y1="498.260766" x2="374.758346" y2="508.244641"  fill="none" stroke ="blue" stroke-width="1" />
<line x1="374.849269" y1="508.745164" x2="387.843469" y2="514.757699"  fill="none" stroke ="blue" stroke-width="1" />
<line x1="387.853914" y1="471.078693" x2="369.412533" y2="482.356980"  fill="none" stroke ="blue" stroke-width="1" />
<line x1="718.784090" y1="394.770566" x2="701.317730" y2="387.968000"  fill="none" stroke ="blue" stroke-width="1" />
<line x1="700.647063" y1="387.750740" x2="680.965764" y2="399.294121"  fill="none" stroke ="blue" stroke-width="1" />
<line x1="680.534399" y1="399.504058" x2="678.063860" y2="420.448554"  fill="none" stroke ="blue" stroke-width="1" />
<line x1="676.839477" y1="420.174657" x2="695.527876" y2="438.471527"  fill="none" stroke ="blue" stroke-width="1" />
<line x1="695.464145" y1="437.226754" x2="714.658523" y2="434.708070"  fill="none" stroke ="blue" stroke-width="1" />
<line x1="715.155371" y1="435.328540" x2="718.941055" y2="427.719434"  fill="none" stroke ="blue" stroke-width="1" />
<line x1="584.643445" y1="197.349795" x2="618.408794" y2="229.595504"  fill="none" stroke ="blue" stroke-width="1" />
<line x1="619.463583" y1="229.194689" x2="638.432267" y2="226.932142"  fill="none" stroke ="blue" stroke-width="1" />
<line x1="638.515488" y1="226.889088" x2="650.085809" y2="208.242985"  fill="none" stroke ="blue" stroke-width="1" />
<line x1="650.214477" y1="207.594445" x2="643.859134" y2="188.381206"  fill="none" stroke ="blue" stroke-width="1" />
<line x1="644.414502" y1="187.700127" x2="629.200733" y2="181.200499"  fill="none" stroke ="blue" stroke-width="1" />
<line x1="587.128291" y1="176.556712" x2="585.142367" y2="198.557983"  fill="none" stroke ="blue" stroke-width="1" />
<line x1="601.123091" y1="167.898680" x2="587.471945" y2="176.455241"  fill="none" stroke ="blue" stroke-width="1" />
<line x1="296.815205" y1="0.396758" x2="294.072874" y2="18.586369"  fill="none" stroke ="blue" stroke-width="1" />
<line x1="0.049794" y1="441.359373" x2="24.845840" y2="436.144388"  fill="none" stroke ="blue" stroke-width="1" />
<line x1="295.379355" y1="19.954378" x2="302.474681" y2="18.385493"  fill="none" stroke ="blue" stroke-width="1" />
<line x1="302.403851" y1="17.801348" x2="313.451081" y2="0.468820"  fill="none" stroke ="blue" stroke-width="1" />
<line x1="126.380578" y1="208.500211" x2="126.407067" y2="223.500164"  fill="none" stroke ="blue" stroke-width="1" />
<line x1="711.346267" y1="493.484728" x2="718.633447" y2="492.381303"  fill="none" stroke ="blue" stroke-width="1" />
<line x1="323.283604" y1="43.642520" x2="304.709445" y2="48.329936"  fill="none" stroke ="blue" stroke-width="1" />
<line x1="333.303421" y1="48.983559" x2="322.656445" y2="44.655295"  fill="none" stroke ="blue" stroke-width="1" />
<line x1="342.046654" y1="60.088838" x2="331.074617" y2="48.063325"  fill="none" stroke ="blue" stroke-width="1" />
<line x1="344.806336" y1="85.679700" x2="342.138802" y2="60.538324"  fill="none" stroke ="blue" stroke-width="1" />
<line x1="342.826212" y1="106.392210" x2="346.363926" y2="84.278109"  fill="none" stroke ="blue" stroke-width="1" />
<line x1="338.255704" y1="125.124223" x2="341.404783" y2="106.316621"  fill="none" stroke ="blue" stroke-width="1" />
<line x1="571.197585" y1="132.369483" x2="569.183460" y2="152.468279"  fill="none" stroke ="blue" stroke-width="1" />
<line x1="569.850277" y1="153.138139" x2="586.122779" y2="168.889696"  fill="none" stroke ="blue" stroke-width="1" />
<line x1="586.444727" y1="169.102207" x2="596.527950" y2="167.701152"  fill="none" stroke ="blue" stroke-width="1" />
<line x1="592.456372" y1="118.427569" x2="569.391838" y2="132.320432"  fill="none" stroke ="blue" stroke-width="1" />
<line x1="601.235544" y1="120.728848" x2="591.472501" y2="118.627778"  fill="none" stroke ="blue" stroke-width="1" />
<line x1="524.797354" y1="327.734526" x2="517.989078" y2="307.336758"  fill="none" stroke ="blue" stroke-width="1" />
<line x1="518.258977" y1="307.130408" x2="497.268615" y2="299.105200"  fill="none" stroke ="blue" stroke-width="1" />
<line x1="497.476553" y1="299.460690" x2="475.530173" y2="312.550588"  fill="none" stroke ="blue" stroke-width="1" />
<line x1="476.708876" y1="312.523652" x2="474.335694" y2="333.481395"  fill="none" stroke ="blue" stroke-width="1" />
<line x1="473.621626" y1="332.376906" x2="491.728916" y2="350.268322"  fill="none" stroke ="blue" stroke-width="1" />
<line x1="492.446007" y1="350.094000" x2="512.621147" y2="347.410966"  fill="none" stroke ="blue" stroke-width="1" />
<line x1="512.277023" y1="348.361501" x2="524.860462" y2="328.102760"  fill="none" stroke ="blue" stroke-width="1" />
<line x1="293.377544" y1="485.066888" x2="276.648527" y2="463.149922"  fill="none" stroke ="blue" stroke-width="1" />
<line x1="552.574941" y1="146.801357" x2="545.917098" y2="126.364122"  fill="none" stroke ="blue" stroke-width="1" />
<line x1="81.506441" y1="194.475237" x2="105.203633" y2="200.639347"  fill="none" stroke ="blue" stroke-width="1" />
<line x1="415.349477" y1="82.547524" x2="408.882157" y2="62.063616"  fill="none" stroke ="blue" stroke-width="1" />
<line x1="404.086239" y1="100.236601" x2="414.959666" y2="83.156026"  fill="none" stroke ="blue" stroke-width="1" />
<line x1="383.447278" y1="104.152059" x2="403.590884" y2="101.099793"  fill="none" stroke ="blue" stroke-width="1" />
<line x1="365.089689" y1="87.886637" x2="382.437556" y2="104.564951"  fill="none" stroke ="blue" stroke-width="1" />
<line x1="366.744234" y1="66.524312" x2="364.654725" y2="87.515402"  fill="none" stroke ="blue" stroke-width="1" />
<line x1="485.751938" y1="43.233638" x2="502.740873" y2="59.302589"  fill="none" stroke ="blue" stroke-width="1" />
<line x1="503.407028" y1="59.705411" x2="523.598621" y2="57.342872"  fill="none" stroke ="blue" stroke-width="1" />
<line x1="524.099258" y1="57.244706" x2="536.173236" y2="38.291834"  fill="none" stroke ="blue" stroke-width="1" />
<line x1="536.084131" y1="37.637326" x2="529.143192" y2="16.617823"  fill="none" stroke ="blue" stroke-width="1" />
<line x1="529.095206" y1="16.566046" x2="509.292439" y2="9.046621"  fill="none" stroke ="blue" stroke-width="1" />
<line x1="508.811393" y1="9.045408" x2="487.806938" y2="21.037606"  fill="none" stroke ="blue" stroke-width="1" />
<line x1="487.491664" y1="22.499226" x2="485.633578" y2="42.512402"  fill="none" stroke ="blue" stroke-width="1" />
<line x1="488.929818" y1="21.094444" x2="487.921966" y2="22.511409"  fill="none" stroke ="blue" stroke-width="1" />
<line x1="496.367299" y1="469.845164" x2="477.469360" y2="462.579697"  fill="none" stroke ="blue" stroke-width="1" />
<line x1="477.661165" y1="461.776893" x2="455.576404" y2="474.631268"  fill="none" stroke ="blue" stroke-width="1" />
<line x1="455.480734" y1="475.382716" x2="453.157200" y2="495.575622"  fill="none" stroke ="blue" stroke-width="1" />
<line x1="452.810188" y1="496.173303" x2="470.265733" y2="512.746736"  fill="none" stroke ="blue" stroke-width="1" />
<line x1="503.761857" y1="490.747391" x2="496.927825" y2="470.356613"  fill="none" stroke ="blue" stroke-width="1" />
<line x1="492.816093" y1="508.692800" x2="503.800813" y2="490.683480"  fill="none" stroke ="blue" stroke-width="1" />
<line x1="472.420621" y1="512.976755" x2="493.541362" y2="509.772646"  fill="none" stroke ="blue" stroke-width="1" />
<line x1="535.311807" y1="533.990838" x2="516.407018" y2="526.742513"  fill="none" stroke ="blue" stroke-width="1" />
<line x1="515.533158" y1="526.558039" x2="494.962719" y2="538.309940"  fill="none" stroke ="blue" stroke-width="1" />
<line x1="188.613604" y1="108.137019" x2="200.683242" y2="111.914515"  fill="none" stroke ="blue" stroke-width="1" />
<line x1="274.090923" y1="410.634082" x2="267.691393" y2="391.109500"  fill="none" stroke ="blue" stroke-width="1" />
<line x1="269.624393" y1="391.186411" x2="248.394824" y2="382.765142"  fill="none" stroke ="blue" stroke-width="1" />
<line x1="247.548956" y1="382.584592" x2="225.432812" y2="395.383906"  fill="none" stroke ="blue" stroke-width="1" />
<line x1="226.332385" y1="395.480947" x2="224.735758" y2="409.526799"  fill="none" stroke ="blue" stroke-width="1" />
<line x1="263.514700" y1="428.889611" x2="274.346424" y2="411.404860"  fill="none" stroke ="blue" stroke-width="1" />
<line x1="246.470689" y1="432.318930" x2="263.509825" y2="429.560692"  fill="none" stroke ="blue" stroke-width="1" />
<line x1="432.320000" y1="495.933137" x2="419.108245" y2="490.442687"  fill="none" stroke ="blue" stroke-width="1" />
<line x1="438.792395" y1="515.743266" x2="431.797801" y2="495.397620"  fill="none" stroke ="blue" stroke-width="1" />
<line x1="427.498397" y1="538.020400" x2="438.883183" y2="516.178493"  fill="none" stroke ="blue" stroke-width="1" />
<line x1="415.491123" y1="538.458209" x2="428.539636" y2="535.686605"  fill="none" stroke ="blue" stroke-width="1" />
<line x1="25.405216" y1="435.976181" x2="37.550400" y2="433.778531"  fill="none" stroke ="blue" stroke-width="1" />
<line x1="38.360019" y1="434.062846" x2="57.335624" y2="427.986663"  fill="none" stroke ="blue" stroke-width="1" />
<line x1="27.542265" y1="444.661561" x2="1.493697" y2="451.475907"  fill="none" stroke ="blue" stroke-width="1" />
<line x1="369.945040" y1="54.475885" x2="370.539345" y2="65.443682"  fill="none" stroke ="blue" stroke-width="1" />
<line x1="372.029819" y1="43.418169" x2="370.252366" y2="53.630943"  fill="none" stroke ="blue" stroke-width="1" />
<line x1="478.168553" y1="234.462787" x2="475.926136" y2="254.435570"  fill="none" stroke ="blue" stroke-width="1" />
<line x1="475.615083" y1="254.382282" x2="493.316625" y2="271.687574"  fill="none" stroke ="blue" stroke-width="1" />
<line x1="494.463557" y1="271.195138" x2="515.403414" y2="268.692015"  fill="none" stroke ="blue" stroke-width="1" />
<line x1="514.425914" y1="268.453683" x2="526.338438" y2="249.398995"  fill="none" stroke ="blue" stroke-width="1" />
<line x1="525.959024" y1="248.684486" x2="520.341826" y2="232.212917"  fill="none" stroke ="blue" stroke-width="1" />
<line x1="498.777927" y1="220.962131" x2="477.172610" y2="233.955622"  fill="none" stroke ="blue" stroke-width="1" />
<line x1="513.536565" y1="226.404499" x2="499.322929" y2="220.962480"  fill="none" stroke ="blue" stroke-width="1" />
<line x1="544.771451" y1="73.209292" x2="562.368584" y2="89.640739"  fill="none" stroke ="blue" stroke-width="1" />
<line x1="563.459669" y1="89.167561" x2="581.557259" y2="86.971969"  fill="none" stroke ="blue" stroke-width="1" />
<line x1="582.521247" y1="87.512987" x2="594.412789" y2="68.057925"  fill="none" stroke ="blue" stroke-width="1" />
<line x1="594.790737" y1="67.736421" x2="587.990735" y2="47.336422"  fill="none" stroke ="blue" stroke-width="1" />
<line x1="588.412294" y1="46.730524" x2="567.408899" y2="38.739447"  fill="none" stroke ="blue" stroke-width="1" />
<line x1="566.825731" y1="39.054285" x2="547.767719" y2="50.253902"  fill="none" stroke ="blue" stroke-width="1" />
<line x1="546.944729" y1="50.420677" x2="544.644784" y2="66.520683"  fill="none" stroke ="blue" stroke-width="1" />
<line x1="544.727745" y1="67.481388" x2="545.146914" y2="72.610577"  fill="none" stroke ="blue" stroke-width="1" />
<line x1="505.529464" y1="186.752672" x2="521.544911" y2="184.885146"  fill="none" stroke ="blue" stroke-width="1" />
<line x1="506.229847" y1="195.472792" x2="504.205703" y2="215.571073"  fill="none" stroke ="blue" stroke-width="1" />
<line x1="504.639424" y1="216.350714" x2="514.470131" y2="225.531982"  fill="none" stroke ="blue" stroke-width="1" />
<line x1="552.254204" y1="460.141100" x2="533.349313" y2="452.893033"  fill="none" stroke ="blue" stroke-width="1" />
<line x1="532.749416" y1="452.917083" x2="511.554720" y2="465.591505"  fill="none" stroke ="blue" stroke-width="1" />
<line x1="511.804812" y1="466.416851" x2="509.404104" y2="486.488530"  fill="none" stroke ="blue" stroke-width="1" />
<line x1="508.120952" y1="485.899925" x2="527.116874" y2="503.904227"  fill="none" stroke ="blue" stroke-width="1" />
<line x1="528.361206" y1="503.543521" x2="547.537845" y2="500.760802"  fill="none" stroke ="blue" stroke-width="1" />
<line x1="559.858730" y1="480.715853" x2="552.997630" y2="460.332496"  fill="none" stroke ="blue" stroke-width="1" />
<line x1="548.585164" y1="499.927623" x2="560.223030" y2="481.326710"  fill="none" stroke ="blue" stroke-width="1" />
<line x1="618.738525" y1="146.756051" x2="612.185996" y2="127.269330"  fill="none" stroke ="blue" stroke-width="1" />
<line x1="612.516382" y1="126.451120" x2="599.623880" y2="122.130361"  fill="none" stroke ="blue" stroke-width="1" />
<line x1="609.198614" y1="162.942049" x2="619.121233" y2="147.260335"  fill="none" stroke ="blue" stroke-width="1" />
<line x1="490.182830" y1="150.395792" x2="488.513083" y2="171.501035"  fill="none" stroke ="blue" stroke-width="1" />
<line x1="489.673522" y1="171.323828" x2="504.786344" y2="186.209282"  fill="none" stroke ="blue" stroke-width="1" />
<line x1="500.779494" y1="141.891404" x2="489.710872" y2="149.795305"  fill="none" stroke ="blue" stroke-width="1" />
<line x1="661.771303" y1="248.225305" x2="677.876329" y2="264.131468"  fill="none" stroke ="blue" stroke-width="1" />
<line x1="676.529721" y1="264.715791" x2="698.525659" y2="261.686299"  fill="none" stroke ="blue" stroke-width="1" />
<line x1="698.300114" y1="262.375688" x2="710.616160" y2="242.572242"  fill="none" stroke ="blue" stroke-width="1" />
<line x1="710.231572" y1="241.589688" x2="703.817799" y2="222.393816"  fill="none" stroke ="blue" stroke-width="1" />
<line x1="704.322710" y1="221.967980" x2="684.513807" y2="214.463556"  fill="none" stroke ="blue" stroke-width="1" />
<line x1="683.511107" y1="214.519052" x2="663.798128" y2="226.011384"  fill="none" stroke ="blue" stroke-width="1" />
<line x1="663.713401" y1="226.410622" x2="661.306678" y2="247.591660"  fill="none" stroke ="blue" stroke-width="1" />
<line x1="424.468575" y1="272.510501" x2="417.452766" y2="251.515784"  fill="none" stroke ="blue" stroke-width="1" />
<line x1="416.830075" y1="251.677544" x2="396.493603" y2="243.515939"  fill="none" stroke ="blue" stroke-width="1" />
<line x1="397.399938" y1="244.325273" x2="377.595502" y2="255.666765"  fill="none" stroke ="blue" stroke-width="1" />
<line x1="412.754886" y1="292.044486" x2="424.375796" y2="273.035405"  fill="none" stroke ="blue" stroke-width="1" />
<line x1="392.530661" y1="294.720631" x2="412.560738" y2="291.937056"  fill="none" stroke ="blue" stroke-width="1" />
<line x1="373.983502" y1="277.995768" x2="392.374614" y2="295.630762"  fill="none" stroke ="blue" stroke-width="1" />
<line x1="376.255905" y1="258.368417" x2="374.224336" y2="277.576610"  fill="none" stroke ="blue" stroke-width="1" />
<line x1="377.369687" y1="256.410035" x2="376.256591" y2="258.022334"  fill="none" stroke ="blue" stroke-width="1" />
<line x1="325.610543" y1="308.464921" x2="319.007294" y2="287.656352"  fill="none" stroke ="blue" stroke-width="1" />
<line x1="318.528415" y1="287.429745" x2="299.418842" y2="279.700657"  fill="none" stroke ="blue" stroke-width="1" />
<line x1="298.705722" y1="279.855473" x2="289.362609" y2="285.262598"  fill="none" stroke ="blue" stroke-width="1" />
<line x1="314.124474" y1="327.267517" x2="325.228237" y2="309.331755"  fill="none" stroke ="blue" stroke-width="1" />
<line x1="421.062834" y1="58.647198" x2="413.795500" y2="37.063793"  fill="none" stroke ="blue" stroke-width="1" />
<line x1="414.396352" y1="36.783216" x2="406.373032" y2="33.846936"  fill="none" stroke ="blue" stroke-width="1" />
<line x1="413.169198" y1="70.300481" x2="420.343460" y2="58.405585"  fill="none" stroke ="blue" stroke-width="1" />
<line x1="304.072349" y1="490.127559" x2="292.491265" y2="483.835123"  fill="none" stroke ="blue" stroke-width="1" />
<line x1="618.504221" y1="10.500352" x2="616.670534" y2="32.514205"  fill="none" stroke ="blue" stroke-width="1" />
<line x1="617.735782" y1="32.256688" x2="633.483472" y2="47.517056"  fill="none" stroke ="blue" stroke-width="1" />
<line x1="633.429075" y1="47.905849" x2="653.618866" y2="45.495761"  fill="none" stroke ="blue" stroke-width="1" />
<line x1="653.994602" y1="46.166272" x2="657.968114" y2="40.148781"  fill="none" stroke ="blue" stroke-width="1" />
<line x1="659.298237" y1="41.760690" x2="658.541892" y2="38.273990"  fill="none" stroke ="blue" stroke-width="1" />
<line x1="635.950592" y1="-0.426897" x2="617.504162" y2="10.507022"  fill="none" stroke ="blue" stroke-width="1" />
<line x1="522.501887" y1="232.514045" x2="542.543126" y2="229.820925"  fill="none" stroke ="blue" stroke-width="1" />
<line x1="542.848093" y1="229.093666" x2="554.006108" y2="211.192157"  fill="none" stroke ="blue" stroke-width="1" />
<line x1="554.225091" y1="210.591424" x2="547.439558" y2="190.187540"  fill="none" stroke ="blue" stroke-width="1" />
<line x1="547.379175" y1="189.805915" x2="529.416542" y2="182.711306"  fill="none" stroke ="blue" stroke-width="1" />
<line x1="118.305900" y1="154.212802" x2="145.442811" y2="150.120747"  fill="none" stroke ="blue" stroke-width="1" />
<line x1="427.258602" y1="218.596052" x2="412.154937" y2="180.637300"  fill="none" stroke ="blue" stroke-width="1" />
<line x1="412.132956" y1="180.448294" x2="392.719069" y2="172.934013"  fill="none" stroke ="blue" stroke-width="1" />
<line x1="392.532519" y1="172.555267" x2="371.994063" y2="184.640151"  fill="none" stroke ="blue" stroke-width="1" />
<line x1="415.736012" y1="238.026825" x2="427.290815" y2="219.370442"  fill="none" stroke ="blue" stroke-width="1" />
<line x1="395.460376" y1="241.179525" x2="415.524578" y2="238.698788"  fill="none" stroke ="blue" stroke-width="1" />
<line x1="377.429367" y1="225.574720" x2="394.394356" y2="241.611757"  fill="none" stroke ="blue" stroke-width="1" />
<line x1="377.376081" y1="213.483503" x2="377.214230" y2="224.510483"  fill="none" stroke ="blue" stroke-width="1" />
<line x1="25.464179" y1="364.442315" x2="31.587029" y2="360.640147"  fill="none" stroke ="blue" stroke-width="1" />
<line x1="31.503267" y1="359.952798" x2="42.502694" y2="359.873444"  fill="none" stroke ="blue" stroke-width="1" />
<line x1="22.173016" y1="365.985226" x2="25.860994" y2="363.642626"  fill="none" stroke ="blue" stroke-width="1" />
<line x1="659.160871" y1="37.909512" x2="666.305509" y2="26.379482"  fill="none" stroke ="blue" stroke-width="1" />
<line x1="665.951466" y1="25.679728" x2="659.355095" y2="5.547479"  fill="none" stroke ="blue" stroke-width="1" />
<line x1="659.221862" y1="5.258920" x2="644.705660" y2="-0.061157"  fill="none" stroke ="blue" stroke-width="1" />
<line x1="302.713563" y1="47.448123" x2="297.791672" y2="27.186235"  fill="none" stroke ="blue" stroke-width="1" />
<line x1="300.978595" y1="51.968159" x2="289.101411" y2="64.110103"  fill="none" stroke ="blue" stroke-width="1" />
<line x1="364.315234" y1="4.481648" x2="362.131907" y2="26.463439"  fill="none" stroke ="blue" stroke-width="1" />
<line x1="361.330632" y1="25.668794" x2="374.308550" y2="38.690802"  fill="none" stroke ="blue" stroke-width="1" />
<line x1="372.941904" y1="-0.354930" x2="365.043695" y2="4.801000"  fill="none" stroke ="blue" stroke-width="1" />
<line x1="406.032544" y1="32.809354" x2="413.263009" y2="20.362332"  fill="none" stroke ="blue" stroke-width="1" />
<line x1="412.198319" y1="20.278784" x2="405.893246" y2="0.375426"  fill="none" stroke ="blue" stroke-width="1" />
<line x1="101.355440" y1="156.505173" x2="118.288515" y2="154.044605"  fill="none" stroke ="blue" stroke-width="1" />
<line x1="59.600036" y1="426.721173" x2="81.618586" y2="416.762183"  fill="none" stroke ="blue" stroke-width="1" />
<line x1="277.821764" y1="293.430542" x2="275.763693" y2="313.527005"  fill="none" stroke ="blue" stroke-width="1" />
<line x1="276.088864" y1="313.880978" x2="294.052986" y2="330.969908"  fill="none" stroke ="blue" stroke-width="1" />
<line x1="293.449892" y1="330.060836" x2="309.469540" y2="328.233032"  fill="none" stroke ="blue" stroke-width="1" />
<line x1="287.148675" y1="286.014709" x2="277.262425" y2="293.171833"  fill="none" stroke ="blue" stroke-width="1" />
<line x1="291.274603" y1="65.095776" x2="272.031390" y2="109.295984"  fill="none" stroke ="blue" stroke-width="1" />
<line x1="299.098705" y1="84.115449" x2="315.830057" y2="67.839287"  fill="none" stroke ="blue" stroke-width="1" />
<line x1="314.731022" y1="71.967596" x2="331.563000" y2="63.651552"  fill="none" stroke ="blue" stroke-width="1" />
<line x1="290.271515" y1="97.371107" x2="299.422837" y2="81.148833"  fill="none" stroke ="blue" stroke-width="1" />
<line x1="519.451493" y1="186.423795" x2="506.576015" y2="194.619421"  fill="none" stroke ="blue" stroke-width="1" />
<line x1="294.666449" y1="25.625752" x2="292.405529" y2="46.597623"  fill="none" stroke ="blue" stroke-width="1" />
<line x1="385.236292" y1="386.470204" x2="382.967227" y2="406.552790"  fill="none" stroke ="blue" stroke-width="1" />
<line x1="406.413231" y1="373.352886" x2="385.582107" y2="385.639210"  fill="none" stroke ="blue" stroke-width="1" />
<line x1="425.750674" y1="380.850767" x2="406.863593" y2="373.558313"  fill="none" stroke ="blue" stroke-width="1" />
<line x1="433.463843" y1="401.844667" x2="426.377340" y2="380.540801"  fill="none" stroke ="blue" stroke-width="1" />
<line x1="422.081624" y1="420.863030" x2="433.811440" y2="402.070225"  fill="none" stroke ="blue" stroke-width="1" />
<line x1="409.452608" y1="423.167035" x2="422.473489" y2="421.313740"  fill="none" stroke ="blue" stroke-width="1" />
<line x1="706.230625" y1="493.090541" x2="687.000909" y2="505.741364"  fill="none" stroke ="blue" stroke-width="1" />
<line x1="688.427516" y1="506.362432" x2="686.091279" y2="524.575843"  fill="none" stroke ="blue" stroke-width="1" />
<line x1="81.362254" y1="423.210638" x2="47.822204" y2="439.176850"  fill="none" stroke ="blue" stroke-width="1" />
<line x1="626.644215" y1="171.131870" x2="609.528650" y2="164.426867"  fill="none" stroke ="blue" stroke-width="1" />
<line x1="604.584016" y1="214.122681" x2="623.376820" y2="211.587052"  fill="none" stroke ="blue" stroke-width="1" />
<line x1="623.331857" y1="211.397758" x2="634.735744" y2="192.643347"  fill="none" stroke ="blue" stroke-width="1" />
<line x1="634.975608" y1="192.690374" x2="631.943721" y2="184.338913"  fill="none" stroke ="blue" stroke-width="1" />
<line x1="662.706766" y1="348.943013" x2="643.397872" y2="341.775112"  fill="none" stroke ="blue" stroke-width="1" />
<line x1="642.845548" y1="342.069555" x2="623.635906" y2="353.724010"  fill="none" stroke ="blue" stroke-width="1" />
<line x1="623.363987" y1="354.479395" x2="621.075230" y2="369.587145"  fill="none" stroke ="blue" stroke-width="1" />
<line x1="669.620040" y1="368.788679" x2="663.016217" y2="348.658709"  fill="none" stroke ="blue" stroke-width="1" />
<line x1="658.647874" y1="387.970667" x2="670.227021" y2="369.330428"  fill="none" stroke ="blue" stroke-width="1" />
<line x1="638.470346" y1="391.262522" x2="658.532145" y2="388.757428"  fill="none" stroke ="blue" stroke-width="1" />
<line x1="620.798342" y1="375.197330" x2="637.419927" y2="391.581235"  fill="none" stroke ="blue" stroke-width="1" />
<line x1="621.035668" y1="370.457434" x2="621.364075" y2="374.590264"  fill="none" stroke ="blue" stroke-width="1" />
<line x1="388.387143" y1="79.653390" x2="409.544396" y2="76.833040"  fill="none" stroke ="blue" stroke-width="1" />
<line x1="371.321925" y1="64.646936" x2="387.133024" y2="79.880880"  fill="none" stroke ="blue" stroke-width="1" />
<line x1="507.812166" y1="395.575993" x2="499.418791" y2="392.740378"  fill="none" stroke ="blue" stroke-width="1" />
<line x1="498.497765" y1="392.496239" x2="478.447417" y2="404.411516"  fill="none" stroke ="blue" stroke-width="1" />
<line x1="478.027313" y1="404.563151" x2="475.519648" y2="425.502353"  fill="none" stroke ="blue" stroke-width="1" />
<line x1="475.595995" y1="426.401414" x2="492.319440" y2="442.685432"  fill="none" stroke ="blue" stroke-width="1" />
<line x1="493.431796" y1="443.021595" x2="513.592298" y2="440.147405"  fill="none" stroke ="blue" stroke-width="1" />
<line x1="514.046763" y1="440.233751" x2="519.696828" y2="430.615625"  fill="none" stroke ="blue" stroke-width="1" />
<line x1="136.496553" y1="110.522700" x2="157.382777" y2="100.232378"  fill="none" stroke ="blue" stroke-width="1" />
<line x1="534.896069" y1="109.704288" x2="531.753572" y2="100.414226"  fill="none" stroke ="blue" stroke-width="1" />
<line x1="531.341822" y1="99.924950" x2="511.487163" y2="92.534486"  fill="none" stroke ="blue" stroke-width="1" />
<line x1="510.682359" y1="92.806123" x2="491.382667" y2="104.303035"  fill="none" stroke ="blue" stroke-width="1" />
<line x1="490.490983" y1="104.499196" x2="488.616578" y2="125.510400"  fill="none" stroke ="blue" stroke-width="1" />
<line x1="488.555564" y1="126.444518" x2="501.545953" y2="139.454115"  fill="none" stroke ="blue" stroke-width="1" />
<line x1="371.059426" y1="186.452774" x2="368.917218" y2="206.437530"  fill="none" stroke ="blue" stroke-width="1" />
<line x1="368.714290" y1="206.290491" x2="376.134299" y2="213.879855"  fill="none" stroke ="blue" stroke-width="1" />
<line x1="38.771880" y1="440.528793" x2="27.501883" y2="443.507125"  fill="none" stroke ="blue" stroke-width="1" />
<line x1="4.696619" y1="376.803602" x2="21.692258" y2="365.796868"  fill="none" stroke ="blue" stroke-width="1" />
<line x1="390.570045" y1="501.366322" x2="389.121184" y2="511.445546"  fill="none" stroke ="blue" stroke-width="1" />
<line x1="411.258630" y1="488.095312" x2="389.312112" y2="501.184982"  fill="none" stroke ="blue" stroke-width="1" />
<line x1="396.827158" y1="522.040348" x2="410.223772" y2="538.721834"  fill="none" stroke ="blue" stroke-width="1" />
<line x1="547.687600" y1="0.490025" x2="548.008557" y2="6.526131"  fill="none" stroke ="blue" stroke-width="1" />
<line x1="542.829018" y1="4.113222" x2="548.284167" y2="8.753723"  fill="none" stroke ="blue" stroke-width="1" />
<line x1="70.439708" y1="133.890641" x2="84.556829" y2="134.246675"  fill="none" stroke ="blue" stroke-width="1" />
<line x1="364.201405" y1="423.466656" x2="361.958565" y2="443.551208"  fill="none" stroke ="blue" stroke-width="1" />
<line x1="361.945065" y1="444.040841" x2="370.083614" y2="451.929572"  fill="none" stroke ="blue" stroke-width="1" />
<line x1="384.913843" y1="410.491290" x2="364.436439" y2="422.390619"  fill="none" stroke ="blue" stroke-width="1" />
<line x1="84.665115" y1="131.509651" x2="94.490366" y2="129.453952"  fill="none" stroke ="blue" stroke-width="1" />
<line x1="136.597237" y1="138.745637" x2="91.353327" y2="156.655657"  fill="none" stroke ="blue" stroke-width="1" />
<line x1="265.119828" y1="457.885023" x2="231.246094" y2="423.744093"  fill="none" stroke ="blue" stroke-width="1" />
<line x1="230.383084" y1="424.904126" x2="219.221511" y2="408.362678"  fill="none" stroke ="blue" stroke-width="1" />
<line x1="217.449773" y1="407.217155" x2="222.823027" y2="368.268648"  fill="none" stroke ="blue" stroke-width="1" />
<line x1="223.111502" y1="367.625842" x2="226.868408" y2="349.370023"  fill="none" stroke ="blue" stroke-width="1" />
<line x1="226.539531" y1="348.509817" x2="229.578824" y2="336.271238"  fill="none" stroke ="blue" stroke-width="1" />
<line x1="582.166863" y1="15.943640" x2="592.459082" y2="0.472779"  fill="none" stroke ="blue" stroke-width="1" />
<line x1="119.580401" y1="119.678860" x2="136.714333" y2="111.976804"  fill="none" stroke ="blue" stroke-width="1" />
<line x1="416.657459" y1="197.102775" x2="400.432166" y2="190.671127"  fill="none" stroke ="blue" stroke-width="1" />
<line x1="399.766757" y1="190.957787" x2="379.616341" y2="202.699655"  fill="none" stroke ="blue" stroke-width="1" />
<line x1="403.845077" y1="32.571746" x2="393.426193" y2="28.698539"  fill="none" stroke ="blue" stroke-width="1" />
<line x1="392.400530" y1="29.326191" x2="376.468068" y2="38.444204"  fill="none" stroke ="blue" stroke-width="1" />
<line x1="53.501649" y1="33.699983" x2="0.488761" y2="34.137181"  fill="none" stroke ="blue" stroke-width="1" />
<line x1="69.552637" y1="37.108327" x2="51.475944" y2="34.679004"  fill="none" stroke ="blue" stroke-width="1" />
<line x1="538.454953" y1="163.514941" x2="532.382749" y2="145.207215"  fill="none" stroke ="blue" stroke-width="1" />
<line x1="532.497357" y1="144.506538" x2="523.719298" y2="140.957583"  fill="none" stroke ="blue" stroke-width="1" />
<line x1="386.630729" y1="360.397841" x2="408.601745" y2="357.198782"  fill="none" stroke ="blue" stroke-width="1" />
<line x1="409.306763" y1="357.378363" x2="421.278113" y2="338.360328"  fill="none" stroke ="blue" stroke-width="1" />
<line x1="372.010908" y1="343.972162" x2="388.283920" y2="359.723240"  fill="none" stroke ="blue" stroke-width="1" />
<line x1="372.612900" y1="329.414201" x2="371.243583" y2="343.571918"  fill="none" stroke ="blue" stroke-width="1" />
<line x1="412.218824" y1="438.586109" x2="407.870267" y2="424.386607"  fill="none" stroke ="blue" stroke-width="1" />
<line x1="152.493405" y1="129.474333" x2="140.031453" y2="132.676604"  fill="none" stroke ="blue" stroke-width="1" />
<line x1="548.538315" y1="256.563006" x2="527.436419" y2="269.395446"  fill="none" stroke ="blue" stroke-width="1" />
<line x1="528.184721" y1="270.361619" x2="526.163812" y2="289.569840"  fill="none" stroke ="blue" stroke-width="1" />
<line x1="525.902983" y1="290.088466" x2="543.590064" y2="307.408025"  fill="none" stroke ="blue" stroke-width="1" />
<line x1="543.539890" y1="306.811939" x2="564.453647" y2="304.137519"  fill="none" stroke ="blue" stroke-width="1" />
<line x1="564.622814" y1="303.576529" x2="576.058333" y2="285.224784"  fill="none" stroke ="blue" stroke-width="1" />
<line x1="576.007872" y1="284.663774" x2="569.617414" y2="265.460926"  fill="none" stroke ="blue" stroke-width="1" />
<line x1="569.578618" y1="264.300174" x2="550.399822" y2="256.754626"  fill="none" stroke ="blue" stroke-width="1" />
<line x1="713.259775" y1="311.138585" x2="693.432351" y2="303.679829"  fill="none" stroke ="blue" stroke-width="1" />
<line x1="692.901948" y1="304.163294" x2="674.417844" y2="315.364426"  fill="none" stroke ="blue" stroke-width="1" />
<line x1="673.676978" y1="315.519839" x2="671.327266" y2="336.480636"  fill="none" stroke ="blue" stroke-width="1" />
<line x1="671.595504" y1="337.405011" x2="687.052156" y2="352.945430"  fill="none" stroke ="blue" stroke-width="1" />
<line x1="400.668526" y1="40.609598" x2="404.599654" y2="34.564808"  fill="none" stroke ="blue" stroke-width="1" />
<line x1="380.464537" y1="43.232826" x2="399.657328" y2="40.685292"  fill="none" stroke ="blue" stroke-width="1" />
<line x1="99.721177" y1="125.187233" x2="105.158032" y2="123.437450"  fill="none" stroke ="blue" stroke-width="1" />
<line x1="105.121847" y1="125.757753" x2="109.106524" y2="123.727677"  fill="none" stroke ="blue" stroke-width="1" />
<line x1="603.264090" y1="193.471887" x2="601.135095" y2="211.337347"  fill="none" stroke ="blue" stroke-width="1" />
<line x1="622.738079" y1="179.887247" x2="603.149675" y2="191.930179"  fill="none" stroke ="blue" stroke-width="1" />
<line x1="288.089829" y1="283.636579" x2="282.395299" y2="266.534863"  fill="none" stroke ="blue" stroke-width="1" />
<line x1="282.461927" y1="265.600242" x2="262.659796" y2="258.079269"  fill="none" stroke ="blue" stroke-width="1" />
<line x1="262.579395" y1="257.638576" x2="249.341361" y2="265.223111"  fill="none" stroke ="blue" stroke-width="1" />
<line x1="394.527453" y1="309.550604" x2="381.130330" y2="316.818584"  fill="none" stroke ="blue" stroke-width="1" />
<line x1="413.428725" y1="316.674570" x2="395.550927" y2="309.375267"  fill="none" stroke ="blue" stroke-width="1" />
<line x1="421.329090" y1="337.555539" x2="414.488173" y2="316.503843"  fill="none" stroke ="blue" stroke-width="1" />
<line x1="52.087898" y1="150.469566" x2="60.729693" y2="145.229602"  fill="none" stroke ="blue" stroke-width="1" />
<line x1="408.197440" y1="220.315218" x2="419.365597" y2="202.028646"  fill="none" stroke ="blue" stroke-width="1" />
<line x1="387.505260" y1="223.539373" x2="409.513267" y2="220.599313"  fill="none" stroke ="blue" stroke-width="1" />
<line x1="379.117914" y1="216.960768" x2="386.705251" y2="223.252483"  fill="none" stroke ="blue" stroke-width="1" />
<line x1="180.433848" y1="131.618525" x2="167.542649" y2="124.423586"  fill="none" stroke ="blue" stroke-width="1" />
<line x1="31.416853" y1="149.902391" x2="53.705014" y2="154.507830"  fill="none" stroke ="blue" stroke-width="1" />
<line x1="277.808406" y1="463.629753" x2="266.048483" y2="459.810957"  fill="none" stroke ="blue" stroke-width="1" />
<line x1="111.950798" y1="123.695181" x2="119.284633" y2="120.929006"  fill="none" stroke ="blue" stroke-width="1" />
<line x1="383.847164" y1="308.706938" x2="377.735245" y2="289.425431"  fill="none" stroke ="blue" stroke-width="1" />
<line x1="377.388859" y1="288.780923" x2="357.701033" y2="280.991863"  fill="none" stroke ="blue" stroke-width="1" />
<line x1="357.550645" y1="280.583530" x2="336.432090" y2="293.387995"  fill="none" stroke ="blue" stroke-width="1" />
<line x1="336.198271" y1="294.350507" x2="333.879257" y2="314.543555"  fill="none" stroke ="blue" stroke-width="1" />
<line x1="334.624277" y1="315.371171" x2="351.424714" y2="331.578043"  fill="none" stroke ="blue" stroke-width="1" />
<line x1="352.476809" y1="331.324324" x2="372.653240" y2="328.660812"  fill="none" stroke ="blue" stroke-width="1" />
<line x1="389.053962" y1="468.282736" x2="385.254875" y2="458.596138"  fill="none" stroke ="blue" stroke-width="1" />
<line x1="384.460072" y1="458.584421" x2="371.948180" y2="452.666722"  fill="none" stroke ="blue" stroke-width="1" />
<line x1="152.566078" y1="150.080896" x2="166.380348" y2="152.258907"  fill="none" stroke ="blue" stroke-width="1" />
<line x1="156.841277" y1="68.492379" x2="134.707735" y2="76.104059"  fill="none" stroke ="blue" stroke-width="1" />
<line x1="100.549006" y1="131.047147" x2="113.623255" y2="129.876130"  fill="none" stroke ="blue" stroke-width="1" />
<line x1="11.093612" y1="209.585590" x2="15.291631" y2="180.469957"  fill="none" stroke ="blue" stroke-width="1" />
<line x1="520.525961" y1="400.429945" x2="511.635189" y2="397.135196"  fill="none" stroke ="blue" stroke-width="1" />
<line x1="525.873901" y1="421.695215" x2="519.570282" y2="401.478086"  fill="none" stroke ="blue" stroke-width="1" />
<line x1="388.430338" y1="53.372235" x2="372.314245" y2="62.159312"  fill="none" stroke ="blue" stroke-width="1" />
<line x1="407.434828" y1="60.668838" x2="389.417383" y2="53.714032"  fill="none" stroke ="blue" stroke-width="1" />
<line x1="240.561352" y1="293.434612" x2="256.555166" y2="308.441205"  fill="none" stroke ="blue" stroke-width="1" />
<line x1="257.472617" y1="308.331503" x2="274.510187" y2="305.562683"  fill="none" stroke ="blue" stroke-width="1" />
<line x1="365.669776" y1="450.786780" x2="344.420839" y2="463.366284"  fill="none" stroke ="blue" stroke-width="1" />
<line x1="344.661834" y1="464.471080" x2="344.005841" y2="483.482949"  fill="none" stroke ="blue" stroke-width="1" />
<line x1="344.778644" y1="484.160754" x2="362.990990" y2="499.119714"  fill="none" stroke ="blue" stroke-width="1" />
<line x1="65.334648" y1="140.204500" x2="73.548503" y2="140.706690"  fill="none" stroke ="blue" stroke-width="1" />
<line x1="63.427375" y1="136.295435" x2="67.472961" y2="136.051521"  fill="none" stroke ="blue" stroke-width="1" />
<line x1="59.539727" y1="136.089073" x2="63.655886" y2="135.811479"  fill="none" stroke ="blue" stroke-width="1" />
<line x1="360.474998" y1="168.320615" x2="380.504052" y2="165.529076"  fill="none" stroke ="blue" stroke-width="1" />
<line x1="380.615249" y1="164.569468" x2="391.505087" y2="146.503066"  fill="none" stroke ="blue" stroke-width="1" />
<line x1="391.093425" y1="145.635325" x2="384.702003" y2="126.432765"  fill="none" stroke ="blue" stroke-width="1" />
<line x1="341.591551" y1="151.407514" x2="359.182631" y2="168.820612"  fill="none" stroke ="blue" stroke-width="1" />
<line x1="689.467331" y1="353.270263" x2="707.528714" y2="350.701929"  fill="none" stroke ="blue" stroke-width="1" />
<line x1="401.480730" y1="457.488612" x2="412.212348" y2="439.329999"  fill="none" stroke ="blue" stroke-width="1" />
<line x1="387.457221" y1="460.245131" x2="400.590757" y2="458.040715"  fill="none" stroke ="blue" stroke-width="1" />
<line x1="15.947476" y1="162.817364" x2="26.505710" y2="154.271566"  fill="none" stroke ="blue" stroke-width="1" />
<line x1="162.783249" y1="171.026935" x2="153.954596" y2="165.740761"  fill="none" stroke ="blue" stroke-width="1" />
<line x1="620.082819" y1="46.476145" x2="618.825669" y2="68.461441"  fill="none" stroke ="blue" stroke-width="1" />
<line x1="620.149918" y1="67.862568" x2="635.425850" y2="82.612458"  fill="none" stroke ="blue" stroke-width="1" />
<line x1="635.431415" y1="83.014507" x2="655.594107" y2="80.166157"  fill="none" stroke ="blue" stroke-width="1" />
<line x1="656.493020" y1="79.495686" x2="667.583659" y2="61.551707"  fill="none" stroke ="blue" stroke-width="1" />
<line x1="282.941277" y1="190.262138" x2="273.796110" y2="195.557179"  fill="none" stroke ="blue" stroke-width="1" />
<line x1="235.557246" y1="313.733432" x2="239.789714" y2="294.563967"  fill="none" stroke ="blue" stroke-width="1" />
<line x1="126.744024" y1="82.369776" x2="112.465166" y2="86.375839"  fill="none" stroke ="blue" stroke-width="1" />
<line x1="229.102737" y1="336.040959" x2="235.914254" y2="315.307566"  fill="none" stroke ="blue" stroke-width="1" />
<line x1="383.483793" y1="125.542094" x2="364.589450" y2="118.267666"  fill="none" stroke ="blue" stroke-width="1" />
<line x1="363.633815" y1="118.738251" x2="344.493545" y2="129.488508"  fill="none" stroke ="blue" stroke-width="1" />
<line x1="165.807029" y1="153.059144" x2="178.781838" y2="162.095316"  fill="none" stroke ="blue" stroke-width="1" />
<line x1="620.359687" y1="79.868911" x2="601.434968" y2="72.670982"  fill="none" stroke ="blue" stroke-width="1" />
<line x1="601.253976" y1="73.031806" x2="593.337892" y2="77.191501"  fill="none" stroke ="blue" stroke-width="1" />
<line x1="289.129147" y1="130.003743" x2="282.687608" y2="138.048859"  fill="none" stroke ="blue" stroke-width="1" />
<line x1="405.374302" y1="417.801599" x2="387.197433" y2="410.225977"  fill="none" stroke ="blue" stroke-width="1" />
<line x1="386.346621" y1="411.566752" x2="400.048957" y2="423.997194"  fill="none" stroke ="blue" stroke-width="1" />
<line x1="326.248027" y1="77.594147" x2="318.216351" y2="83.085103"  fill="none" stroke ="blue" stroke-width="1" />
<line x1="310.171217" y1="85.841850" x2="293.551330" y2="106.541214"  fill="none" stroke ="blue" stroke-width="1" />
<line x1="97.756410" y1="425.024870" x2="83.323381" y2="422.516095"  fill="none" stroke ="blue" stroke-width="1" />
<line x1="37.847691" y1="79.341715" x2="23.418269" y2="85.302140"  fill="none" stroke ="blue" stroke-width="1" />
<line x1="110.194246" y1="86.788497" x2="72.313855" y2="103.066833"  fill="none" stroke ="blue" stroke-width="1" />
<line x1="289.767965" y1="177.686104" x2="282.050221" y2="188.798604"  fill="none" stroke ="blue" stroke-width="1" />
<line x1="604.491240" y1="121.447647" x2="616.489935" y2="119.439850"  fill="none" stroke ="blue" stroke-width="1" />
<line x1="617.061088" y1="118.836583" x2="627.471232" y2="101.482743"  fill="none" stroke ="blue" stroke-width="1" />
<line x1="627.581379" y1="100.474845" x2="621.697218" y2="81.439038"  fill="none" stroke ="blue" stroke-width="1" />
<line x1="708.849720" y1="349.711088" x2="719.041090" y2="332.826598"  fill="none" stroke ="blue" stroke-width="1" />
<line x1="718.611317" y1="328.465257" x2="713.332619" y2="311.552241"  fill="none" stroke ="blue" stroke-width="1" />
<line x1="331.071428" y1="99.849630" x2="326.632483" y2="81.712317"  fill="none" stroke ="blue" stroke-width="1" />
<line x1="291.542596" y1="331.561160" x2="283.341726" y2="337.272746"  fill="none" stroke ="blue" stroke-width="1" />
<line x1="282.854730" y1="337.551789" x2="280.954671" y2="350.566379"  fill="none" stroke ="blue" stroke-width="1" />
<line x1="264.376616" y1="462.626569" x2="262.325657" y2="460.627218"  fill="none" stroke ="blue" stroke-width="1" />
<line x1="264.697415" y1="465.269808" x2="263.050845" y2="463.857696"  fill="none" stroke ="blue" stroke-width="1" />
<line x1="528.472186" y1="137.482081" x2="536.281850" y2="125.359463"  fill="none" stroke ="blue" stroke-width="1" />
<line x1="580.164511" y1="89.475764" x2="579.004253" y2="105.536428"  fill="none" stroke ="blue" stroke-width="1" />
<line x1="579.393448" y1="106.603485" x2="590.230528" y2="117.761717"  fill="none" stroke ="blue" stroke-width="1" />
<line x1="86.388107" y1="157.097028" x2="70.244438" y2="161.579615"  fill="none" stroke ="blue" stroke-width="1" />
<line x1="281.837844" y1="121.057013" x2="287.692037" y2="106.996306"  fill="none" stroke ="blue" stroke-width="1" />
<line x1="285.141442" y1="363.887511" x2="298.127138" y2="375.902970"  fill="none" stroke ="blue" stroke-width="1" />
<line x1="299.481902" y1="375.314643" x2="314.533684" y2="373.844975"  fill="none" stroke ="blue" stroke-width="1" />
<line x1="289.738091" y1="110.012029" x2="297.382077" y2="113.741685"  fill="none" stroke ="blue" stroke-width="1" />
<line x1="330.075250" y1="353.630409" x2="323.580149" y2="332.475392"  fill="none" stroke ="blue" stroke-width="1" />
<line x1="322.802222" y1="332.693003" x2="312.718475" y2="328.916624"  fill="none" stroke ="blue" stroke-width="1" />
<line x1="321.342490" y1="368.400720" x2="330.216749" y2="354.321465"  fill="none" stroke ="blue" stroke-width="1" />
<line x1="356.586764" y1="345.410901" x2="373.309611" y2="361.695512"  fill="none" stroke ="blue" stroke-width="1" />
<line x1="358.101361" y1="332.455585" x2="356.756226" y2="344.528548"  fill="none" stroke ="blue" stroke-width="1" />
<line x1="265.207671" y1="148.664927" x2="260.576749" y2="140.456700"  fill="none" stroke ="blue" stroke-width="1" />
<line x1="247.386518" y1="264.463513" x2="250.290160" y2="255.432532"  fill="none" stroke ="blue" stroke-width="1" />
<line x1="6.856738" y1="366.196623" x2="19.590086" y2="359.675915"  fill="none" stroke ="blue" stroke-width="1" />
<line x1="139.424378" y1="65.224979" x2="146.699247" y2="63.224616"  fill="none" stroke ="blue" stroke-width="1" />
<line x1="88.193744" y1="142.430511" x2="104.569101" y2="137.741312"  fill="none" stroke ="blue" stroke-width="1" />
<line x1="318.493036" y1="84.292123" x2="309.503125" y2="84.593287"  fill="none" stroke ="blue" stroke-width="1" />
<line x1="279.295801" y1="204.198690" x2="285.304759" y2="203.255777"  fill="none" stroke ="blue" stroke-width="1" />
<line x1="680.505070" y1="395.483007" x2="668.664140" y2="391.949897"  fill="none" stroke ="blue" stroke-width="1" />
</svg>
