<?xml version="1.0" standalone="no"?>
<!DOCTYPE svg PUBLIC "-//W3C//DTD SVG 1.1//EN"
 "http://www.w3.org/Graphics/SVG/1.1/DTD/svg11.dtd">
<svg width="1600px" height="1200px" version="1.1"
 xmlns="http://www.w3.org/2000/svg" xmlns:xlink="http://www.w3.org/1999/xlink">
<ellipse transform="translate(467.745021 423.794528) rotate(-66.352365)" rx="28.413982" ry="27.755102" stroke="red" fill="none" stroke-width="1" />
<path d="M 744.363799,376.039509 A44.526378,37.983311 -27.815330 0,1 784.148581,438.156901" fill="none" stroke ="red" stroke-width="1" />
<path d="M 782.583371,437.531229 A42.046018,37.605815 23.934080 0,1 749.058582,502.782119" fill="none" stroke ="red" stroke-width="1" />
<path d="M 913.023565,426.838686 A18.957498,18.916214 63.255722 0,1 917.076426,464.410701" fill="none" stroke ="red" stroke-width="1" />
<ellipse transform="translate(1419.576144 188.059548) rotate(25.299223)" rx="46.996553" ry="45.626177" stroke="red" fill="none" stroke-width="1" />
<ellipse transform="translate(452.229551 629.109265) rotate(-87.428534)" rx="25.400251" ry="24.983394" stroke="red" fill="none" stroke-width="1" />
<ellipse cx="921.496620" cy="1077.876732" rx="38.706731" ry="38.706731" stroke="red" stroke-width="1" fill="none" /> 
<ellipse transform="translate(450.765148 880.045449) rotate(74.238379)" rx="9.546570" ry="9.329160" stroke="red" fill="none" stroke-width="1" />
<ellipse transform="translate(161.926226 870.347225) rotate(83.963650)" rx="37.853249" ry="37.023945" stroke="red" fill="none" stroke-width="1" />
<ellipse transform="translate(1254.507745 1058.995390) rotate(-79.987398)" rx="9.668947" ry="9.506814" stroke="red" fill="none" stroke-width="1" />
<path d="M 913.067107,408.082292 A37.819577,36.527757 -84.309430 1,1 915.986353,483.607022" fill="none" stroke ="red" stroke-width="1" />
<ellipse transform="translate(1071.440445 863.174486) rotate(-49.152757)" rx="38.363523" ry="38.127701" stroke="red" fill="none" stroke-width="1" />
<ellipse transform="translate(726.724169 868.669312) rotate(-79.932900)" rx="38.416956" ry="38.119983" stroke="red" fill="none" stroke-width="1" />
<ellipse transform="translate(462.351074 1100.360103) rotate(72.267127)" rx="38.530058" ry="37.708700" stroke="red" fill="none" stroke-width="1" />
<ellipse transform="translate(139.604121 189.234634) rotate(-47.971687)" rx="27.939804" ry="27.022263" stroke="red" fill="none" stroke-width="1" />
<ellipse transform="translate(729.593004 1099.535166) rotate(89.668410)" rx="38.867405" ry="38.318947" stroke="red" fill="none" stroke-width="1" />
<path d="M 299.029269,5.417054 A1563.484641,1563.484641 0.000000 0,1 391.010303,1.551916" fill="none" stroke ="red" stroke-width="1" />
<ellipse cx="135.574005" cy="1088.364333" rx="10.258910" ry="10.258910" stroke="red" stroke-width="1" fill="none" /> 
<ellipse transform="translate(900.442137 191.350068) rotate(-11.144188)" rx="47.401947" ry="46.831418" stroke="red" fill="none" stroke-width="1" />
<path d="M 454.688966,224.158779 A28.553904,28.553904 0.000000 0,1 462.704753,171.663998" fill="none" stroke ="red" stroke-width="1" />
<ellipse transform="translate(1078.331386 662.443302) rotate(-50.973911)" rx="9.669503" ry="9.547687" stroke="red" fill="none" stroke-width="1" />
<path d="M 130.058353,383.248286 A28.161850,27.446505 -57.933941 1,1 124.985864,384.968559" fill="none" stroke ="red" stroke-width="1" />
<ellipse transform="translate(900.400798 191.188497) rotate(-3.448265)" rx="23.734303" ry="23.438769" stroke="red" fill="none" stroke-width="1" />
<ellipse transform="translate(1224.164182 432.552677) rotate(77.718881)" rx="28.494914" ry="28.090308" stroke="red" fill="none" stroke-width="1" />
<ellipse transform="translate(1439.994981 845.196320) rotate(13.700376)" rx="48.546480" ry="47.504612" stroke="red" fill="none" stroke-width="1" />
<path d="M 462.247065,171.974655 A28.196825,27.422286 -55.274647 0,1 487.608994,218.611202" fill="none" stroke ="red" stroke-width="1" />
<ellipse cx="1229.217923" cy="659.623702" rx="28.547496" ry="28.547496" stroke="red" stroke-width="1" fill="none" /> 
<path d="M 487.972684,219.000448 A29.325106,29.325106 0.000000 0,1 455.447151,224.022120" fill="none" stroke ="red" stroke-width="1" />
<path d="M 890.224244,911.797438 A38.820333,38.442732 -58.915457 1,1 956.838588,891.971990" fill="none" stroke ="red" stroke-width="1" />
<path d="M 1059.547196,1125.290142 A49.073436,49.073436 0.000000 0,1 1054.463596,1046.523466" fill="none" stroke ="red" stroke-width="1" />
<path d="M 956.922506,892.246407 A38.179435,38.179435 0.000000 0,1 927.533480,922.785516" fill="none" stroke ="red" stroke-width="1" />
<path d="M 924.978220,923.527586 A38.819998,38.819998 0.000000 0,1 891.554279,912.563511" fill="none" stroke ="red" stroke-width="1" />
<path d="M 1063.024623,198.669228 A18.873991,18.873991 0.000000 0,1 1051.788151,163.063306" fill="none" stroke ="red" stroke-width="1" />
<path d="M 1057.922955,1044.276227 A48.079824,47.123626 87.090746 1,1 1097.951999,1129.830795" fill="none" stroke ="red" stroke-width="1" />
<path d="M 1095.734686,1130.008130 A40.718630,40.718630 0.000000 0,1 1060.487215,1125.388016" fill="none" stroke ="red" stroke-width="1" />
<path d="M 1051.660592,163.362075 A18.929783,18.771238 -8.951170 1,1 1063.124828,198.724857" fill="none" stroke ="red" stroke-width="1" />
<ellipse cx="1472.027484" cy="1063.244895" rx="18.840462" ry="18.840462" stroke="red" stroke-width="1" fill="none" /> 
<path d="M 125.729937,630.696659 A9.475781,9.475781 0.000000 1,1 124.769860,633.991603" fill="none" stroke ="red" stroke-width="1" />
<line x1="762.926740" y1="658.505978" x2="763.708916" y2="733.508250"  fill="none" stroke ="blue" stroke-width="1" />
<line x1="687.676305" y1="735.487627" x2="686.876868" y2="659.485517"  fill="none" stroke ="blue" stroke-width="1" />
<line x1="914.495865" y1="483.500047" x2="914.301678" y2="466.490848"  fill="none" stroke ="blue" stroke-width="1" />
<line x1="913.656828" y1="426.497948" x2="913.434240" y2="409.487775"  fill="none" stroke ="blue" stroke-width="1" />
<line x1="687.506576" y1="659.015503" x2="761.520045" y2="658.071327"  fill="none" stroke ="blue" stroke-width="1" />
<line x1="762.500921" y1="734.582598" x2="688.487822" y2="735.407912"  fill="none" stroke ="blue" stroke-width="1" />
<line x1="750.032596" y1="504.259760" x2="647.362907" y2="441.097356"  fill="none" stroke ="blue" stroke-width="1" />
<line x1="647.363603" y1="440.814206" x2="745.420131" y2="376.378458"  fill="none" stroke ="blue" stroke-width="1" />
<line x1="878.787225" y1="698.483350" x2="878.450979" y2="672.487699"  fill="none" stroke ="blue" stroke-width="1" />
<line x1="878.798382" y1="672.827320" x2="894.974686" y2="655.955108"  fill="none" stroke ="blue" stroke-width="1" />
<line x1="895.479474" y1="656.304837" x2="919.523904" y2="655.891900"  fill="none" stroke ="blue" stroke-width="1" />
<line x1="918.953330" y1="655.982818" x2="935.855089" y2="672.173245"  fill="none" stroke ="blue" stroke-width="1" />
<line x1="936.145374" y1="672.490311" x2="936.506057" y2="696.514922"  fill="none" stroke ="blue" stroke-width="1" />
<line x1="936.277129" y1="696.282695" x2="919.482285" y2="713.507701"  fill="none" stroke ="blue" stroke-width="1" />
<line x1="919.497373" y1="713.338101" x2="895.471244" y2="713.728004"  fill="none" stroke ="blue" stroke-width="1" />
<line x1="895.346946" y1="713.655801" x2="878.697000" y2="697.299464"  fill="none" stroke ="blue" stroke-width="1" />
<line x1="299.499452" y1="6.486713" x2="74.552024" y2="15.761744"  fill="none" stroke ="blue" stroke-width="1" />
<line x1="609.499073" y1="0.447364" x2="485.484713" y2="2.632372"  fill="none" stroke ="blue" stroke-width="1" />
<line x1="484.504079" y1="2.571850" x2="391.492691" y2="2.163099"  fill="none" stroke ="blue" stroke-width="1" />
<line x1="702.769026" y1="189.497793" x2="702.563854" y2="164.491271"  fill="none" stroke ="blue" stroke-width="1" />
<line x1="702.734619" y1="165.734752" x2="719.739439" y2="148.739575"  fill="none" stroke ="blue" stroke-width="1" />
<line x1="720.466502" y1="148.992972" x2="741.522782" y2="148.524930"  fill="none" stroke ="blue" stroke-width="1" />
<line x1="741.709236" y1="148.320577" x2="758.499348" y2="164.500676"  fill="none" stroke ="blue" stroke-width="1" />
<line x1="758.857572" y1="164.501928" x2="758.926586" y2="187.501721"  fill="none" stroke ="blue" stroke-width="1" />
<line x1="758.848258" y1="187.859496" x2="742.488680" y2="204.506118"  fill="none" stroke ="blue" stroke-width="1" />
<line x1="745.486653" y1="204.283339" x2="719.489782" y2="204.568524"  fill="none" stroke ="blue" stroke-width="1" />
<line x1="719.205199" y1="204.783000" x2="703.081913" y2="188.925083"  fill="none" stroke ="blue" stroke-width="1" />
<line x1="74.535421" y1="15.468111" x2="0.488195" y2="18.177348"  fill="none" stroke ="blue" stroke-width="1" />
<line x1="1213.488382" y1="821.962053" x2="1251.513840" y2="821.140818"  fill="none" stroke ="blue" stroke-width="1" />
<line x1="1252.178920" y1="820.835198" x2="1280.790025" y2="848.241194"  fill="none" stroke ="blue" stroke-width="1" />
<line x1="1280.728723" y1="848.481076" x2="1281.329718" y2="887.502623"  fill="none" stroke ="blue" stroke-width="1" />
<line x1="1281.099761" y1="887.065368" x2="1252.923055" y2="916.956139"  fill="none" stroke ="blue" stroke-width="1" />
<line x1="1252.522672" y1="916.532898" x2="1214.497093" y2="917.367538"  fill="none" stroke ="blue" stroke-width="1" />
<line x1="1213.855979" y1="917.132941" x2="1186.948422" y2="891.037620"  fill="none" stroke ="blue" stroke-width="1" />
<line x1="1186.392158" y1="890.539316" x2="1185.645986" y2="850.534581"  fill="none" stroke ="blue" stroke-width="1" />
<line x1="1185.742149" y1="850.729594" x2="1213.003523" y2="821.977416"  fill="none" stroke ="blue" stroke-width="1" />
</svg>
